fira-sans_four.sfdir

StartChar: exclam
Encoding: 33 33 985
Width: 234
Flags: MW
HStem: -3.5 17.21 660.14 20G
VStem: 108.57 17.28
LayerCount: 2
Fore
SplineSet
119.14 189.43 m 1
 115.21 189.43 l 1
 115.21 680.14 l 1
 119.14 680.14 l 1
 119.14 189.43 l 1
117.21 13.71 m 0
 122.28 13.71 125.851 10 125.851 5.07031 c 0
 125.851 0.209961 122.28 -3.5 117.21 -3.5 c 0
 112.21 -3.5 108.57 0.209961 108.57 5.07031 c 0
 108.57 10 112.21 13.71 117.21 13.71 c 0
EndSplineSet
EndChar
StartChar: quotedbl
Encoding: 34 34 2129
Width: 317
Flags: MW
HStem: 660 20G<89 93 93 93 224 228 228 228>
VStem: 89.5 138.5
LayerCount: 2
Back
Fore
SplineSet
90 446 m 1
 89 680 l 1
 93 680 l 1
 93 446 l 1
 90 446 l 1
224 446 m 1
 224 680 l 1
 228 680 l 1
 228 446 l 1
 224 446 l 1
EndSplineSet
EndChar
StartChar: numbersign
Encoding: 35 35 2124
Width: 480
Flags: MW
HStem: 0 21G<79 83 79 79 313 317 313 313> 0 216<79 83 79 79 313 317 313 313> 213 256<52 107 15 141 111 141 145 341 111 111 345 375 379 428 345 345> 465 197<52 170 52 170 145 170 166 170 166 374 400 404>
VStem: 15 450<213 465 216 465>
LayerCount: 2
Back
Fore
SplineSet
465 465 m 1x98
 379 465 l 1
 346 216 l 1x58
 428 216 l 1
 428 213 l 1
 345 213 l 1
 317 0 l 1
 313 0 l 1
 341 213 l 1
 111 213 l 1
 83 0 l 1
 79 0 l 1
 107 213 l 1xa8
 15 213 l 1
 15 216 l 1
 108 216 l 1x48
 140 465 l 1
 52 465 l 1
 52 469 l 1
 141 469 l 1xa8
 166 662 l 1
 170 662 l 1x98
 145 469 l 1
 375 469 l 1xa8
 400 662 l 1
 404 662 l 1x98
 379 469 l 1xa8
 465 469 l 1
 465 465 l 1x98
342 216 m 1
 374 465 l 1
 145 465 l 1
 112 216 l 1
 342 216 l 1
EndSplineSet
Substitution2: "'onum' Oldstyle Figures lookup 25 subtable" numbersign.osf
Substitution2: "'tnum' Tabular Numbers lookup 24 subtable" numbersign.tf
AlternateSubs2: "'aalt' Access All Alternates lookup 1 subtable" numbersign.tf numbersign.osf
EndChar

StartChar: dollar
Encoding: 36 36 1062
Width: 528
Flags: MW
HStem: -144.22 139 -9.07001 21G -9.05 21G 665.28 140.36
VStem: 63.92 384.65 86.21 175.57
LayerCount: 2
Fore
SplineSet
448.57 173.35 m 0x38
 448.57 67.0498 372.502 -7.59961 257.142 -9.0498 c 1x34
 257.142 -144.22 l 1
 253.352 -144.22 l 1x94
 253.352 -9.06934 l 1x54
 164.781 -8.98926 112.142 21.1309 63.9219 67.1406 c 1
 66.2119 70.4307 l 1
 114.062 24.7803 165.212 -5.21973 253.642 -5.21973 c 0
 367.991 -5.21973 444.562 67.9307 444.562 173.28 c 0
 444.562 277.431 386.491 316.141 262.642 356.001 c 0
 129.491 399.001 86.2109 433.641 86.2109 520.641 c 0
 86.2109 604.931 152.561 669.141 255.99 669.141 c 0
 256.66 669.141 257.33 669.141 257.99 669.141 c 2
 257.99 805.641 l 1
 261.78 805.641 l 1
 261.78 669.101 l 1x94
 339.351 667.881 384.28 642.19 424.851 606.57 c 1
 422.501 603.21 l 1
 381.001 640.78 334.141 665.28 256.001 665.28 c 0
 154.781 665.28 90.2109 602.141 90.2109 520.641 c 0
 90.2109 436.141 131.431 402.28 264.28 359.78 c 0
 389.71 319.71 448.57 279.5 448.57 173.35 c 0x38
EndSplineSet
Substitution2: "'onum' Oldstyle Figures lookup 22 subtable" dollar.osf
Substitution2: "'tnum' Tabular Numbers lookup 21 subtable" dollar.tf
AlternateSubs2: "'aalt' Access All Alternates lookup 1 subtable" dollar.tf dollar.osf
EndChar

StartChar: percent
Encoding: 37 37 1111
Width: 747
Flags: MW
HStem: -9.08 21G -8.5 21G<144.93 144.93> 670.5 20G<601.5 601.5>
VStem: 69.29 250.14 69.29 607.92 427.07 250.14
LayerCount: 2
Fore
SplineSet
605.14 689.35 m 1x68
 148.569 -9.65039 l 1
 144.93 -8.5 l 1
 601.5 690.5 l 1
 605.14 689.35 l 1x68
194.359 670.279 m 0xb4
 271.789 670.279 319.43 614.85 319.43 519.85 c 0
 319.43 427.569 273.93 365.499 194.359 365.499 c 0
 115.999 365.499 69.2891 425.569 69.2891 516.85 c 0
 69.2891 612.85 114.789 670.279 194.359 670.279 c 0xb4
194.35 666.569 m 0
 117.42 666.569 73.3496 611.21 73.3496 516.85 c 0
 73.3496 427.35 118.35 369.21 194.35 369.21 c 0
 271.279 369.21 315.35 429.21 315.35 519.85 c 0
 315.35 613.069 269.42 666.569 194.35 666.569 c 0
552.14 295.699 m 0
 629.569 295.699 677.21 240.27 677.21 145.27 c 0
 677.21 52.9893 631.71 -9.08105 552.14 -9.08105 c 0
 473.779 -9.08105 427.069 50.9893 427.069 142.27 c 0
 427.069 238.27 472.569 295.699 552.14 295.699 c 0
552.13 291.989 m 0
 475.2 291.989 431.13 236.63 431.13 142.27 c 0
 431.13 52.7695 476.13 -5.37012 552.13 -5.37012 c 0
 629.06 -5.37012 673.13 54.6299 673.13 145.27 c 0
 673.13 238.489 627.2 291.989 552.13 291.989 c 0
EndSplineSet
Substitution2: "'onum' Oldstyle Figures lookup 22 subtable" percent.osf
Substitution2: "'tnum' Tabular Numbers lookup 21 subtable" percent.tf
AlternateSubs2: "'aalt' Access All Alternates lookup 1 subtable" percent.tf percent.osf
EndChar
StartChar: ampersand
Encoding: 38 38 2373
Width: 734
GlyphClass: 2
Flags: MW
HStem: -9 21G<252 359.5> -2 21G<652 652> 671 20G<265 347>
VStem: 118 537<1 205.5>
LayerCount: 2
Back
Fore
SplineSet
306 691 m 0x70
 388 691 445 631 445 550 c 0
 445 462 380 420 275 361 c 1
 531 118 l 1
 569 191 587 259 603 348 c 1
 607 347 l 1
 591 258 571 188 533 116 c 1
 655 1 l 1
 652 -2 l 1x70
 531 113 l 1
 482 34 410 -9 309 -9 c 0xb0
 195 -9 118 62 118 159 c 0
 118 252 169 309 268 361 c 1
 189 436 162 473 162 549 c 0
 161 631 224 691 306 691 c 0x70
306 687 m 0
 225 687 166 629 166 549 c 0
 167 475 190 440 272 363 c 1
 377 423 441 464 441 550 c 0
 441 630 387 687 306 687 c 0
272 359 m 1
 172 306 122 251 122 159 c 0
 122 65 197 -5 309 -5 c 0
 409 -5 478 37 529 116 c 1
 272 359 l 1
EndSplineSet
Substitution2: "'ss03' Style Set 3 lookup 35 subtable" ampersand.ss03
Substitution2: "'aalt' Access All Alternates lookup 0 subtable" ampersand.ss03
EndChar

StartChar: quotesingle
Encoding: 39 39 992
Width: 183
Flags: MW
HStem: 660.14 20G
VStem: 89.28 4.14
LayerCount: 2
Fore
SplineSet
89.2803 680.14 m 1
 93.4209 680.14 l 1
 93.1406 445.5 l 1
 89.5703 445.5 l 1
 89.2803 680.14 l 1
EndSplineSet
EndChar

StartChar: parenleft
Encoding: 40 40 1007
Width: 329
Flags: MW
HStem: -125.43 950.86
VStem: 78.93 170.78
LayerCount: 2
Fore
SplineSet
249.71 823.64 m 1
 160.71 692.64 82.9297 576.5 82.9297 350 c 0
 82.9297 123.5 160.71 7.34961 249.71 -123.65 c 1
 246.43 -125.431 l 1
 156 6.7793 78.9297 122.85 78.9297 350 c 0
 78.9297 577.14 156 693.21 246.43 825.43 c 1
 249.71 823.64 l 1
EndSplineSet
Substitution2: "'case' Case-Sensitive Forms lookup 25 subtable" parenleft.case
Substitution2: "'dnom' Denominators lookup 14 subtable" parenleft.dnom
Substitution2: "'numr' Numerators lookup 13 subtable" parenleft.numr
Substitution2: "'sups' Superscript lookup 12 subtable" parenleftsuperior
Substitution2: "'subs' Subscript lookup 11 subtable" uni208D
AlternateSubs2: "'aalt' Access All Alternates lookup 1 subtable" uni208D parenleftsuperior parenleft.numr parenleft.dnom parenleft.case
EndChar
StartChar: parenright
Encoding: 41 41 2155
Width: 329
Flags: MW
HStem: -125 950<82 82>
VStem: 79 171
LayerCount: 2
Back
Fore
SplineSet
82 825 m 1
 173 693 250 577 250 350 c 0
 250 123 173 7 82 -125 c 1
 79 -124 l 1
 168 7 246 124 246 350 c 0
 246 577 168 693 79 824 c 1
 82 825 l 1
EndSplineSet
Substitution2: "'case' Case-Sensitive Forms lookup 28 subtable" parenright.case
Substitution2: "'dnom' Denominators lookup 16 subtable" parenright.dnom
Substitution2: "'numr' Numerators lookup 15 subtable" parenright.numr
Substitution2: "'sups' Superscript lookup 14 subtable" uni207E
Substitution2: "'subs' Subscript lookup 13 subtable" uni208E
AlternateSubs2: "'aalt' Access All Alternates lookup 1 subtable" uni208E uni207E parenright.numr parenright.dnom parenright.case
EndChar
StartChar: asterisk
Encoding: 42 42 2112
Width: 428
Flags: MW
HStem: 544 20G<211 211 217 217> 547 20G<212 212> 548 20G<216 216> 708 20G<212 216 216 216>
VStem: 60 156 212 156.5
LayerCount: 2
Back
Fore
SplineSet
369 613 m 1x34
 217 564 l 1
 311 435 l 1
 307 433 l 1
 214 562 l 1
 120 433 l 1
 117 435 l 1
 211 564 l 1
 59 613 l 1
 61 617 l 1x98
 212 567 l 1x54
 212 728 l 1
 216 728 l 1
 216 568 l 1x38
 368 617 l 1
 369 613 l 1x34
EndSplineSet
EndChar
StartChar: plus
Encoding: 43 43 2296
Width: 479
GlyphClass: 2
Flags: MW
HStem: 173 160<84 241 84 237> 329 160<84 241 84 241 237 394 237 241>
VStem: 84 157<173 333 173 333> 237 157<173 333 329 333 329 489 329 489>
LayerCount: 2
Back
Fore
SplineSet
241 489 m 1x60
 241 333 l 1xa0
 394 333 l 1
 394 329 l 1x50
 241 329 l 1x60
 241 173 l 1
 237 173 l 1x90
 237 329 l 1x50
 84 329 l 1
 84 333 l 1xa0
 237 333 l 1x90
 237 489 l 1
 241 489 l 1x60
EndSplineSet
Substitution2: "'onum' Oldstyle Figures lookup 25 subtable" plus.osf
Substitution2: "'tnum' Tabular Numbers lookup 24 subtable" plus.tf
Substitution2: "'dnom' Denominators lookup 16 subtable" plus.dnom
Substitution2: "'numr' Numerators lookup 15 subtable" plus.numr
Substitution2: "'sups' Superscript lookup 14 subtable" uni207A
Substitution2: "'subs' Subscript lookup 13 subtable" uni208A
AlternateSubs2: "'aalt' Access All Alternates lookup 1 subtable" uni208A uni207A plus.numr plus.dnom plus.tf plus.osf
EndChar
StartChar: comma
Encoding: 44 44 2119
Width: 124
Flags: MW
HStem: -4 17<60 60>
VStem: 54 17<2.5 6.5>
LayerCount: 2
Back
Fore
SplineSet
62 13 m 0
 67 13 71 9 71 4 c 0
 71 -1 69 -3 68 -7 c 2
 31 -111 l 1
 27 -111 l 1
 60 -4 l 1
 56 -3 54 1 54 4 c 0
 54 9 57 13 62 13 c 0
EndSplineSet
EndChar
StartChar: hyphen
Encoding: 45 45 2166
Width: 400
Flags: MW
HStem: 310 4<84 316 84 316>
VStem: 84 232<310 314 310 314>
LayerCount: 2
Back
Fore
SplineSet
84 310 m 1
 84 314 l 1
 316 314 l 1
 316 310 l 1
 84 310 l 1
EndSplineSet
Substitution2: "'case' Case-Sensitive Forms lookup 28 subtable" hyphen.case
Substitution2: "'aalt' Access All Alternates lookup 0 subtable" hyphen.case
EndChar
StartChar: period
Encoding: 46 46 2126
Width: 124
Flags: MW
HStem: -4 17<59.5 64.5>
VStem: 54 17<1.5 6.5>
LayerCount: 2
Back
Fore
SplineSet
62 13 m 0
 67 13 71 9 71 4 c 0
 71 -1 67 -4 62 -4 c 0
 57 -4 54 -1 54 4 c 0
 54 9 57 13 62 13 c 0
EndSplineSet
EndChar

StartChar: slash
Encoding: 47 47 994
Width: 520
Flags: MW
HStem: -92.29 886.65
VStem: 142.07 235.78
LayerCount: 2
Fore
SplineSet
377.85 792.93 m 1
 145.85 -92.29 l 1
 142.069 -90.8604 l 1
 374.069 794.359 l 1
 377.85 792.93 l 1
EndSplineSet
Substitution2: "'frac' Diagonal Fractions lookup 15 subtable" fraction
Substitution2: "'aalt' Access All Alternates lookup 0 subtable" fraction
EndChar
StartChar: zero
Encoding: 48 48 2011
Width: 537
Flags: MW
HStem: -9 21G<204 332>
VStem: 80 377<218.5 443.5>
LayerCount: 2
Back
Fore
SplineSet
268 670 m 0
 396 670 457 556 457 331 c 0
 457 106 396 -9 268 -9 c 0
 140 -9 80 106 80 331 c 0
 80 556 140 670 268 670 c 0
268 666 m 0
 143 666 84 553 84 331 c 0
 84 109 143 -5 268 -5 c 0
 394 -5 453 109 453 331 c 0
 453 553 394 666 268 666 c 0
EndSplineSet
Substitution2: "'zero' Slashed Zero lookup 31 subtable" zero.zero
Substitution2: "'onum' Oldstyle Figures lookup 25 subtable" zero.osf
Substitution2: "'tnum' Tabular Numbers lookup 24 subtable" zero.tf
Substitution2: "'frac' Diagonal Fractions lookup 18 subtable" zero.numr
Substitution2: "'dnom' Denominators lookup 16 subtable" zero.dnom
Substitution2: "'numr' Numerators lookup 15 subtable" zero.numr
Substitution2: "'sups' Superscript lookup 14 subtable" uni2070
Substitution2: "'subs' Subscript lookup 13 subtable" uni2080
AlternateSubs2: "'aalt' Access All Alternates lookup 1 subtable" uni2080 uni2070 zero.numr zero.dnom zero.tf zero.osf zero.zero
EndChar

StartChar: one
Encoding: 49 49 878
Width: 386
Flags: MW
HStem: 0 21G<246.5 246.5>
VStem: 60.28 186.22
LayerCount: 2
Fore
SplineSet
246.5 0 m 1
 242.499 -0.00976562 l 1
 242.499 655.71 l 1
 61.2793 539.35 l 1
 59.2793 542.92 l 1
 242.93 660.14 l 1
 246.5 660.14 l 1
 246.5 0 l 1
EndSplineSet
Substitution2: "'onum' Oldstyle Figures lookup 22 subtable" one.osf
Substitution2: "'tnum' Tabular Numbers lookup 21 subtable" one.tf
Substitution2: "'frac' Diagonal Fractions lookup 16 subtable" one.numr
Substitution2: "'dnom' Denominators lookup 14 subtable" one.dnom
Substitution2: "'numr' Numerators lookup 13 subtable" one.numr
Substitution2: "'sups' Superscript lookup 12 subtable" onesuperior
Substitution2: "'subs' Subscript lookup 11 subtable" oneinferior
AlternateSubs2: "'aalt' Access All Alternates lookup 1 subtable" oneinferior onesuperior one.numr one.dnom one.tf one.osf
EndChar
StartChar: two
Encoding: 50 50 2013
Width: 463
Flags: MW
HStem: 0 21G<50 394 50 50>
VStem: 50 344<0 4 0 4>
LayerCount: 2
Back
Fore
SplineSet
220 670 m 0
 324 670 386 596 386 507 c 0
 386 374 314 299 55 4 c 1
 394 4 l 1
 394 0 l 1
 50 0 l 1
 50 4 l 1
 311 301 382 376 382 507 c 0
 382 596 321 666 220 666 c 0
 146 666 100 635 55 580 c 1
 51 582 l 1
 98 638 145 670 220 670 c 0
EndSplineSet
Substitution2: "'onum' Oldstyle Figures lookup 25 subtable" two.osf
Substitution2: "'tnum' Tabular Numbers lookup 24 subtable" two.tf
Substitution2: "'frac' Diagonal Fractions lookup 18 subtable" two.numr
Substitution2: "'dnom' Denominators lookup 16 subtable" two.dnom
Substitution2: "'numr' Numerators lookup 15 subtable" two.numr
Substitution2: "'sups' Superscript lookup 14 subtable" uni00B2
Substitution2: "'subs' Subscript lookup 13 subtable" uni2082
AlternateSubs2: "'aalt' Access All Alternates lookup 1 subtable" uni2082 uni00B2 two.numr two.dnom two.tf two.osf
EndChar
StartChar: three
Encoding: 51 51 2014
Width: 470
Flags: MW
HStem: -9 21G<173 267>
VStem: 34 361<72 235.5>
LayerCount: 2
Back
Fore
SplineSet
216 670 m 0
 317 670 376 605 376 513 c 0
 376 408 306 359 233 353 c 1
 323 348 395 293 395 178 c 0
 395 68 322 -9 212 -9 c 0
 134 -9 84 15 34 72 c 1
 38 74 l 1
 88 17 136 -5 212 -5 c 0
 320 -5 391 71 391 178 c 0
 391 292 319 351 212 351 c 2
 178 351 l 1
 178 355 l 1
 215 355 l 2
 294 355 372 404 372 513 c 0
 372 603 313 666 216 666 c 0
 159 666 105 647 56 597 c 1
 53 599 l 1
 101 649 156 670 216 670 c 0
EndSplineSet
Substitution2: "'onum' Oldstyle Figures lookup 25 subtable" three.osf
Substitution2: "'tnum' Tabular Numbers lookup 24 subtable" three.tf
Substitution2: "'frac' Diagonal Fractions lookup 18 subtable" three.numr
Substitution2: "'dnom' Denominators lookup 16 subtable" three.dnom
Substitution2: "'numr' Numerators lookup 15 subtable" three.numr
Substitution2: "'sups' Superscript lookup 14 subtable" uni00B3
Substitution2: "'subs' Subscript lookup 13 subtable" uni2083
AlternateSubs2: "'aalt' Access All Alternates lookup 1 subtable" uni2083 uni00B3 three.numr three.dnom three.tf three.osf
EndChar

StartChar: four
Encoding: 52 52 881
Width: 494
Flags: MW
HStem: 0 198.92
VStem: 355.21 98.79
LayerCount: 2
Fore
SplineSet
454 195.07 m 1
 359.211 195.07 l 1
 359.211 0 l 1
 355.211 0 l 1
 355.211 195.07 l 1
 54.6406 195.07 l 1
 54.6406 199.641 l 1
 263.28 670.28 l 1
 267 668.57 l 1
 58.7803 198.92 l 1
 355.21 198.92 l 1
 355.5 417.99 l 1
 359.21 417.99 l 1
 359.21 198.92 l 1
 454 198.92 l 1
 454 195.07 l 1
EndSplineSet
Substitution2: "'onum' Oldstyle Figures lookup 22 subtable" four.osf
Substitution2: "'tnum' Tabular Numbers lookup 21 subtable" four.tf
Substitution2: "'frac' Diagonal Fractions lookup 16 subtable" four.numr
Substitution2: "'dnom' Denominators lookup 14 subtable" four.dnom
Substitution2: "'numr' Numerators lookup 13 subtable" four.numr
Substitution2: "'sups' Superscript lookup 12 subtable" foursuperior
Substitution2: "'subs' Subscript lookup 11 subtable" fourinferior
AlternateSubs2: "'aalt' Access All Alternates lookup 1 subtable" fourinferior foursuperior four.numr four.dnom four.tf four.osf
EndChar

StartChar: five
Encoding: 53 53 882
Width: 470
Flags: MW
HStem: -9.06 21G 405.72 254.42
VStem: 49.29 352.14
LayerCount: 2
Fore
SplineSet
380 656.28 m 1
 94.6504 656.3 l 1
 94.6504 363.37 l 1
 129.15 390.72 168.931 409.58 226.65 409.58 c 0
 336.931 409.58 401.431 335.36 401.431 213.08 c 0
 401.431 84.0098 335.65 -9.06055 211.65 -9.06055 c 0
 144.79 -9.06055 87.8604 18.0098 49.29 63.2197 c 1
 52.7197 65.5098 l 1
 90.0801 21.5098 146.29 -5.20996 211.72 -5.20996 c 0
 333.22 -5.20996 397.29 86.7197 397.29 213.08 c 0
 397.29 332.86 334.29 405.721 226.58 405.721 c 0
 169.93 405.721 134.29 389.07 95.1396 359.36 c 1
 90.6396 359.36 l 1
 90.6396 660.141 l 1
 380.43 660.141 l 1
 380 656.28 l 1
EndSplineSet
Substitution2: "'onum' Oldstyle Figures lookup 22 subtable" five.osf
Substitution2: "'tnum' Tabular Numbers lookup 21 subtable" five.tf
Substitution2: "'frac' Diagonal Fractions lookup 16 subtable" five.numr
Substitution2: "'dnom' Denominators lookup 14 subtable" five.dnom
Substitution2: "'numr' Numerators lookup 13 subtable" five.numr
Substitution2: "'sups' Superscript lookup 12 subtable" fivesuperior
Substitution2: "'subs' Subscript lookup 11 subtable" fiveinferior
AlternateSubs2: "'aalt' Access All Alternates lookup 1 subtable" fiveinferior fivesuperior five.numr five.dnom five.tf five.osf
EndChar

StartChar: six
Encoding: 54 54 883
Width: 506
Flags: MW
HStem: -9.08 21G 419.5 250.78
VStem: 79.63 361.5
LayerCount: 2
Fore
SplineSet
274.85 423.35 m 0
 374.42 423.35 441.13 356.501 441.13 222.001 c 0
 441.13 76.8506 380.06 -9.0791 270.34 -9.0791 c 0
 133.49 -9.0791 79.6299 124.211 79.6299 287.141 c 0
 79.6299 507.78 154.63 670.28 300.28 670.28 c 0
 342.7 670.28 373.851 656.21 400.28 635.07 c 1
 398.13 631.57 l 1
 371.85 653.57 341.06 666.42 300.21 666.42 c 0
 157.88 666.42 84.25 502.729 83.71 291.13 c 1
 124.64 360.58 185.42 423.35 274.85 423.35 c 0
270.34 -5.21973 m 0
 378.62 -5.21973 437.06 80.8584 437.06 221.929 c 0
 437.06 354.209 372.42 419.499 274.77 419.499 c 0
 186.659 419.499 126.539 357.489 83.6992 285.18 c 1
 84.1895 125.34 136.68 -5.21973 270.34 -5.21973 c 0
EndSplineSet
Substitution2: "'onum' Oldstyle Figures lookup 22 subtable" six.osf
Substitution2: "'tnum' Tabular Numbers lookup 21 subtable" six.tf
Substitution2: "'frac' Diagonal Fractions lookup 16 subtable" six.numr
Substitution2: "'dnom' Denominators lookup 14 subtable" six.dnom
Substitution2: "'numr' Numerators lookup 13 subtable" six.numr
Substitution2: "'sups' Superscript lookup 12 subtable" sixsuperior
Substitution2: "'subs' Subscript lookup 11 subtable" sixinferior
AlternateSubs2: "'aalt' Access All Alternates lookup 1 subtable" sixinferior sixsuperior six.numr six.dnom six.tf six.osf
EndChar

StartChar: seven
Encoding: 55 55 884
Width: 435
Flags: MW
HStem: -3.42999 21G
VStem: 44.28 341.15
LayerCount: 2
Fore
SplineSet
385.43 656.5 m 1
 102.289 -5.06934 l 1
 98.3594 -3.42969 l 1
 381.209 656.29 l 1
 44.2793 656.29 l 1
 44.2793 660.14 l 1
 385.43 660.14 l 1
 385.43 656.5 l 1
EndSplineSet
Substitution2: "'onum' Oldstyle Figures lookup 22 subtable" seven.osf
Substitution2: "'tnum' Tabular Numbers lookup 21 subtable" seven.tf
Substitution2: "'frac' Diagonal Fractions lookup 16 subtable" seven.numr
Substitution2: "'dnom' Denominators lookup 14 subtable" seven.dnom
Substitution2: "'numr' Numerators lookup 13 subtable" seven.numr
Substitution2: "'sups' Superscript lookup 12 subtable" sevensuperior
Substitution2: "'subs' Subscript lookup 11 subtable" seveninferior
AlternateSubs2: "'aalt' Access All Alternates lookup 1 subtable" seveninferior sevensuperior seven.numr seven.dnom seven.tf seven.osf
EndChar
StartChar: eight
Encoding: 56 56 2019
Width: 523
Flags: MW
HStem: -9 21G<203.5 322>
VStem: 69 385<115 208 113 216.5>
LayerCount: 2
Back
Fore
SplineSet
298 340 m 1
 411 295 454 252 454 164 c 0
 454 62 380 -9 264 -9 c 0
 143 -9 69 61 69 169 c 0
 69 264 124 321 226 365 c 1
 132 402 99 447 99 514 c 0
 99 609 175 670 262 670 c 0
 350 670 426 615 426 513 c 0
 426 435 391 388 298 340 c 1
103 514 m 0
 103 440 145 400 239 363 c 2
 294 341 l 1
 384 389 422 434 422 513 c 0
 422 613 349 666 262 666 c 0
 177 666 103 607 103 514 c 0
264 -5 m 0
 378 -5 450 64 450 164 c 0
 450 262 394 299 271 347 c 2
 230 363 l 1
 126 318 73 261 73 169 c 0
 73 64 144 -5 264 -5 c 0
EndSplineSet
Substitution2: "'onum' Oldstyle Figures lookup 25 subtable" eight.osf
Substitution2: "'tnum' Tabular Numbers lookup 24 subtable" eight.tf
Substitution2: "'frac' Diagonal Fractions lookup 18 subtable" eight.numr
Substitution2: "'dnom' Denominators lookup 16 subtable" eight.dnom
Substitution2: "'numr' Numerators lookup 15 subtable" eight.numr
Substitution2: "'sups' Superscript lookup 14 subtable" uni2078
Substitution2: "'subs' Subscript lookup 13 subtable" uni2088
AlternateSubs2: "'aalt' Access All Alternates lookup 1 subtable" uni2088 uni2078 eight.numr eight.dnom eight.tf eight.osf
EndChar

StartChar: nine
Encoding: 57 57 886
Width: 500
Flags: MW
HStem: -7.78999 21G
VStem: 64.64 360.64
LayerCount: 2
Fore
SplineSet
244.57 670.28 m 0
 375.71 670.28 425.279 565.418 425.279 393.418 c 0
 425.279 150.778 315.709 47.9883 125.069 -11.4414 c 1
 123.499 -7.79102 l 1
 311.229 51.9092 417.069 148.979 421.239 384.77 c 1
 377.22 305.92 316.66 260.42 233.28 260.42 c 0
 136.851 260.42 64.6406 336.57 64.6406 459.851 c 0
 64.6406 590.07 140.851 670.28 244.57 670.28 c 0
233.499 264.278 m 0
 316.099 264.278 376.948 311.058 421.278 391.348 c 1
 421.128 564.298 372.528 666.418 244.639 666.418 c 0
 143.849 666.418 68.7783 588.278 68.7783 459.778 c 0
 68.7783 338.559 138.849 264.278 233.499 264.278 c 0
EndSplineSet
Substitution2: "'onum' Oldstyle Figures lookup 22 subtable" nine.osf
Substitution2: "'tnum' Tabular Numbers lookup 21 subtable" nine.tf
Substitution2: "'frac' Diagonal Fractions lookup 16 subtable" nine.numr
Substitution2: "'dnom' Denominators lookup 14 subtable" nine.dnom
Substitution2: "'numr' Numerators lookup 13 subtable" nine.numr
Substitution2: "'sups' Superscript lookup 12 subtable" ninesuperior
Substitution2: "'subs' Subscript lookup 11 subtable" nineinferior
AlternateSubs2: "'aalt' Access All Alternates lookup 1 subtable" nineinferior ninesuperior nine.numr nine.dnom nine.tf nine.osf
EndChar

StartChar: colon
Encoding: 58 58 982
Width: 124
Flags: MW
HStem: -4.42999 17.21 423.14 17.21
VStem: 53.5 17.28
LayerCount: 2
Fore
SplineSet
62.1396 440.35 m 0
 67.21 440.35 70.7803 436.64 70.7803 431.71 c 0
 70.7803 426.85 67.21 423.14 62.1396 423.14 c 0
 57.1396 423.14 53.5 426.85 53.5 431.71 c 0
 53.5 436.64 57.1396 440.35 62.1396 440.35 c 0
62.1396 12.7793 m 0
 67.21 12.7793 70.7803 9.06934 70.7803 4.13965 c 0
 70.7803 -0.720703 67.21 -4.43066 62.1396 -4.43066 c 0
 57.1396 -4.43066 53.5 -0.720703 53.5 4.13965 c 0
 53.5 9.06934 57.1396 12.7793 62.1396 12.7793 c 0
EndSplineSet
EndChar

StartChar: semicolon
Encoding: 59 59 993
Width: 124
Flags: MW
HStem: -4.22 17 -4.22 21G 423.14 17.21
VStem: 53.5 17.28
LayerCount: 2
Fore
SplineSet
62.1396 440.35 m 0x70
 67.21 440.35 70.7803 436.64 70.7803 431.71 c 0
 70.7803 426.85 67.21 423.14 62.1396 423.14 c 0
 57.1396 423.14 53.5 426.85 53.5 431.71 c 0
 53.5 436.64 57.1396 440.35 62.1396 440.35 c 0x70
62.1396 12.7793 m 0xb0
 67.21 12.7793 70.7803 9.06934 70.7803 4.13965 c 0
 70.7803 -0.510742 69.3506 -3.44043 68.0703 -7.15039 c 2
 31.2803 -111.15 l 1
 26.8506 -111.15 l 1
 60.3506 -4.2207 l 1
 55.7803 -3.01074 53.5 0.489258 53.5 4.13965 c 0
 53.5 9.06934 57.1396 12.7793 62.1396 12.7793 c 0xb0
EndSplineSet
EndChar
StartChar: less
Encoding: 60 60 2259
Width: 496
GlyphClass: 2
Flags: MW
HStem: 173 316<405 405>
VStem: 89 318<177 335 177 335>
LayerCount: 2
Back
Fore
SplineSet
405 489 m 1
 407 485 l 1
 93 333 l 1
 407 177 l 1
 405 173 l 1
 89 331 l 1
 89 335 l 1
 405 489 l 1
EndSplineSet
Substitution2: "'onum' Oldstyle Figures lookup 25 subtable" less.osf
Substitution2: "'tnum' Tabular Numbers lookup 24 subtable" less.tf
AlternateSubs2: "'aalt' Access All Alternates lookup 1 subtable" less.tf less.osf
EndChar
StartChar: equal
Encoding: 61 61 2251
Width: 479
GlyphClass: 2
Flags: MW
HStem: 254 154<84 394 84 394>
VStem: 84 310<254 258 254 258 404 408 254 408>
LayerCount: 2
Back
Fore
SplineSet
84 404 m 1
 84 408 l 1
 394 408 l 1
 394 404 l 1
 84 404 l 1
84 254 m 1
 84 258 l 1
 394 258 l 1
 394 254 l 1
 84 254 l 1
EndSplineSet
Substitution2: "'onum' Oldstyle Figures lookup 25 subtable" equal.osf
Substitution2: "'tnum' Tabular Numbers lookup 24 subtable" equal.tf
Substitution2: "'dnom' Denominators lookup 16 subtable" equal.dnom
Substitution2: "'numr' Numerators lookup 15 subtable" equal.numr
Substitution2: "'sups' Superscript lookup 14 subtable" uni207C
AlternateSubs2: "'aalt' Access All Alternates lookup 1 subtable" uni207C equal.numr equal.dnom equal.tf equal.osf
EndChar
StartChar: greater
Encoding: 62 62 2254
Width: 496
GlyphClass: 2
Flags: MW
HStem: 173 316<91 91>
VStem: 89 318<177 335 331 485>
LayerCount: 2
Back
Fore
SplineSet
91 489 m 1
 407 335 l 1
 407 331 l 1
 91 173 l 1
 89 177 l 1
 403 333 l 1
 89 485 l 1
 91 489 l 1
EndSplineSet
Substitution2: "'onum' Oldstyle Figures lookup 25 subtable" greater.osf
Substitution2: "'tnum' Tabular Numbers lookup 24 subtable" greater.tf
AlternateSubs2: "'aalt' Access All Alternates lookup 1 subtable" greater.tf greater.osf
EndChar
StartChar: question
Encoding: 63 63 2127
Width: 447
Flags: MW
HStem: -4 18<189.5 194.5> 670 20G<200.5 276.5>
VStem: 190 189<271 595.5>
LayerCount: 2
Back
Fore
SplineSet
235 690 m 0
 318 690 379 635 379 556 c 0
 379 412 194 432 194 271 c 2
 194 189 l 1
 190 189 l 1
 190 271 l 2
 190 435 375 413 375 556 c 0
 375 633 316 686 235 686 c 0
 167 686 116 660 72 607 c 1
 69 610 l 1
 114 663 166 690 235 690 c 0
192 14 m 0
 197 14 201 10 201 5 c 0
 201 0 197 -4 192 -4 c 0
 187 -4 183 0 183 5 c 0
 183 10 187 14 192 14 c 0
EndSplineSet
EndChar

StartChar: at
Encoding: 64 64 1218
Width: 1020
Flags: MW
HStem: -192.5 212.43 470.43 220.64
VStem: 107.21 230.1 333.23 311 640.24 272.57
LayerCount: 2
Fore
SplineSet
527.85 691.07 m 0xe8
 786.21 691.07 912.809 507.351 912.809 309.001 c 0xe8
 912.809 79.0713 831.158 14.0713 755.019 14.0713 c 0
 690.068 14.0713 645.229 66.7012 640.929 159.831 c 1
 612.198 66.7314 561.028 16.0713 488.868 16.0713 c 0
 401.868 16.0713 333.229 88.001 333.229 231.071 c 0
 333.229 402.001 425.158 474.281 524.938 474.281 c 0
 575.009 474.281 616.509 457.352 644.229 442.142 c 1
 644.229 175.252 l 2xd0
 644.398 72.9922 687.858 17.7822 755.009 17.7822 c 0
 830.369 17.7822 908.719 82.1318 908.719 308.852 c 0
 908.719 506.562 784.289 687.212 527.859 687.212 c 0
 276.93 687.212 111.29 480.142 111.29 243.991 c 0
 111.29 -33.5791 290.14 -188.649 525.93 -188.649 c 0
 587.069 -188.649 655.999 -176.649 705.429 -157.499 c 1
 705.999 -161.289 l 1
 656.569 -180.289 587.859 -192.499 525.859 -192.499 c 0
 289.14 -192.499 107.21 -34.999 107.21 244.001 c 0
 107.21 481.351 275.5 691.07 527.85 691.07 c 0xe8
640.638 169.021 m 0
 640.618 170.49 640.599 171.961 640.599 173.451 c 2
 640.238 174.001 l 1
 640.238 439.861 l 1
 614.588 454.001 574.308 470.431 525.018 470.431 c 0
 425.668 470.431 337.308 399.721 337.308 231.07 c 0
 337.308 89.3604 402.668 19.9307 489.018 19.9307 c 0
 562.737 19.9307 613.018 74.2803 640.638 169.021 c 0
EndSplineSet
EndChar
StartChar: B
Encoding: 66 66 36
Width: 582
GlyphClass: 2
Flags: MW
HStem: 0 21G<129 288 129 129> 358 322<133 264 264 317 133 133> 660 20G<129 264 264 334>
VStem: 129 388<115.5 239 115.5 680>
AnchorPoint: "Anchor-14" 0 0 basechar 0
AnchorPoint: "Anchor-13" 0 0 basechar 0
AnchorPoint: "Anchor-12" 282 680 basechar 0
AnchorPoint: "Anchor-11" 0 0 basechar 0
AnchorPoint: "Anchor-10" 310 0 basechar 0
LayerCount: 2
Back
Fore
SplineSet
339 360 m 1xb0
 434 355 517 295 517 183 c 0
 517 48 419 0 288 0 c 2
 129 0 l 1
 129 680 l 1
 264 680 l 2
 404 680 479 620 479 513 c 0
 479 428 416 370 339 360 c 1xb0
265 676 m 2
 133 676 l 1
 133 362 l 1
 312 362 l 2
 408 362 475 429 475 513 c 0
 475 616 402 676 265 676 c 2
289 4 m 2
 416 4 513 49 513 183 c 0
 513 292 430 358 317 358 c 2
 133 358 l 1xd0
 133 4 l 1
 289 4 l 2
EndSplineSet
Substitution2: "'c2sc' Capitals to Small Capitals lookup 26 subtable" b.sc
Substitution2: "'aalt' Access All Alternates lookup 0 subtable" b.sc
Position2: "'cpsp' Capital Spacing lookup 0 subtable" dx=5 dy=0 dh=10 dv=0
EndChar

StartChar: C
Encoding: 67 67 14
Width: 530
GlyphClass: 2
Flags: MW
HStem: -9.07001 21G 670.14 20G
VStem: 84.29 419.71
AnchorPoint: "Anchor-11" 341 0 basechar 0
AnchorPoint: "Anchor-10" 0 0 basechar 0
AnchorPoint: "Anchor-9" 343 680 basechar 0
AnchorPoint: "Anchor-8" 0 0 basechar 0
LayerCount: 2
Fore
SplineSet
342.21 690.14 m 0
 416.28 690.14 459.429 664.349 495.068 632.999 c 1
 492.929 629.569 l 1
 457.068 660.919 414.568 686.209 342.358 686.209 c 0
 194.568 686.209 88.4287 574.489 88.4287 339.14 c 0
 88.4287 115.779 191.568 -5.07031 341.139 -5.07031 c 0
 421.709 -5.07031 469.069 26.3594 501.709 53.8594 c 1
 503.999 50.3594 l 1
 471.139 22.5693 422.789 -9.07031 341.069 -9.07031 c 0
 188.14 -9.07031 84.29 113.859 84.29 339.14 c 0
 84.29 577 191.36 690.14 342.21 690.14 c 0
EndSplineSet
Substitution2: "'c2sc' Capitals to Small Capitals lookup 23 subtable" c.sc
Substitution2: "'aalt' Access All Alternates lookup 0 subtable" c.sc
Position2: "'cpsp' Capital Spacing lookup 0 subtable" dx=5 dy=0 dh=10 dv=0
EndChar

StartChar: D
Encoding: 68 68 20
Width: 614
GlyphClass: 2
Flags: MW
HStem: 0 21G<129.28 241.78 129.28 129.28> 660.14 20G
VStem: 129.28 400.08
AnchorPoint: "Anchor-11" 0 0 basechar 0
AnchorPoint: "Anchor-10" 0 0 basechar 0
AnchorPoint: "Anchor-9" 290 680 basechar 0
AnchorPoint: "Anchor-8" 0 0 basechar 0
LayerCount: 2
Fore
SplineSet
235.07 680.14 m 2
 379.21 680.14 529.36 626.07 529.36 348 c 0
 529.36 68.4297 380.431 0 241.78 0 c 2
 129.28 -0 l 1
 129.28 680.14 l 1
 235.07 680.14 l 2
133.351 676.211 m 1
 133.352 3.92188 l 1
 241.852 3.92188 l 2
 379.991 3.92188 525.211 72.1416 525.211 347.991 c 0
 525.211 623.281 376.851 676.211 234.851 676.211 c 2
 133.351 676.211 l 1
EndSplineSet
Substitution2: "'c2sc' Capitals to Small Capitals lookup 23 subtable" d.sc
Substitution2: "'aalt' Access All Alternates lookup 0 subtable" d.sc
Position2: "'cpsp' Capital Spacing lookup 0 subtable" dx=5 dy=0 dh=10 dv=0
EndChar
StartChar: E
Encoding: 69 69 67
Width: 495
GlyphClass: 2
Flags: MW
HStem: 0 21G<129 446 129 129> 359 321<133 393 133 133>
VStem: 129 264<359 363 359 680> 129 317<0 4 0 680>
AnchorPoint: "Anchor-14" 0 0 basechar 0
AnchorPoint: "Anchor-13" 0 0 basechar 0
AnchorPoint: "Anchor-12" 284 680 basechar 0
AnchorPoint: "Anchor-11" 426 0 basechar 0
AnchorPoint: "Anchor-10" 284 0 basechar 0
LayerCount: 2
Back
Fore
SplineSet
436 680 m 1xd0
 436 676 l 1xd0
 133 676 l 1
 133 363 l 1
 393 363 l 1
 393 359 l 1
 133 359 l 1
 133 4 l 1
 446 4 l 1
 446 0 l 1
 129 0 l 1
 129 680 l 1xe0
 436 680 l 1xd0
EndSplineSet
Substitution2: "'c2sc' Capitals to Small Capitals lookup 26 subtable" e.sc
Substitution2: "'aalt' Access All Alternates lookup 0 subtable" e.sc
Position2: "'cpsp' Capital Spacing lookup 0 subtable" dx=5 dy=0 dh=10 dv=0
EndChar

StartChar: F
Encoding: 70 70 34
Width: 470
GlyphClass: 2
Flags: MW
HStem: 0 21G<129.28 133.351 129.28 129.28> 344 336.14
VStem: 129.28 261.36 129.28 301.57
LayerCount: 2
Fore
SplineSet
430.57 676.21 m 1xd0
 133.351 676.21 l 1
 133.351 347.85 l 1
 390.641 347.85 l 1
 390.641 344 l 1
 133.351 344 l 1
 133.351 0 l 1
 129.28 -0 l 1
 129.28 680.14 l 1xe0
 430.851 680.14 l 1
 430.57 676.21 l 1xd0
EndSplineSet
Substitution2: "'c2sc' Capitals to Small Capitals lookup 23 subtable" f.sc
Substitution2: "'aalt' Access All Alternates lookup 0 subtable" f.sc
Position2: "'cpsp' Capital Spacing lookup 0 subtable" dx=5 dy=0 dh=10 dv=0
EndChar
StartChar: G
Encoding: 71 71 98
Width: 600
GlyphClass: 2
Flags: MW
HStem: -9 21G<271.5 388> 670 20G<280 374.5>
VStem: 366 154<339 343 39 343>
AnchorPoint: "Anchor-14" 0 0 basechar 0
AnchorPoint: "Anchor-13" 0 0 basechar 0
AnchorPoint: "Anchor-12" 338 680 basechar 0
AnchorPoint: "Anchor-11" 0 0 basechar 0
AnchorPoint: "Anchor-10" 338 0 basechar 0
LayerCount: 2
Back
Fore
SplineSet
343 690 m 0
 406 690 453 671 502 635 c 1
 499 631 l 1
 452 667 405 686 343 686 c 0
 219 686 88 580 88 345 c 0
 88 117 191 -5 353 -5 c 0
 424 -5 478 18 516 41 c 1
 516 339 l 1
 366 339 l 1
 366 343 l 1
 520 343 l 1
 520 39 l 1
 479 15 423 -9 353 -9 c 0
 190 -9 84 114 84 345 c 0
 84 582 217 690 343 690 c 0
EndSplineSet
Substitution2: "'c2sc' Capitals to Small Capitals lookup 26 subtable" g.sc
Substitution2: "'aalt' Access All Alternates lookup 0 subtable" g.sc
Position2: "'cpsp' Capital Spacing lookup 0 subtable" dx=5 dy=0 dh=10 dv=0
EndChar

StartChar: I
Encoding: 73 73 43
Width: 263
GlyphClass: 2
Flags: MW
HStem: 0 21G<129.279 133.35 129.279 129.279> 660.14 20G
VStem: 129.28 4.07001
AnchorPoint: "Anchor-11" 0 0 basechar 0
AnchorPoint: "Anchor-10" 81 680 basechar 0
AnchorPoint: "Anchor-9" 131 680 basechar 0
AnchorPoint: "Anchor-8" 143 0 basechar 0
LayerCount: 2
Fore
SplineSet
133.35 0 m 1
 129.279 -0 l 1
 129.279 680.14 l 1
 133.35 680.14 l 1
 133.35 0 l 1
EndSplineSet
Substitution2: "'c2sc' Capitals to Small Capitals lookup 23 subtable" i.sc
Substitution2: "'aalt' Access All Alternates lookup 0 subtable" i.sc
Position2: "'cpsp' Capital Spacing lookup 0 subtable" dx=5 dy=0 dh=10 dv=0
EndChar
StartChar: J
Encoding: 74 74 137
Width: 274
GlyphClass: 2
Flags: MW
HStem: 660 20G<147 151 151 151>
VStem: 29 122
AnchorPoint: "Anchor-14" 0 0 basechar 0
AnchorPoint: "Anchor-13" 0 0 basechar 0
AnchorPoint: "Anchor-12" 150 680 basechar 0
AnchorPoint: "Anchor-11" 0 0 basechar 0
AnchorPoint: "Anchor-10" 0 0 basechar 0
LayerCount: 2
Back
Fore
SplineSet
151 680 m 1
 151 85 l 2
 151 -8 132 -50 31 -92 c 1
 29 -88 l 1
 128 -48 147 -6 147 85 c 2
 147 680 l 1
 151 680 l 1
EndSplineSet
Substitution2: "'c2sc' Capitals to Small Capitals lookup 26 subtable" j.sc
Substitution2: "'aalt' Access All Alternates lookup 0 subtable" j.sc
Position2: "'cpsp' Capital Spacing lookup 0 subtable" dx=5 dy=0 dh=10 dv=0
EndChar

StartChar: K
Encoding: 75 75 56
Width: 505
GlyphClass: 2
Flags: MW
HStem: 0 21G 0.929993 21G 660.14 20G
VStem: 129.28 12.72
AnchorPoint: "Anchor-11" 285 0 basechar 0
AnchorPoint: "Anchor-10" 0 0 basechar 0
AnchorPoint: "Anchor-9" 284 680 basechar 0
AnchorPoint: "Anchor-8" 0 0 basechar 0
LayerCount: 2
Fore
SplineSet
133.35 0.929688 m 1x70
 129.279 0.929688 l 1
 129.279 680.14 l 1
 133.35 680.14 l 1
 133.35 0.929688 l 1x70
141.999 366.069 m 1
 490.71 -0.000976562 l 1
 485.21 -0.000976562 l 1xb0
 136.35 366.069 l 1
 469.279 680.14 l 1
 474.709 680.14 l 1
 141.999 366.069 l 1
EndSplineSet
Substitution2: "'c2sc' Capitals to Small Capitals lookup 23 subtable" k.sc
Substitution2: "'aalt' Access All Alternates lookup 0 subtable" k.sc
Position2: "'cpsp' Capital Spacing lookup 0 subtable" dx=5 dy=0 dh=10 dv=0
EndChar

StartChar: L
Encoding: 76 76 58
Width: 446
GlyphClass: 2
Flags: MW
HStem: 0 21G<129.29 421 129.29 129.29> 660.14 20G
VStem: 129.29 292.14
AnchorPoint: "Anchor-11" 275 0 basechar 0
AnchorPoint: "Anchor-10" 0 0 basechar 0
AnchorPoint: "Anchor-9" 131 680 basechar 0
AnchorPoint: "Anchor-8" 0 0 basechar 0
LayerCount: 2
Fore
SplineSet
133.36 4 m 1
 421.43 4 l 1
 421 0 l 1
 129.29 -0 l 1
 129.29 680.14 l 1
 133.36 680.14 l 1
 133.36 4 l 1
EndSplineSet
Substitution2: "'c2sc' Capitals to Small Capitals lookup 23 subtable" l.sc
Substitution2: "'aalt' Access All Alternates lookup 0 subtable" l.sc
Position2: "'cpsp' Capital Spacing lookup 0 subtable" dx=5 dy=0 dh=10 dv=0
EndChar

StartChar: Q
Encoding: 81 81 85
Width: 674
GlyphClass: 2
Flags: MW
HStem: -8.86 21G -5.72 21G 670.14 20G
VStem: 84.29 533.07
LayerCount: 2
Fore
SplineSet
377 -5.71973 m 1x70
 481.5 -6.79004 554.859 -20.0107 617.359 -71.0107 c 1
 613.999 -73.791 l 1
 553.169 -24.6406 485.699 -7.61035 349.619 -8.86035 c 0
 347.259 -8.91992 345.239 -8.92969 343.14 -8.92969 c 0xb0
 184.069 -8.92969 84.2891 118.641 84.2891 338.07 c 0
 84.2891 557.57 187.859 690.141 343.14 690.141 c 0
 504.14 690.141 602.93 563.57 602.93 340 c 0
 602.93 133.21 520.93 8.28027 377 -5.71973 c 1x70
88.4287 338.06 m 0
 88.4287 121.56 186.431 -5.16016 343.141 -5.16016 c 0
 507.86 -5.16016 598.79 122.49 598.79 339.99 c 0
 598.79 560.63 501.93 686.2 343.149 686.2 c 0
 190.079 686.2 88.4287 554.92 88.4287 338.06 c 0
EndSplineSet
Substitution2: "'c2sc' Capitals to Small Capitals lookup 23 subtable" q.sc
Substitution2: "'aalt' Access All Alternates lookup 0 subtable" q.sc
Position2: "'cpsp' Capital Spacing lookup 0 subtable" dx=5 dy=0 dh=10 dv=0
EndChar
StartChar: R
Encoding: 82 82 225
Width: 562
GlyphClass: 2
Flags: MW
HStem: 0 21G<129 133 129 129 503 508 503 503> 660 20G<129 268 268 347.5>
VStem: 129 379<0 680>
AnchorPoint: "Anchor-14" 0 0 basechar 0
AnchorPoint: "Anchor-13" 0 0 basechar 0
AnchorPoint: "Anchor-12" 282 680 basechar 0
AnchorPoint: "Anchor-11" 0 0 basechar 0
AnchorPoint: "Anchor-10" 301 0 basechar 0
LayerCount: 2
Back
Fore
SplineSet
503 0 m 1
 312 333 l 1
 133 333 l 1
 133 0 l 1
 129 0 l 1
 129 680 l 1
 268 680 l 2
 427 680 483 612 483 506 c 0
 483 384 398 337 316 333 c 1
 508 0 l 1
 503 0 l 1
133 337 m 1
 304 337 l 2
 393 337 479 384 479 506 c 0
 479 610 425 676 267 676 c 2
 133 676 l 1
 133 337 l 1
EndSplineSet
Substitution2: "'c2sc' Capitals to Small Capitals lookup 26 subtable" r.sc
Substitution2: "'aalt' Access All Alternates lookup 0 subtable" r.sc
Position2: "'cpsp' Capital Spacing lookup 0 subtable" dx=5 dy=0 dh=10 dv=0
EndChar

StartChar: S
Encoding: 83 83 90
Width: 540
GlyphClass: 2
Flags: MW
HStem: -9.07001 21G 670.15 20G
VStem: 63.93 396.71
AnchorPoint: "Anchor-11" 261 0 basechar 0
AnchorPoint: "Anchor-10" 0 0 basechar 0
AnchorPoint: "Anchor-9" 273 680 basechar 0
AnchorPoint: "Anchor-8" 0 0 basechar 0
LayerCount: 2
Fore
SplineSet
264.07 690.14 m 0
 347.141 690.14 395.21 663.076 437.78 625.576 c 1
 435.431 622.146 l 1
 392.86 660.717 344.141 686.217 264.07 686.217 c 0
 159.721 686.217 91.291 621.077 91.291 537.647 c 0
 91.291 449.218 133.571 414.288 270.361 370.788 c 0
 399.791 329.788 460.641 288.498 460.641 178.358 c 0
 460.641 67.998 380.07 -9.07227 259.79 -9.07227 c 0
 168 -9.07227 113.36 22.0781 63.9307 69.2881 c 1
 66.2803 72.6484 l 1
 115.28 25.7881 168.28 -5.1416 259.71 -5.1416 c 0
 377.07 -5.1416 456.57 69.9287 456.57 178.289 c 0
 456.57 286.359 396.57 326.14 268.71 367 c 0
 131.57 410.93 87.21 446.64 87.21 537.64 c 0
 87.21 623.93 157.5 690.14 264.07 690.14 c 0
EndSplineSet
Substitution2: "'c2sc' Capitals to Small Capitals lookup 23 subtable" s.sc
Substitution2: "'aalt' Access All Alternates lookup 0 subtable" s.sc
Position2: "'cpsp' Capital Spacing lookup 0 subtable" dx=5 dy=0 dh=10 dv=0
EndChar

StartChar: T
Encoding: 84 84 96
Width: 472
GlyphClass: 2
Flags: MW
HStem: 0 21G<234.141 238.211 234.141 234.141> 660.14 20G
VStem: 19.64 218.57 234.14 218.75
AnchorPoint: "Anchor-11" 236 0 basechar 0
AnchorPoint: "Anchor-10" 0 0 basechar 0
AnchorPoint: "Anchor-9" 223 680 basechar 0
AnchorPoint: "Anchor-8" 0 0 basechar 0
LayerCount: 2
Fore
SplineSet
452.71 676.14 m 1xd0
 238.211 676.14 l 1xe0
 238.211 0 l 1
 234.141 -0 l 1
 234.141 676.14 l 1xd0
 19.6406 676.14 l 1
 19.6406 680.14 l 1xe0
 453.07 680.14 l 1
 452.71 676.14 l 1xd0
EndSplineSet
Substitution2: "'c2sc' Capitals to Small Capitals lookup 23 subtable" t.sc
Substitution2: "'aalt' Access All Alternates lookup 0 subtable" t.sc
Position2: "'cpsp' Capital Spacing lookup 0 subtable" dx=5 dy=0 dh=10 dv=0
EndChar

StartChar: U
Encoding: 85 85 101
Width: 635
GlyphClass: 2
Flags: MW
HStem: -9.07001 21G 660.14 20G
VStem: 119.28 396.07
AnchorPoint: "Anchor-11" 0 0 basechar 0
AnchorPoint: "Anchor-10" 0 0 basechar 0
AnchorPoint: "Anchor-9" 322 680 basechar 0
AnchorPoint: "Anchor-8" 398 0 basechar 0
LayerCount: 2
Fore
SplineSet
515.35 206.14 m 2
 515.35 82.8594 461.569 -9.07031 317.35 -9.07031 c 0
 171.14 -9.07031 119.279 82.8594 119.279 206.14 c 2
 119.279 680.14 l 1
 123.35 680.14 l 1
 123.35 206.359 l 2
 123.35 84.9297 174.5 -5.14062 317.35 -5.14062 c 0
 459.35 -5.14062 511.279 85.1396 511.279 206.359 c 2
 511.279 680.14 l 1
 515.35 680.14 l 1
 515.35 206.14 l 2
EndSplineSet
Substitution2: "'c2sc' Capitals to Small Capitals lookup 23 subtable" u.sc
Substitution2: "'aalt' Access All Alternates lookup 0 subtable" u.sc
Position2: "'cpsp' Capital Spacing lookup 0 subtable" dx=5 dy=0 dh=10 dv=0
EndChar
StartChar: V
Encoding: 86 86 291
Width: 524
GlyphClass: 2
Flags: MW
HStem: 0 21G<261 266 261 261> 660 20G<34 39 39 39 486 490 490 490>
VStem: 34 456<680 680>
LayerCount: 2
Back
Fore
SplineSet
490 680 m 1
 266 0 l 1
 261 0 l 1
 34 680 l 1
 39 680 l 1
 263 4 l 1
 486 680 l 1
 490 680 l 1
EndSplineSet
Substitution2: "'c2sc' Capitals to Small Capitals lookup 26 subtable" v.sc
Substitution2: "'aalt' Access All Alternates lookup 0 subtable" v.sc
Position2: "'cpsp' Capital Spacing lookup 0 subtable" dx=5 dy=0 dh=10 dv=0
EndChar

StartChar: W
Encoding: 87 87 113
Width: 777
GlyphClass: 2
Flags: MW
HStem: 0 21G<204.209 208.639 204.209 204.209 568.779 573.21 568.779 568.779> 660.14 20G
VStem: 44.28 688.86
AnchorPoint: "Anchor-11" 0 0 basechar 0
AnchorPoint: "Anchor-10" 0 0 basechar 0
AnchorPoint: "Anchor-9" 389 680 basechar 0
AnchorPoint: "Anchor-8" 0 0 basechar 0
LayerCount: 2
Fore
SplineSet
573.21 0 m 1
 568.779 -0 l 1
 388.709 676.14 l 1
 208.639 0 l 1
 204.209 -0 l 1
 44.2793 680.14 l 1
 48.499 680.14 l 1
 206.569 4.13965 l 1
 386.419 680.14 l 1
 390.989 680.14 l 1
 570.989 5.06934 l 1
 728.989 680.14 l 1
 733.14 680.14 l 1
 573.21 0 l 1
EndSplineSet
Substitution2: "'c2sc' Capitals to Small Capitals lookup 23 subtable" w.sc
Substitution2: "'aalt' Access All Alternates lookup 0 subtable" w.sc
Position2: "'cpsp' Capital Spacing lookup 0 subtable" dx=5 dy=0 dh=10 dv=0
EndChar

StartChar: X
Encoding: 88 88 118
Width: 469
GlyphClass: 2
Flags: MW
HStem: 0 21G<19.6406 23.9209 19.6406 19.6406 444.85 449.21 444.85 444.85> 660.14 20G
VStem: 19.64 429.57
LayerCount: 2
Fore
SplineSet
444.85 0 m 1
 233.711 367.64 l 1
 23.9209 0 l 1
 19.6406 -0 l 1
 230.57 369.93 l 1
 50 680.14 l 1
 54.3496 680.14 l 1
 233.71 372.21 l 1
 413.85 680.14 l 1
 418.14 680.14 l 1
 236.85 370 l 1
 449.21 0 l 1
 444.85 0 l 1
EndSplineSet
Substitution2: "'c2sc' Capitals to Small Capitals lookup 23 subtable" x.sc
Substitution2: "'aalt' Access All Alternates lookup 0 subtable" x.sc
Position2: "'cpsp' Capital Spacing lookup 0 subtable" dx=5 dy=0 dh=10 dv=0
EndChar
StartChar: Y
Encoding: 89 89 302
Width: 481
GlyphClass: 2
Flags: MW
HStem: 0 21G<239 243 239 239> 660 20G<25 29 29 29 452 456 456 456>
VStem: 25 431<680 680>
AnchorPoint: "Anchor-14" 0 0 basechar 0
AnchorPoint: "Anchor-13" 0 0 basechar 0
AnchorPoint: "Anchor-12" 241 680 basechar 0
AnchorPoint: "Anchor-11" 0 0 basechar 0
AnchorPoint: "Anchor-10" 241 0 basechar 0
LayerCount: 2
Back
Fore
SplineSet
456 680 m 1
 243 271 l 1
 243 0 l 1
 239 0 l 1
 239 271 l 1
 25 680 l 1
 29 680 l 1
 241 275 l 1
 452 680 l 1
 456 680 l 1
EndSplineSet
Substitution2: "'c2sc' Capitals to Small Capitals lookup 26 subtable" y.sc
Substitution2: "'aalt' Access All Alternates lookup 0 subtable" y.sc
Position2: "'cpsp' Capital Spacing lookup 0 subtable" dx=5 dy=0 dh=10 dv=0
EndChar

StartChar: Z
Encoding: 90 90 124
Width: 505
GlyphClass: 2
Flags: MW
HStem: 0 21G<44.6396 437.569 44.6396 44.6396> 660.14 20G
VStem: 44.64 409.86
AnchorPoint: "Anchor-11" 0 0 basechar 0
AnchorPoint: "Anchor-10" 0 0 basechar 0
AnchorPoint: "Anchor-9" 254 680 basechar 0
AnchorPoint: "Anchor-8" 0 0 basechar 0
LayerCount: 2
Fore
SplineSet
454.5 676.35 m 1
 50.0693 4 l 1
 437.859 4 l 1
 437.569 0 l 1
 44.6396 -0 l 1
 44.6396 3.84961 l 1
 449.14 676.21 l 1
 81.71 676.21 l 1
 81.71 680.14 l 1
 454.5 680.14 l 1
 454.5 676.35 l 1
EndSplineSet
Substitution2: "'c2sc' Capitals to Small Capitals lookup 23 subtable" z.sc
Substitution2: "'aalt' Access All Alternates lookup 0 subtable" z.sc
Position2: "'cpsp' Capital Spacing lookup 0 subtable" dx=5 dy=0 dh=10 dv=0
EndChar
StartChar: bracketleft
Encoding: 91 91 2142
Width: 310
Flags: MW
HStem: -101 892<109 221 109 221>
VStem: 109 112<-101 -97 787 791>
LayerCount: 2
Back
Fore
SplineSet
221 791 m 1
 221 787 l 1
 113 787 l 1
 113 -97 l 1
 221 -97 l 1
 221 -101 l 1
 109 -101 l 1
 109 791 l 1
 221 791 l 1
EndSplineSet
Substitution2: "'case' Case-Sensitive Forms lookup 28 subtable" bracketleft.case
Substitution2: "'aalt' Access All Alternates lookup 0 subtable" bracketleft.case
EndChar
StartChar: backslash
Encoding: 92 92 2113
Width: 520
Flags: MW
HStem: -92 886<146 374>
VStem: 142 236
LayerCount: 2
Back
Fore
SplineSet
146 794 m 1
 378 -91 l 1
 374 -92 l 1
 142 793 l 1
 146 794 l 1
EndSplineSet
EndChar
StartChar: bracketright
Encoding: 93 93 2143
Width: 310
Flags: MW
HStem: -101 892<89 201 89 201>
VStem: 89 112<-101 -97 -97 -97 787 791 -101 791>
LayerCount: 2
Back
Fore
SplineSet
201 791 m 1
 201 -101 l 1
 89 -101 l 1
 89 -97 l 1
 197 -97 l 1
 197 787 l 1
 89 787 l 1
 89 791 l 1
 201 791 l 1
EndSplineSet
Substitution2: "'case' Case-Sensitive Forms lookup 28 subtable" bracketright.case
Substitution2: "'aalt' Access All Alternates lookup 0 subtable" bracketright.case
EndChar
StartChar: asciicircum
Encoding: 94 94 2383
Width: 528
GlyphClass: 2
Flags: MW
HStem: 507 20G<89 93 89 89 425 430 425 425>
VStem: 89 341<527 527>
LayerCount: 2
Back
Fore
SplineSet
261 818 m 1
 430 527 l 1
 425 527 l 1
 259 813 l 1
 93 527 l 1
 89 527 l 1
 258 818 l 1
 261 818 l 1
EndSplineSet
EndChar

StartChar: underscore
Encoding: 95 95 995
Width: 520
Flags: MW
HStem: -88.29 3.86
VStem: 51.93 416.21
LayerCount: 2
Fore
SplineSet
51.9297 -84.4297 m 1
 468.14 -84.4297 l 1
 468.14 -88.29 l 1
 51.9297 -88.29 l 1
 51.9297 -84.4297 l 1
EndSplineSet
EndChar

StartChar: grave
Encoding: 96 96 1257
Width: 230
Flags: MW
HStem: 661.21 86.29
VStem: 30 169.78
LayerCount: 2
Fore
SplineSet
199.78 664.57 m 1
 198.071 661.21 l 1
 30.001 743.35 l 1
 31.9307 747.5 l 1
 199.78 664.57 l 1
EndSplineSet
Substitution2: "'case' Case-Sensitive Forms lookup 25 subtable" grave.case
Substitution2: "'smcp' Lowercase to Small Capitals lookup 24 subtable" grave.sc
Substitution2: "'c2sc' Capitals to Small Capitals lookup 23 subtable" grave.sc
AlternateSubs2: "'aalt' Access All Alternates lookup 1 subtable" grave.sc grave.case
EndChar

StartChar: b
Encoding: 98 98 146
Width: 567
GlyphClass: 2
Flags: MW
HStem: -9.07001 21G 0 21G<124.279 127.999 124.279 124.279> 507.21 20G 710.57 20G
VStem: 124.28 358.65
LayerCount: 2
Fore
SplineSet
306.21 527.21 m 0x78
 420.64 527.21 482.929 431.35 482.929 264 c 0
 482.929 94.9297 420.568 -9.07031 302.068 -9.07031 c 0xb8
 223.148 -9.07031 167.479 34.8701 128.269 96.5 c 1
 127.999 0 l 1
 124.279 0 l 1
 124.279 730.28 l 1
 128.279 730.57 l 1
 128.279 422.87 l 1
 170.689 482.51 223.64 527.21 306.21 527.21 c 0x78
301.999 -5.21973 m 0
 418.149 -5.21973 478.861 97.5713 478.861 264.001 c 0
 478.861 428.501 419.291 523.351 306.221 523.351 c 0
 225.24 523.351 173.95 481.261 128.29 417.541 c 1
 128.29 102.021 l 1
 169.76 37.6904 224.279 -5.21973 301.999 -5.21973 c 0
EndSplineSet
Substitution2: "'smcp' Lowercase to Small Capitals lookup 24 subtable" b.sc
Substitution2: "'aalt' Access All Alternates lookup 0 subtable" b.sc
EndChar
StartChar: c
Encoding: 99 99 380
Width: 469
GlyphClass: 2
Flags: MW
HStem: -9 21G<222 310.5> 507 20G<219 308.5>
VStem: 79 336<44 341>
AnchorPoint: "Anchor-14" 0 0 basechar 0
AnchorPoint: "Anchor-13" 0 0 basechar 0
AnchorPoint: "Anchor-12" 270 517 basechar 0
AnchorPoint: "Anchor-11" 0 0 basechar 0
AnchorPoint: "Anchor-10" 285 -1 basechar 0
LayerCount: 2
Back
Fore
SplineSet
282 527 m 0
 335 527 375 510 411 477 c 1
 408 475 l 1
 373 507 333 523 282 523 c 0
 160 523 83 424 83 256 c 0
 83 89 167 -5 280 -5 c 0
 339 -5 379 16 412 46 c 1
 415 44 l 1
 382 13 341 -9 280 -9 c 0
 164 -9 79 86 79 256 c 0
 79 426 156 527 282 527 c 0
EndSplineSet
Substitution2: "'smcp' Lowercase to Small Capitals lookup 27 subtable" c.sc
Substitution2: "'aalt' Access All Alternates lookup 0 subtable" c.sc
EndChar

StartChar: d
Encoding: 100 100 153
Width: 572
GlyphClass: 2
Flags: MW
HStem: -9.07001 21G 0 21G 507.21 20G 710.57 20G
VStem: 84.28 363.65
LayerCount: 2
Fore
SplineSet
447.93 730.28 m 1x78
 447.929 -0.000976562 l 1
 444.209 -0.000976562 l 1x78
 443.929 99.1992 l 1
 409.599 38.8594 362.499 -9.07031 272.639 -9.07031 c 0xb8
 158.499 -9.07031 84.2793 87.21 84.2793 257.07 c 0
 84.2793 417.141 155.64 527.211 280.85 527.211 c 0
 366.189 527.211 419.17 474.831 443.93 426.351 c 1
 443.93 730.57 l 1
 447.93 730.28 l 1x78
272.709 -5.2207 m 0
 362.039 -5.2207 408.928 42.3203 443.928 106.13 c 1
 443.928 420.63 l 1
 417.188 471.67 364.978 523.35 280.928 523.35 c 0
 159.428 523.35 88.2881 414.779 88.3584 257.069 c 0
 88.4287 90.209 160.709 -5.2207 272.709 -5.2207 c 0
EndSplineSet
Substitution2: "'smcp' Lowercase to Small Capitals lookup 24 subtable" d.sc
Substitution2: "'aalt' Access All Alternates lookup 0 subtable" d.sc
EndChar

StartChar: f
Encoding: 102 102 167
Width: 300
GlyphClass: 2
Flags: MW
HStem: -0.00999451 21G 497.21 20G 513.42 219.93
VStem: 34.64 95.72 126.36 154.46
LayerCount: 2
Fore
SplineSet
238.78 729.5 m 0xb0
 175.92 729.5 130.352 692.278 130.352 617.639 c 2
 130.352 517.209 l 1xd0
 281.002 517.209 l 1
 280.642 513.419 l 1xa8
 130.361 513.419 l 1xb0
 130.361 -0.0107422 l 1
 126.361 -0.0107422 l 1
 126.361 513.419 l 1xa8
 34.6416 513.419 l 1
 34.6416 517.209 l 1xd0
 126.361 517.209 l 1xc8
 126.361 617.919 l 2xa8
 126.361 694.069 173.711 733.35 238.641 733.35 c 0
 282.431 733.35 319.78 719.569 350.141 700.64 c 1
 348.351 697.069 l 1
 318.07 715.85 282.28 729.5 238.78 729.5 c 0xb0
EndSplineSet
Substitution2: "'smcp' Lowercase to Small Capitals lookup 24 subtable" f.sc
Substitution2: "'aalt' Access All Alternates lookup 0 subtable" f.sc
EndChar

StartChar: g
Encoding: 103 103 168
Width: 487
GlyphClass: 2
Flags: MW
HStem: -192.52 249.29 52.92 144.48 507.21 20G<192.606 241.211>
VStem: 53.93 408.94
AnchorPoint: "Anchor-11" 228 0 basechar 0
AnchorPoint: "Anchor-10" 0 0 basechar 0
AnchorPoint: "Anchor-9" 246 517 basechar 0
AnchorPoint: "Anchor-8" 0 0 basechar 0
LayerCount: 2
Fore
SplineSet
462.86 540.42 m 1xb0
 429.21 530.57 379.79 523.691 276.65 523.632 c 1
 372.11 510.742 419.29 444.412 419.29 355.982 c 0
 419.29 252.192 351.29 193.622 248.57 193.622 c 0
 217.03 193.622 189.32 201.332 164.7 212.952 c 1
 132.75 193.183 109.07 164.562 109.07 128.122 c 0
 109.07 83.7725 144.29 56.7725 217.07 56.7725 c 2
 307.721 56.7725 l 2
 400.291 56.7725 452.641 10.4824 452.641 -58.7979 c 0
 452.641 -145.868 387.57 -192.519 251.931 -192.519 c 0xb0
 114.211 -192.519 53.9307 -158.089 53.9307 -59.7988 c 1
 57.9307 -59.7988 l 1
 58.0703 -155.869 117.07 -188.659 251.931 -188.659 c 0
 384.57 -188.659 448.57 -143.729 448.57 -58.9395 c 0
 448.57 9.49023 396 52.9199 307.57 52.9199 c 2
 216.931 52.9199 l 2
 142.431 52.9199 105.001 81.6299 105.001 127.78 c 0x70
 105.001 167.48 130.781 194.57 161.102 214.65 c 1
 110.481 240.95 74.0713 286.11 74.0713 357.13 c 0
 74.0713 460.06 144.001 527.21 241.211 527.21 c 0
 396.641 527.14 423.791 534.279 462.141 544.64 c 1
 462.86 540.42 l 1xb0
241.3 523.401 m 0
 142.87 523.401 78.1504 454.122 78.1504 357.122 c 0
 78.1504 250.972 166.29 197.401 248.58 197.401 c 0x70
 348.22 197.401 415.22 253.972 415.22 355.972 c 0
 415.22 478.191 330.149 523.401 241.3 523.401 c 0
EndSplineSet
Substitution2: "'smcp' Lowercase to Small Capitals lookup 24 subtable" g.sc
Substitution2: "'aalt' Access All Alternates lookup 0 subtable" g.sc
EndChar

StartChar: h
Encoding: 104 104 173
Width: 580
GlyphClass: 2
Flags: MW
HStem: 0 21G 507.21 20G 710.64 20G
VStem: 124.28 336.57
AnchorPoint: "Anchor-11" 265 0 basechar 0
AnchorPoint: "Anchor-10" 0 0 basechar 0
AnchorPoint: "Anchor-9" 286 728 basechar 0
AnchorPoint: "Anchor-8" 0 0 basechar 0
LayerCount: 2
Fore
SplineSet
326.43 527.21 m 0
 420.359 527.21 460.85 465.358 460.85 368.139 c 2
 460.85 -0.000976562 l 1
 456.85 -0.000976562 l 1
 456.85 367.849 l 2
 456.85 463.499 418 523.429 326.35 523.429 c 0
 239.71 523.429 176.35 471.568 128.279 386.719 c 1
 128.279 -0.000976562 l 1
 124.279 -0.000976562 l 1
 124.279 730.289 l 1
 128.279 730.639 l 1
 128.279 393.119 l 1
 176.1 476.479 239.52 527.21 326.43 527.21 c 0
EndSplineSet
Substitution2: "'smcp' Lowercase to Small Capitals lookup 24 subtable" h.sc
Substitution2: "'aalt' Access All Alternates lookup 0 subtable" h.sc
EndChar
StartChar: i
Encoding: 105 105 478
Width: 253
GlyphClass: 2
Flags: MW
HStem: 0 21G<124 128 124 124> 497 20G<124 128 128 128> 693 15<124 128.5>
VStem: 119 15<698.5 702>
AnchorPoint: "Anchor-14" 0 0 basechar 0
AnchorPoint: "Anchor-13" 0 0 basechar 0
AnchorPoint: "Anchor-12" 126 702 basechar 0
AnchorPoint: "Anchor-11" 138 0 basechar 0
AnchorPoint: "Anchor-10" 126 0 basechar 0
LayerCount: 2
Back
Fore
SplineSet
126 708 m 0
 131 708 134 704 134 700 c 0
 134 697 131 693 126 693 c 0
 122 693 119 697 119 700 c 0
 119 704 122 708 126 708 c 0
128 517 m 1
 128 0 l 1
 124 0 l 1
 124 517 l 1
 128 517 l 1
EndSplineSet
Substitution2: "'smcp' Lowercase to Small Capitals lookup 27 subtable" i.sc
Substitution2: "'locl' Localized Forms in Latin lookup 10 subtable" i.loclTRK
Substitution2: "'locl' Localized Forms in Latin lookup 8 subtable" i.loclTRK
Substitution2: "'locl' Localized Forms in Latin lookup 6 subtable" i.loclTRK
Substitution2: "'locl' Localized Forms in Latin lookup 3 subtable" i.loclTRK
Substitution2: "'locl' Localized Forms in Latin lookup 2 subtable" i.loclTRK
AlternateSubs2: "'aalt' Access All Alternates lookup 1 subtable" i.loclTRK i.sc
EndChar
StartChar: j
Encoding: 106 106 498
Width: 253
GlyphClass: 2
Flags: MW
HStem: -188 21G<27 27> 497 20G<124 128 128 128> 693 15<124 128.5>
VStem: 27 107
AnchorPoint: "Anchor-14" 0 0 basechar 0
AnchorPoint: "Anchor-13" 0 0 basechar 0
AnchorPoint: "Anchor-12" 126 702 basechar 0
AnchorPoint: "Anchor-11" 0 0 basechar 0
AnchorPoint: "Anchor-10" 126 -188 basechar 0
LayerCount: 2
Back
Fore
SplineSet
126 708 m 0
 131 708 134 704 134 700 c 0
 134 697 131 693 126 693 c 0
 122 693 119 697 119 700 c 0
 119 704 122 708 126 708 c 0
128 517 m 1
 128 2 l 2
 128 -118 99 -154 29 -191 c 1
 27 -188 l 1
 95 -152 124 -116 124 2 c 2
 124 517 l 1
 128 517 l 1
EndSplineSet
Substitution2: "'smcp' Lowercase to Small Capitals lookup 27 subtable" j.sc
Substitution2: "'aalt' Access All Alternates lookup 0 subtable" j.sc
EndChar
StartChar: k
Encoding: 107 107 506
Width: 450
GlyphClass: 2
Flags: MW
HStem: 0 21G<124 128 124 124 420 420 420 425> 497 20G<393 398 398 398> 711 20G<128 128>
VStem: 124 16<283 283 283 730>
AnchorPoint: "Anchor-14" 0 0 basechar 0
AnchorPoint: "Anchor-13" 0 0 basechar 0
AnchorPoint: "Anchor-12" 260 728 basechar 0
AnchorPoint: "Anchor-11" 0 0 basechar 0
AnchorPoint: "Anchor-10" 269 0 basechar 0
LayerCount: 2
Back
Fore
SplineSet
128 731 m 1
 128 0 l 1
 124 0 l 1
 124 730 l 1
 128 731 l 1
398 517 m 1
 140 283 l 1
 425 0 l 1
 420 0 l 1
 134 283 l 1
 393 517 l 1
 398 517 l 1
EndSplineSet
Substitution2: "'smcp' Lowercase to Small Capitals lookup 27 subtable" k.sc
Substitution2: "'aalt' Access All Alternates lookup 0 subtable" k.sc
EndChar

StartChar: l
Encoding: 108 108 194
Width: 275
GlyphClass: 2
Flags: MW
HStem: -9.07001 21G -0.850006 21G 710.57 20G
VStem: 119.28 101.6
AnchorPoint: "Anchor-11" 171 0 basechar 0
AnchorPoint: "Anchor-10" 0 0 basechar 0
AnchorPoint: "Anchor-9" 112 678 basechar 0
AnchorPoint: "Anchor-8" 0 0 basechar 0
LayerCount: 2
Fore
SplineSet
123.28 64.9297 m 2x70
 123.28 22.1494 140.99 -5.21094 179.851 -5.21094 c 0
 194.631 -5.21094 208.561 -2.21094 220.561 2.78906 c 1
 221.211 -0.850586 l 1
 209.141 -5.9209 194.851 -9.07129 179.641 -9.07129 c 0
 139.07 -9.07129 119.28 18.7891 119.28 64.999 c 2xb0
 119.28 730.289 l 1
 123.28 730.569 l 1
 123.28 64.9297 l 2x70
EndSplineSet
Substitution2: "'smcp' Lowercase to Small Capitals lookup 24 subtable" l.sc
Substitution2: "'aalt' Access All Alternates lookup 0 subtable" l.sc
EndChar

StartChar: m
Encoding: 109 109 200
Width: 845
GlyphClass: 2
Flags: MW
HStem: -0.00999451 21G 0 21G 497.21 20G 507.21 20G
VStem: 124.28 302.85 423.13 302.86
LayerCount: 2
Fore
SplineSet
600.64 527.21 m 0x54
 685.5 527.21 725.99 465.351 725.99 368.131 c 2
 725.99 -0.00878906 l 1
 721.99 -0.00878906 l 1
 721.99 367.841 l 2x94
 721.99 463.491 683.2 523.421 600.561 523.421 c 0
 524.2 523.421 469.2 471.561 427.13 386.711 c 1x58
 427.13 -0.00878906 l 1
 423.13 -0.00878906 l 1
 423.13 377.142 l 2xa4
 423.13 463.491 384.42 523.421 301.7 523.421 c 0
 225.351 523.421 170.351 471.571 128.28 386.711 c 1
 128.28 0.000976562 l 1
 124.28 0.000976562 l 1
 124.28 517.211 l 1
 127.99 517.211 l 1x68
 128.271 393.551 l 1x58
 170.08 476.631 225.24 527.211 301.78 527.211 c 0
 379.471 527.211 422.521 474.98 426.86 393.03 c 1
 468.71 476.41 523.93 527.21 600.64 527.21 c 0x54
EndSplineSet
Substitution2: "'smcp' Lowercase to Small Capitals lookup 24 subtable" m.sc
Substitution2: "'aalt' Access All Alternates lookup 0 subtable" m.sc
EndChar

StartChar: n
Encoding: 110 110 201
Width: 580
GlyphClass: 2
Flags: MW
HStem: -0.00999451 21G 0 21G<124.28 128.28 124.28 124.28> 497.21 20G 507.21 20G
VStem: 124.28 336.57
AnchorPoint: "Anchor-11" 287 0 basechar 0
AnchorPoint: "Anchor-10" 114 517 basechar 0
AnchorPoint: "Anchor-9" 295 517 basechar 0
AnchorPoint: "Anchor-8" 0 0 basechar 0
LayerCount: 2
Fore
SplineSet
326.43 527.21 m 0x58
 421.35 527.21 460.851 467.351 460.851 368.141 c 2
 460.851 -0.00976562 l 1
 456.851 -0.00976562 l 1x98
 456.851 367.851 l 2
 456.851 465.49 418.921 523.42 326.351 523.42 c 0
 239.711 523.42 176.351 471.57 128.28 386.71 c 1
 128.28 0 l 1
 124.28 -0 l 1
 124.28 517.21 l 1
 128 517.21 l 1x68
 128.27 393.17 l 1
 176.029 476.47 239.52 527.21 326.43 527.21 c 0x58
EndSplineSet
Substitution2: "'smcp' Lowercase to Small Capitals lookup 24 subtable" n.sc
Substitution2: "'aalt' Access All Alternates lookup 0 subtable" n.sc
EndChar

StartChar: o
Encoding: 111 111 208
Width: 559
GlyphClass: 2
Flags: MW
HStem: -9.07001 21G 507.21 20G
VStem: 79.28 400.57
AnchorPoint: "Anchor-11" 0 0 basechar 0
AnchorPoint: "Anchor-10" 0 0 basechar 0
AnchorPoint: "Anchor-9" 280 517 basechar 0
AnchorPoint: "Anchor-8" 0 0 basechar 0
LayerCount: 2
Fore
SplineSet
281 527.21 m 0
 403.5 527.21 479.85 429.5 479.85 262 c 0
 479.85 89 402.42 -9.07031 279.07 -9.07031 c 0
 154.641 -9.07031 79.2803 91 79.2803 258.07 c 0
 79.2803 431 159.57 527.21 281 527.21 c 0
281 523.36 m 0
 161.78 523.36 83.3486 428.29 83.3486 258.07 c 0
 83.3486 93.8604 156.919 -5.20996 279.069 -5.20996 c 0
 400.209 -5.20996 475.779 91.8604 475.779 262 c 0
 475.779 426.36 401.35 523.36 281 523.36 c 0
EndSplineSet
Substitution2: "Single Substitution lookup 30 subtable" ordmasculine
Substitution2: "'smcp' Lowercase to Small Capitals lookup 24 subtable" o.sc
AlternateSubs2: "'aalt' Access All Alternates lookup 1 subtable" ordmasculine o.sc
EndChar
StartChar: p
Encoding: 112 112 596
Width: 567
GlyphClass: 2
Flags: MW
HStem: -190 21G<128 128> -9 21G<262.5 361.5> 497 20G<124 128 128 128> 507 20G<265 363.5>
VStem: 124 359<179.5 347.5 179.5 517 179.5 517>
AnchorPoint: "Anchor-14" 0 0 basechar 0
AnchorPoint: "Anchor-13" 0 0 basechar 0
AnchorPoint: "Anchor-12" 284 517 basechar 0
AnchorPoint: "Anchor-11" 0 0 basechar 0
AnchorPoint: "Anchor-10" 284 -188 basechar 0
LayerCount: 2
Back
Fore
SplineSet
306 527 m 0xd8
 421 527 483 431 483 264 c 0
 483 95 421 -9 302 -9 c 0
 223 -9 167 35 128 96 c 1
 128 -190 l 1
 124 -191 l 1
 124 517 l 1
 128 517 l 1xe8
 128 423 l 1
 171 482 224 527 306 527 c 0xd8
302 -5 m 0
 418 -5 479 98 479 264 c 0
 479 429 419 523 306 523 c 0
 225 523 174 481 128 418 c 1
 128 102 l 1
 170 38 224 -5 302 -5 c 0
EndSplineSet
Substitution2: "'smcp' Lowercase to Small Capitals lookup 27 subtable" p.sc
Substitution2: "'aalt' Access All Alternates lookup 0 subtable" p.sc
EndChar

StartChar: q
Encoding: 113 113 222
Width: 567
GlyphClass: 2
Flags: MW
HStem: -190.21 21G -9.07001 21G 497.21 20G 507.21 20G
VStem: 79.29 363.64
LayerCount: 2
Fore
SplineSet
442.93 517.21 m 1xe8
 442.932 -190.64 l 1
 438.932 -190.21 l 1
 438.932 99.0703 l 1
 404.611 38.79 357.501 -9.07031 266.791 -9.07031 c 0
 153.501 -9.07031 79.291 87.2197 79.291 257.069 c 0
 79.291 417.14 150.641 527.21 275.931 527.21 c 0xd8
 361.32 527.21 413.42 474.76 439 427.13 c 1
 439.21 517.21 l 1
 442.93 517.21 l 1xe8
266.861 -5.20996 m 0
 357.052 -5.20996 403.941 42.2607 438.932 106.011 c 1
 438.932 420.771 l 1
 412.172 471.771 359.981 523.36 276.012 523.36 c 0
 154.441 523.36 83.291 414.79 83.3613 257.08 c 0
 83.4316 90.2197 155.722 -5.20996 266.861 -5.20996 c 0
EndSplineSet
Substitution2: "'smcp' Lowercase to Small Capitals lookup 24 subtable" q.sc
Substitution2: "'aalt' Access All Alternates lookup 0 subtable" q.sc
EndChar

StartChar: r
Encoding: 114 114 223
Width: 361
GlyphClass: 2
Flags: MW
HStem: -0.00999451 21G 497.21 20G<124.279 127.989 127.989 127.989> 518.35 8.86
VStem: 124.28 212.57
AnchorPoint: "Anchor-11" 126 0 basechar 0
AnchorPoint: "Anchor-10" 0 0 basechar 0
AnchorPoint: "Anchor-9" 230 517 basechar 0
AnchorPoint: "Anchor-8" 0 0 basechar 0
LayerCount: 2
Fore
SplineSet
290.43 527.21 m 0
 310.71 527.21 324 525.14 336.85 522.14 c 1
 336.42 518.35 l 1
 323.42 521.42 310.21 523.42 290.42 523.42 c 0xb0
 209.439 523.42 162.119 480.09 128.279 365.78 c 1
 128.279 -0.00976562 l 1
 124.279 -0.00976562 l 1
 124.279 517.21 l 1
 127.989 517.21 l 1xd0
 128.06 376.74 l 1
 160.699 484.84 209.35 527.21 290.43 527.21 c 0
EndSplineSet
Substitution2: "'smcp' Lowercase to Small Capitals lookup 24 subtable" r.sc
Substitution2: "'aalt' Access All Alternates lookup 0 subtable" r.sc
EndChar
StartChar: s
Encoding: 115 115 623
Width: 457
GlyphClass: 2
Flags: MW
HStem: -9 21G<187.5 273> 507 20G<184 257>
VStem: 59 329<57 173>
AnchorPoint: "Anchor-14" 0 0 basechar 0
AnchorPoint: "Anchor-13" 0 0 basechar 0
AnchorPoint: "Anchor-12" 234 517 basechar 0
AnchorPoint: "Anchor-11" 0 0 basechar 0
AnchorPoint: "Anchor-10" 229 0 basechar 0
LayerCount: 2
Back
Fore
SplineSet
225 527 m 0
 289 527 333 509 373 475 c 1
 371 472 l 1
 330 506 288 523 225 523 c 0
 146 523 81 475 81 405 c 0
 81 339 122 308 232 277 c 0
 346 245 388 216 388 130 c 0
 388 44 319 -9 227 -9 c 0
 148 -9 101 19 59 57 c 1
 62 60 l 1
 103 22 149 -5 227 -5 c 0
 316 -5 384 47 384 130 c 0
 384 214 342 241 230 273 c 0
 120 304 76 336 76 405 c 0
 76 477 143 527 225 527 c 0
EndSplineSet
Substitution2: "'smcp' Lowercase to Small Capitals lookup 27 subtable" s.sc
Substitution2: "'sups' Superscript lookup 14 subtable" uni02E2
AlternateSubs2: "'aalt' Access All Alternates lookup 1 subtable" uni02E2 s.sc
EndChar

StartChar: t
Encoding: 116 116 234
Width: 322
GlyphClass: 2
Flags: MW
HStem: -9.07001 21G 497.21 20G 513.43 137.61
VStem: 29.64 90.85 116.49 149.61
AnchorPoint: "Anchor-11" 225 0 basechar 0
AnchorPoint: "Anchor-10" 0 0 basechar 0
AnchorPoint: "Anchor-9" 0 0 basechar 0
AnchorPoint: "Anchor-8" 0 0 basechar 0
LayerCount: 2
Fore
SplineSet
315.14 19.0703 m 1xd0
 289.85 3.85059 262.35 -9.07129 220.42 -9.07129 c 0
 154.99 -9.07129 116.49 34.7891 116.49 113.359 c 2
 116.49 513.43 l 1xa8
 29.6406 513.43 l 1
 29.6406 517.21 l 1xd0
 116.49 517.21 l 1xc8
 116.49 650.93 l 1
 120.49 651.14 l 1xb0
 120.49 517.21 l 1xd0
 266.28 517.21 l 1
 265.92 513.43 l 1xa8
 120.49 513.43 l 1xb0
 120.49 113.5 l 2
 120.49 38.1396 156.92 -5.20996 220.57 -5.20996 c 0
 262 -5.20996 290 7.57031 313.21 22.5703 c 1
 315.14 19.0703 l 1xd0
EndSplineSet
Substitution2: "'smcp' Lowercase to Small Capitals lookup 24 subtable" t.sc
Substitution2: "'aalt' Access All Alternates lookup 0 subtable" t.sc
EndChar

StartChar: u
Encoding: 117 117 239
Width: 575
GlyphClass: 2
Flags: MW
HStem: -9.07001 21G 0 21G<450.85 450.85> 497.21 20G
VStem: 119.28 331.57
AnchorPoint: "Anchor-11" 0 0 basechar 0
AnchorPoint: "Anchor-10" 0 0 basechar 0
AnchorPoint: "Anchor-9" 290 517 basechar 0
AnchorPoint: "Anchor-8" 461 0 basechar 0
LayerCount: 2
Fore
SplineSet
450.85 0 m 1x70
 447.141 -0.000976562 l 1x70
 447.07 114.999 l 1
 405.71 40.0693 346.78 -9.07031 260.78 -9.07031 c 0xb0
 173.28 -9.07031 119.28 46 119.28 149.93 c 2
 119.28 517.21 l 1
 123.28 517.21 l 1
 123.28 150.07 l 2
 123.28 48.7803 175.641 -5.21973 261.07 -5.21973 c 0
 347.42 -5.21973 405.92 46.6406 446.85 121.28 c 1
 446.85 517.21 l 1
 450.85 517.21 l 1
 450.85 0 l 1x70
EndSplineSet
Substitution2: "'smcp' Lowercase to Small Capitals lookup 24 subtable" u.sc
Substitution2: "'aalt' Access All Alternates lookup 0 subtable" u.sc
EndChar
StartChar: v
Encoding: 118 118 690
Width: 436
GlyphClass: 2
Flags: MW
HStem: 0 21G<221 226 221 221> 497 20G<29 34 34 34 403 407 407 407>
VStem: 29 378<517 517>
AnchorPoint: "Anchor-14" 0 0 basechar 0
AnchorPoint: "Anchor-13" 0 0 basechar 0
AnchorPoint: "Anchor-12" 219 517 basechar 0
AnchorPoint: "Anchor-11" 0 0 basechar 0
AnchorPoint: "Anchor-10" 224 0 basechar 0
LayerCount: 2
Back
Fore
SplineSet
407 517 m 1
 226 0 l 1
 221 0 l 1
 29 517 l 1
 34 517 l 1
 224 4 l 1
 403 517 l 1
 407 517 l 1
EndSplineSet
Substitution2: "'smcp' Lowercase to Small Capitals lookup 27 subtable" v.sc
Substitution2: "'aalt' Access All Alternates lookup 0 subtable" v.sc
EndChar

StartChar: w
Encoding: 119 119 251
Width: 673
GlyphClass: 2
Flags: MW
HStem: 0 21G<180 184.72 180 180 488.29 493 488.29 488.29> 497.21 20G
VStem: 39.29 594.21
AnchorPoint: "Anchor-11" 0 0 basechar 0
AnchorPoint: "Anchor-10" 0 0 basechar 0
AnchorPoint: "Anchor-9" 336 517 basechar 0
AnchorPoint: "Anchor-8" 0 0 basechar 0
LayerCount: 2
Fore
SplineSet
493 0 m 1
 488.29 -0 l 1
 336.5 513.21 l 1
 184.72 0 l 1
 180 -0 l 1
 39.29 517.21 l 1
 43.5 517.21 l 1
 182.43 3.92969 l 1
 334.29 517.21 l 1
 338.79 517.21 l 1
 490.64 3.86035 l 1
 629.43 517.21 l 1
 633.5 517.21 l 1
 493 0 l 1
EndSplineSet
Substitution2: "'smcp' Lowercase to Small Capitals lookup 24 subtable" w.sc
Substitution2: "'aalt' Access All Alternates lookup 0 subtable" w.sc
EndChar

StartChar: x
Encoding: 120 120 256
Width: 425
GlyphClass: 2
Flags: MW
HStem: 0 21G<24.2998 28.6494 24.2998 24.2998 396.21 400.64 396.21 396.21> 497.21 20G
VStem: 24.3 376.34
LayerCount: 2
Fore
SplineSet
396.21 0 m 1
 210.51 275.78 l 1
 28.6494 0 l 1
 24.2998 0 l 1
 208.3 278 l 1
 51.1494 517.21 l 1
 55.5098 517.21 l 1
 210.58 280.28 l 1
 369.43 517.21 l 1
 373.79 517.21 l 1
 212.79 278.07 l 1
 400.64 0 l 1
 396.21 0 l 1
EndSplineSet
Substitution2: "'smcp' Lowercase to Small Capitals lookup 24 subtable" x.sc
Substitution2: "'aalt' Access All Alternates lookup 0 subtable" x.sc
EndChar

StartChar: z
Encoding: 122 122 262
Width: 410
GlyphClass: 2
Flags: MW
HStem: 0 21G 497.21 20G
VStem: 34.64 335.71
AnchorPoint: "Anchor-11" 0 0 basechar 0
AnchorPoint: "Anchor-10" 0 0 basechar 0
AnchorPoint: "Anchor-9" 215 517 basechar 0
AnchorPoint: "Anchor-8" 0 0 basechar 0
LayerCount: 2
Fore
SplineSet
370.35 513.57 m 1
 40.1387 3.85059 l 1
 359.709 3.85059 l 1
 359.489 0.000976562 l 1
 34.6396 0.000976562 l 1
 34.6396 3.64062 l 1
 364.92 513.36 l 1
 65.21 513.36 l 1
 65.21 517.21 l 1
 370.35 517.21 l 1
 370.35 513.57 l 1
EndSplineSet
Substitution2: "'smcp' Lowercase to Small Capitals lookup 24 subtable" z.sc
Substitution2: "'aalt' Access All Alternates lookup 0 subtable" z.sc
EndChar

StartChar: braceleft
Encoding: 123 123 1003
Width: 326
Flags: MW
HStem: -111.01 920.01
VStem: 73.92 80.15 150.28 82
LayerCount: 2
Fore
SplineSet
232.28 805.5 m 1xa0
 182.5 805.5 154.07 778.359 154.07 712.859 c 2
 154.07 428.359 l 2
 154.07 378.14 126.351 349.71 78.1406 349 c 1
 126.351 348.28 154.07 319.851 154.07 269.641 c 2
 154.07 -14.8594 l 2xc0
 154.07 -80.3594 182.5 -107.51 232.28 -107.51 c 1
 232.28 -111.01 l 1
 182.07 -111.01 150.28 -84.5801 150.28 -16.1504 c 2
 150.28 270.5 l 2xa0
 150.28 322.57 119.07 347.07 73.9199 347.07 c 1
 73.9199 350.92 l 1xc0
 119.07 350.92 150.28 375.42 150.28 427.49 c 2
 150.28 714.141 l 2
 150.28 782.57 182.07 809 232.28 809 c 1
 232.28 805.5 l 1xa0
EndSplineSet
Substitution2: "'case' Case-Sensitive Forms lookup 25 subtable" braceleft.case
Substitution2: "'aalt' Access All Alternates lookup 0 subtable" braceleft.case
EndChar

StartChar: bar
Encoding: 124 124 1216
Width: 419
Flags: MW
HStem: -97.15 897.29
VStem: 207.64 4
LayerCount: 2
Fore
SplineSet
211.64 -97.1504 m 1
 207.64 -97.1504 l 1
 207.64 800.14 l 1
 211.64 800.14 l 1
 211.64 -97.1504 l 1
EndSplineSet
EndChar
StartChar: braceright
Encoding: 125 125 2141
Width: 326
Flags: MW
HStem: -111 920<94 119>
VStem: 94 82<-111 -16 -108 -16> 172 80<-15 351 270 351 347 713>
LayerCount: 2
Back
Fore
SplineSet
94 809 m 1xc0
 144 809 176 783 176 714 c 2
 176 428 l 2xc0
 176 375 207 351 252 351 c 1
 252 347 l 1xa0
 207 347 176 323 176 271 c 2
 176 -16 l 2
 176 -85 144 -111 94 -111 c 1
 94 -108 l 1xc0
 144 -108 172 -80 172 -15 c 2
 172 270 l 2
 172 320 200 348 248 349 c 1
 200 350 172 378 172 428 c 2
 172 713 l 2xa0
 172 778 144 806 94 806 c 1
 94 809 l 1xc0
EndSplineSet
Substitution2: "'case' Case-Sensitive Forms lookup 28 subtable" braceright.case
Substitution2: "'aalt' Access All Alternates lookup 0 subtable" braceright.case
EndChar
StartChar: asciitilde
Encoding: 126 126 2241
Width: 454
GlyphClass: 2
Flags: MW
HStem: 290 59
VStem: 84 287<303 336>
LayerCount: 2
Back
Fore
SplineSet
300 290 m 0
 252 290 205 345 157 345 c 0
 124 345 103 325 87 302 c 1
 84 303 l 1
 98 326 122 349 157 349 c 0
 206 349 253 294 300 294 c 0
 333 294 354 314 367 337 c 1
 371 336 l 1
 359 313 335 290 300 290 c 0
EndSplineSet
Substitution2: "'onum' Oldstyle Figures lookup 25 subtable" asciitilde.osf
Substitution2: "'tnum' Tabular Numbers lookup 24 subtable" asciitilde.tf
AlternateSubs2: "'aalt' Access All Alternates lookup 1 subtable" asciitilde.tf asciitilde.osf
EndChar

StartChar: exclamdown
Encoding: 161 161 986
Width: 234
Flags: MW
HStem: -188.36 21G 423.14 17.21
VStem: 108.57 17.29
LayerCount: 2
Fore
SplineSet
117.21 440.35 m 0
 122.21 440.35 125.86 436.64 125.86 431.779 c 0
 125.86 426.85 122.21 423.14 117.21 423.14 c 0
 112.14 423.14 108.569 426.85 108.569 431.779 c 0
 108.569 436.64 112.14 440.35 117.21 440.35 c 0
119.21 -188.36 m 1
 115.28 -188.36 l 1
 115.28 253.779 l 1
 119.21 253.779 l 1
 119.21 -188.36 l 1
EndSplineSet
Substitution2: "'case' Case-Sensitive Forms lookup 25 subtable" exclamdown.case
Substitution2: "'aalt' Access All Alternates lookup 0 subtable" exclamdown.case
EndChar
StartChar: cent
Encoding: 162 162 2198
Width: 469
GlyphClass: 2
Flags: MW
HStem: -144 139<275 278 275 275> -9 21G<275 275 278 280 278 278> 507 20G<280 280 284 310> 523 149<280 284 280 307.5>
VStem: 79 336<44 340.5>
LayerCount: 2
Back
Fore
SplineSet
415 44 m 1x68
 382 13 341 -9 280 -9 c 2
 278 -9 l 1x68
 278 -144 l 1
 275 -144 l 1xa8
 275 -9 l 1
 162 -6 79 89 79 256 c 0
 79 425 155 526 280 527 c 1x68
 280 672 l 1
 284 672 l 1x58
 284 527 l 1x68
 336 527 376 510 411 477 c 1
 408 475 l 1
 373 507 333 523 282 523 c 0
 160 523 83 424 83 256 c 0
 83 89 167 -5 280 -5 c 0x98
 339 -5 379 16 412 46 c 1
 415 44 l 1x68
EndSplineSet
Substitution2: "'onum' Oldstyle Figures lookup 25 subtable" cent.osf
Substitution2: "'tnum' Tabular Numbers lookup 24 subtable" cent.tf
AlternateSubs2: "'aalt' Access All Alternates lookup 1 subtable" cent.tf cent.osf
EndChar

StartChar: sterling
Encoding: 163 163 1065
Width: 493
Flags: MW
HStem: 0 21G 352.93 317.35
VStem: 69.29 7.71001 92 60.65 148.64 214.65
LayerCount: 2
Fore
SplineSet
295.5 666.43 m 0xd0
 199.28 666.43 152.649 596.14 152.649 505.859 c 2
 152.649 356.789 l 1xd0
 363.289 356.789 l 1
 363.289 352.929 l 1xc8
 152.649 352.929 l 1
 152.649 119.858 l 2xd0
 152.649 53.7881 129.649 25.1484 76.999 3.92871 c 1
 424.069 3.92871 l 1
 423.789 -0.000976562 l 1
 69.2891 -0.000976562 l 1
 69.2891 3.85938 l 1
 124.569 25.499 148.64 53.1494 148.64 119.72 c 2
 148.64 352.93 l 1xe8
 92 352.93 l 1
 92 356.79 l 1xd0
 148.64 356.79 l 1
 148.64 505.93 l 2xc8
 148.64 598 196 670.28 295.5 670.28 c 0
 353.93 670.28 395.14 648.21 428.64 608.71 c 1
 425.29 606.43 l 1
 393.14 644.5 353.5 666.43 295.5 666.43 c 0xd0
EndSplineSet
Substitution2: "'onum' Oldstyle Figures lookup 22 subtable" sterling.osf
Substitution2: "'tnum' Tabular Numbers lookup 21 subtable" sterling.tf
AlternateSubs2: "'aalt' Access All Alternates lookup 1 subtable" sterling.tf sterling.osf
EndChar

StartChar: yen
Encoding: 165 165 1066
Width: 471
Flags: MW
HStem: -0.00999451 21G 0 186.36 182.42 138.43
VStem: 105.5 132.43 233.86 136.14
LayerCount: 2
Fore
SplineSet
239.49 320.85 m 1xb0
 370.001 320.85 l 1
 370.001 317 l 1xa8
 237.931 317 l 1xb0
 237.931 186.35 l 1x50
 370.001 186.35 l 1
 370.001 182.42 l 1xa8
 237.931 182.42 l 1xb0
 237.931 -0.00976562 l 1
 233.86 -0.00976562 l 1
 233.86 182.42 l 1xa8
 105.5 182.42 l 1
 105.5 186.35 l 1x50
 233.86 186.35 l 1x48
 233.86 317 l 1xa8
 105.5 317 l 1
 105.5 320.85 l 1
 232.33 320.85 l 1
 24.6396 660.14 l 1
 30 660.14 l 1
 235.93 321.85 l 1
 440.71 660.14 l 1
 446 660.14 l 1
 239.49 320.85 l 1xb0
EndSplineSet
Substitution2: "'onum' Oldstyle Figures lookup 22 subtable" yen.osf
Substitution2: "'tnum' Tabular Numbers lookup 21 subtable" yen.tf
AlternateSubs2: "'aalt' Access All Alternates lookup 1 subtable" yen.tf yen.osf
EndChar
StartChar: brokenbar
Encoding: 166 166 2371
Width: 419
GlyphClass: 2
Flags: MW
HStem: -97 897<208 212 208 212>
VStem: 208 4<-97 262 -97 262 443 800>
LayerCount: 2
Back
Fore
SplineSet
212 800 m 1
 212 443 l 1
 208 443 l 1
 208 800 l 1
 212 800 l 1
212 262 m 1
 212 -97 l 1
 208 -97 l 1
 208 262 l 1
 212 262 l 1
EndSplineSet
EndChar
StartChar: dieresis
Encoding: 168 168 2529
Width: 226
Flags: MW
HStem: 678 15<35 39.5 185.5 190.5>
VStem: 30 165<684 688>
LayerCount: 2
Back
Fore
SplineSet
37 693 m 0
 42 693 45 690 45 686 c 0
 45 682 42 678 37 678 c 0
 33 678 30 682 30 686 c 0
 30 690 33 693 37 693 c 0
188 693 m 0
 193 693 195 690 195 686 c 0
 195 682 193 678 188 678 c 0
 183 678 181 682 181 686 c 0
 181 690 183 693 188 693 c 0
EndSplineSet
Substitution2: "Single Substitution lookup 41 subtable" dieresis.case
Substitution2: "'case' Case-Sensitive Forms lookup 28 subtable" dieresis.case
Substitution2: "'smcp' Lowercase to Small Capitals lookup 27 subtable" dieresis.sc
Substitution2: "'c2sc' Capitals to Small Capitals lookup 26 subtable" dieresis.sc
AlternateSubs2: "'aalt' Access All Alternates lookup 1 subtable" dieresis.sc dieresis.case
EndChar

StartChar: ordfeminine
Encoding: 170 170 415
Width: 500
GlyphClass: 2
Flags: MW
HStem: 0 281.71 0.0100098 21G 277.85 235.5 509.5 170.65
VStem: 97.43 261.86
LayerCount: 2
Fore
SplineSet
355.28 513.35 m 1x68
 355.289 563.721 l 2x68
 355.289 633.291 327.579 676.291 244.929 676.291 c 0
 208.929 676.291 171.929 668.221 128.289 651.431 c 1
 126.719 655.15 l 1
 170.499 672 207.499 680.15 244.929 680.15 c 0x58
 329.499 680.15 359.289 636.5 359.289 563.93 c 2
 359.289 367.93 l 2
 359.289 313.29 367.569 291.14 401.64 281.21 c 1
 400.21 277.86 l 1
 365.62 288.66 355.73 309.23 355.57 361.5 c 1
 327.37 307.58 285.4 277.85 218 277.85 c 0
 139.86 277.85 97.4307 326.569 97.4307 393.85 c 0
 97.4307 470.279 158.86 513.35 256.86 513.35 c 2
 355.28 513.35 l 1x68
218.009 281.721 m 0x98
 286.539 281.721 326.519 312.901 355.288 367.941 c 1
 355.288 509.501 l 1
 257.288 509.501 l 2
 161.078 509.501 101.578 467.431 101.578 393.86 c 0
 101.578 328.431 143.358 281.721 218.009 281.721 c 0x98
408.357 3.94141 m 1
 408.357 0.0117188 l 1
 98.2178 0.0117188 l 1
 98.2178 3.94141 l 1
 408.357 3.94141 l 1
EndSplineSet
EndChar

StartChar: guillemotleft
Encoding: 171 171 1034
Width: 520
Flags: MW
HStem: 82.07 412.86
VStem: 112.85 294.72
LayerCount: 2
Fore
SplineSet
259.92 493.07 m 1
 117.21 288.001 l 1
 260.85 83.9307 l 1
 257.569 82.0703 l 1
 112.85 286.36 l 1
 112.85 289.641 l 1
 256.64 494.931 l 1
 259.92 493.07 l 1
406.64 493.071 m 1
 263.919 288.001 l 1
 407.569 83.9307 l 1
 404.279 82.0811 l 1
 259.569 286.361 l 1
 259.569 289.651 l 1
 403.35 494.932 l 1
 406.64 493.071 l 1
EndSplineSet
Substitution2: "'case' Case-Sensitive Forms lookup 25 subtable" guillemotleft.case
Substitution2: "'aalt' Access All Alternates lookup 0 subtable" guillemotleft.case
EndChar
StartChar: logicalnot
Encoding: 172 172 2261
Width: 489
GlyphClass: 2
Flags: MW
HStem: 213 110<400 404 400 400>
VStem: 84 320<319 323 213 323>
LayerCount: 2
Back
Fore
SplineSet
404 323 m 1
 404 213 l 1
 400 213 l 1
 400 319 l 1
 84 319 l 1
 84 323 l 1
 404 323 l 1
EndSplineSet
Substitution2: "'onum' Oldstyle Figures lookup 25 subtable" logicalnot.osf
Substitution2: "'tnum' Tabular Numbers lookup 24 subtable" logicalnot.tf
AlternateSubs2: "'aalt' Access All Alternates lookup 1 subtable" logicalnot.tf logicalnot.osf
EndChar

StartChar: softhyphen
Encoding: 173 173 1026
Width: 400
Flags: MW
HStem: 310.14 3.86
VStem: 84.28 231.36
LayerCount: 2
Fore
SplineSet
84.2803 314 m 1
 315.641 314 l 1
 315.641 310.14 l 1
 84.2803 310.14 l 1
 84.2803 314 l 1
EndSplineSet
Substitution2: "'case' Case-Sensitive Forms lookup 25 subtable" softhyphen.case
Substitution2: "'aalt' Access All Alternates lookup 0 subtable" softhyphen.case
EndChar
StartChar: uni00AD
Encoding: 173 173 2168
Width: 400
Flags: MW
HStem: 310 4<84 316 84 316>
VStem: 84 232<310 314 310 314>
LayerCount: 2
Back
Fore
SplineSet
84 310 m 1
 84 314 l 1
 316 314 l 1
 316 310 l 1
 84 310 l 1
EndSplineSet
Substitution2: "'case' Case-Sensitive Forms lookup 28 subtable" uni00AD.case
Substitution2: "'aalt' Access All Alternates lookup 0 subtable" uni00AD.case
EndChar
StartChar: macron
Encoding: 175 175 2535
Width: 252
Flags: MW
HStem: 689 4<30 222 30 222>
VStem: 30 192<689 693 689 693>
LayerCount: 2
Back
Fore
SplineSet
222 689 m 1
 30 689 l 1
 30 693 l 1
 222 693 l 1
 222 689 l 1
EndSplineSet
Substitution2: "Single Substitution lookup 41 subtable" macron.case
Substitution2: "'case' Case-Sensitive Forms lookup 28 subtable" macron.case
Substitution2: "'smcp' Lowercase to Small Capitals lookup 27 subtable" macron.sc
Substitution2: "'c2sc' Capitals to Small Capitals lookup 26 subtable" macron.sc
AlternateSubs2: "'aalt' Access All Alternates lookup 1 subtable" macron.sc macron.case
EndChar
StartChar: degree
Encoding: 176 176 2379
Width: 521
GlyphClass: 2
Flags: MW
HStem: 670 20G<183 260>
VStem: 94 253<515.5 593.5 515 594>
LayerCount: 2
Back
Fore
SplineSet
220 420 m 0
 147 420 94 475 94 556 c 0
 94 632 146 690 220 690 c 0
 300 690 347 632 347 555 c 0
 347 475 300 420 220 420 c 0
220 424 m 0
 297 424 343 477 343 555 c 0
 343 631 297 686 220 686 c 0
 149 686 98 631 98 556 c 0
 98 477 150 424 220 424 c 0
EndSplineSet
Substitution2: "'onum' Oldstyle Figures lookup 25 subtable" degree.osf
Substitution2: "'tnum' Tabular Numbers lookup 24 subtable" degree.tf
AlternateSubs2: "'aalt' Access All Alternates lookup 1 subtable" degree.tf degree.osf
EndChar

StartChar: twosuperior
Encoding: 178 178 970
Width: 400
Flags: MW
HStem: 660.14 20G 714.35 20G
VStem: 87.57 225.36
LayerCount: 2
Fore
SplineSet
198.93 734.35 m 0
 266.21 734.35 300.858 689.339 300.858 632.989 c 0
 300.858 547.919 259.568 503.699 92.998 322.199 c 1
 312.928 322.199 l 1
 312.498 318.35 l 1
 87.5684 318.35 l 1
 87.5684 322.13 l 1
 257.139 505.78 296.789 549.71 296.789 632.85 c 0
 296.789 687.64 263.789 730.569 198.859 730.569 c 0
 151.14 730.569 121 711.569 91.5 678.069 c 1
 88 680.14 l 1
 118.43 714.64 150.859 734.35 198.93 734.35 c 0
EndSplineSet
EndChar
StartChar: uni00B2
Encoding: 178 178 2104
Width: 400
Flags: MW
HStem: 660 20G<88 88> 714 20G<175 232.5>
VStem: 88 225<318 322 318 322>
LayerCount: 2
Back
Fore
SplineSet
199 734 m 0
 266 734 301 689 301 633 c 0
 301 548 260 503 93 322 c 1
 313 322 l 1
 313 318 l 1
 88 318 l 1
 88 322 l 1
 257 505 297 549 297 633 c 0
 297 687 264 730 199 730 c 0
 151 730 121 711 92 678 c 1
 88 680 l 1
 118 714 151 734 199 734 c 0
EndSplineSet
EndChar

StartChar: threesuperior
Encoding: 179 179 971
Width: 400
Flags: MW
HStem: 312.29 226.78 669.5 20G 714.58 20G
VStem: 82.2 235.49
LayerCount: 2
Fore
SplineSet
201 734.57 m 0
 266.29 734.57 305.842 693.511 305.842 636.221 c 0
 305.842 571.94 260.622 541.58 212.482 537.37 c 1
 270.982 534.44 317.692 500.29 317.692 429.65 c 0
 317.692 360.431 269.412 312.291 197.552 312.291 c 0
 147.552 312.291 114.202 327.571 82.2021 363.432 c 1
 85.4824 365.502 l 1
 117.482 329.782 149.482 316.072 197.482 316.072 c 0
 267.553 316.072 313.703 363.422 313.703 428.642 c 0
 313.703 499.212 268.053 535.352 197.913 535.352 c 2
 175.553 535.352 l 1
 175.843 539.071 l 1
 199.482 539.071 l 2
 250.912 539.071 301.842 569.571 301.842 636.142 c 0
 301.842 691.642 263.992 730.781 200.922 730.781 c 0
 161.062 730.781 128.491 718.001 97.2109 687.211 c 1
 94.1406 689.501 l 1
 126.28 720.351 158.28 734.57 201 734.57 c 0
EndSplineSet
EndChar
StartChar: uni00B3
Encoding: 179 179 2105
Width: 400
Flags: MW
HStem: 312 227<176 200 200 225.5 176 233.5> 535 199<179.5 198 176 233.5> 669 20G<94 94> 714 20G<179.5 233.5>
VStem: 82 236<363 464.5>
LayerCount: 2
Back
Fore
SplineSet
201 734 m 0xb8
 266 734 306 693 306 636 c 0
 306 572 261 541 213 537 c 1
 271 534 318 500 318 429 c 0
 318 360 269 312 198 312 c 0
 148 312 114 327 82 363 c 1
 86 365 l 1
 118 329 150 316 198 316 c 0xb8
 268 316 314 363 314 428 c 0
 314 499 268 535 198 535 c 2x48
 176 535 l 1
 176 539 l 1
 200 539 l 2
 251 539 302 569 302 636 c 0
 302 691 264 730 201 730 c 0
 161 730 129 718 97 687 c 1
 94 689 l 1
 126 720 158 734 201 734 c 0xb8
EndSplineSet
EndChar

StartChar: acute
Encoding: 180 180 1250
Width: 230
Flags: MW
HStem: 661.21 86.29
VStem: 30 169.78
LayerCount: 2
Fore
SplineSet
199.78 743.35 m 1
 31.7109 661.21 l 1
 30.001 664.57 l 1
 197.851 747.5 l 1
 199.78 743.35 l 1
EndSplineSet
Substitution2: "'case' Case-Sensitive Forms lookup 25 subtable" acute.case
Substitution2: "'smcp' Lowercase to Small Capitals lookup 24 subtable" acute.sc
Substitution2: "'c2sc' Capitals to Small Capitals lookup 23 subtable" acute.sc
Substitution2: "'locl' Localized Forms in Latin lookup 7 subtable" acute.loclPLK
AlternateSubs2: "'aalt' Access All Alternates lookup 1 subtable" acute.loclPLK acute.sc acute.case
EndChar

StartChar: uni00B5
Encoding: 181 181 1104
Width: 581
Flags: MW
HStem: -190.21 21G -9.07001 21G 0.639999 21G 497.21 20G 497.22 20G
VStem: 124.28 325.43
LayerCount: 2
Fore
SplineSet
473.07 0.429688 m 1xac
 458.29 44.5 447.651 89.8496 446.092 144.739 c 1
 410.401 55.8789 345.951 -9.07129 255.281 -9.07129 c 0
 184.921 -9.07129 136.421 26.4287 127.921 100.358 c 1
 128.211 30.0088 128.281 -12.4209 128.281 -57.7109 c 2
 128.281 -190.211 l 1
 124.281 -190.351 l 1
 124.281 517.22 l 1
 128.281 517.22 l 1xcc
 128.281 134.79 l 2
 128.281 31.5 183.562 -5.20996 255.281 -5.20996 c 0
 345.211 -5.20996 409.081 60.54 445.721 151.4 c 1
 445.711 151.5 l 1
 445.711 517.21 l 1
 449.711 517.21 l 1xb4
 449.711 161 l 2
 449.711 97 460.711 47.9297 476.851 0.639648 c 1
 473.07 0.429688 l 1xac
EndSplineSet
EndChar

StartChar: paragraph
Encoding: 182 182 1220
Width: 683
Flags: MW
HStem: -190.22 21G -190.21 21G 661.07 20G
VStem: 128.57 215.42 339.99 155.43
LayerCount: 2
Fore
SplineSet
495.43 681.07 m 1x68
 495.42 -190.211 l 1
 491.42 -190.641 l 1
 491.42 677.209 l 1x68
 343.99 676.279 l 1x70
 343.99 -190.221 l 1
 339.99 -190.65 l 1
 339.99 311.43 l 1xa8
 184.11 312.14 128.57 398.75 128.57 495.78 c 0x70
 128.57 613 215 680.07 341.14 680.07 c 2
 495.43 681.07 l 1x68
EndSplineSet
EndChar

StartChar: periodcentered
Encoding: 183 183 980
Width: 124
Flags: MW
HStem: 320.14 17.21
VStem: 53.5 17.28
LayerCount: 2
Fore
SplineSet
62.1396 337.35 m 0
 67.21 337.35 70.7803 333.64 70.7803 328.71 c 0
 70.7803 323.85 67.21 320.14 62.1396 320.14 c 0
 57.1396 320.14 53.5 323.85 53.5 328.71 c 0
 53.5 333.64 57.1396 337.35 62.1396 337.35 c 0
EndSplineSet
EndChar
StartChar: cedilla
Encoding: 184 184 2527
Width: 191
Flags: MW
HStem: -203 122<71 109.5> -85 79<67 75> -6 21G<72 75 75 75>
VStem: 69.5 91.5
LayerCount: 2
Back
Fore
SplineSet
75 -6 m 1xb0
 71 -81 l 1
 127 -82 161 -98 161 -141 c 0
 161 -186 127 -203 92 -203 c 0
 63 -203 46 -197 30 -187 c 1
 32 -183 l 1
 49 -194 65 -199 92 -199 c 0xb0
 125 -199 157 -184 157 -141 c 0
 157 -104 131 -86 67 -85 c 1x50
 72 -6 l 1
 75 -6 l 1xb0
EndSplineSet
Substitution2: "Single Substitution lookup 41 subtable" cedilla.case
Substitution2: "'case' Case-Sensitive Forms lookup 28 subtable" cedilla.case
Substitution2: "'smcp' Lowercase to Small Capitals lookup 27 subtable" cedilla.sc
Substitution2: "'c2sc' Capitals to Small Capitals lookup 26 subtable" cedilla.sc
AlternateSubs2: "'aalt' Access All Alternates lookup 1 subtable" cedilla.sc cedilla.case
EndChar

StartChar: onesuperior
Encoding: 185 185 969
Width: 400
Flags: MW
HStem: 707.5 20G<255.43 258.93 258.93 258.93>
VStem: 137.78 121.15
LayerCount: 2
Fore
SplineSet
258.93 318.35 m 1
 254.999 318.351 l 1
 254.999 723.141 l 1
 137.779 651.851 l 1
 135.779 655.28 l 1
 255.43 727.5 l 1
 258.93 727.5 l 1
 258.93 318.35 l 1
EndSplineSet
EndChar
StartChar: uni00B9
Encoding: 185 185 2103
Width: 400
Flags: MW
HStem: 707 20G<256 259 259 259>
VStem: 138 121<652 652>
LayerCount: 2
Back
Fore
SplineSet
259 727 m 1
 259 318 l 1
 255 318 l 1
 255 723 l 1
 138 652 l 1
 136 655 l 1
 256 727 l 1
 259 727 l 1
EndSplineSet
EndChar

StartChar: ordmasculine
Encoding: 186 186 416
Width: 500
GlyphClass: 2
Flags: MW
HStem: 0 21G<94.7783 404.929 94.7783 94.7783> 0 281.72 660.14 20G
VStem: 89.07 321.57
LayerCount: 2
Fore
SplineSet
250.78 680.14 m 0xb0
 349.28 680.14 410.64 607.43 410.64 481.93 c 0
 410.64 351.93 348.21 277.859 248.85 277.859 c 0
 149.42 277.859 89.0703 352.93 89.0703 479 c 0
 89.0703 607.93 153.351 680.14 250.78 680.14 c 0xb0
250.85 676.29 m 0
 155.64 676.29 93.209 606.22 93.209 479 c 0
 93.209 355.79 151.779 281.72 248.919 281.72 c 0x70
 346.069 281.72 405.64 353.79 405.64 481.93 c 0
 405.64 604.29 347.21 676.29 250.85 676.29 c 0
94.7783 3.92969 m 1
 404.929 3.92969 l 1
 404.929 0 l 1
 94.7783 -0 l 1
 94.7783 3.92969 l 1
EndSplineSet
EndChar

StartChar: guillemotright
Encoding: 187 187 1035
Width: 514
Flags: MW
HStem: 82.08 412.85
VStem: 98.93 316.28
LayerCount: 2
Fore
SplineSet
415.21 289.64 m 1
 415.209 286.359 l 1
 270.499 82.0791 l 1
 267.209 83.9287 l 1
 410.859 287.999 l 1
 268.14 493.069 l 1
 271.43 494.93 l 1
 415.21 289.64 l 1
246.929 289.649 m 1
 246.929 286.369 l 1
 102.209 82.0791 l 1
 98.9287 83.9395 l 1
 242.568 288.01 l 1
 99.8584 493.08 l 1
 103.139 494.93 l 1
 246.929 289.649 l 1
EndSplineSet
Substitution2: "'case' Case-Sensitive Forms lookup 25 subtable" guillemotright.case
Substitution2: "'aalt' Access All Alternates lookup 0 subtable" guillemotright.case
EndChar

StartChar: onequarter
Encoding: 188 188 926
Width: 874
Flags: MW
HStem: 0 123.93 120.14 138.86 660.14 20G 713.85 20G
VStem: 109.93 121.14 738.92 64.72
LayerCount: 2
Fore
SplineSet
641 733 m 1xbc
 236.64 -66.8604 l 1
 233 -66 l 1
 637.35 733.85 l 1
 641 733 l 1xbc
227.569 680.14 m 1
 231.069 680.14 l 1
 231.069 271 l 1
 227.14 271 l 1
 227.14 675.78 l 1
 109.93 604.5 l 1
 107.93 607.93 l 1
 227.569 680.14 l 1
803.64 120.14 m 1x7c
 742.849 120.14 l 1x7c
 742.849 0 l 1
 738.919 -0 l 1xbc
 738.919 120.14 l 1
 543.349 120.14 l 1
 543.349 124.569 l 1x7c
 678.999 416.22 l 1
 682.639 414.569 l 1
 547.429 123.93 l 1
 738.929 123.93 l 1xbc
 739.209 259 l 1
 742.859 259 l 1x7c
 742.859 123.93 l 1xbc
 803.64 123.93 l 1
 803.64 120.14 l 1x7c
EndSplineSet
EndChar
StartChar: onehalf
Encoding: 189 189 2057
Width: 874
Flags: MW
HStem: 0 21G<562 787 562 562> 660 20G<228 231 231 231> 714 20G<637 637>
VStem: 110 121<605 605>
LayerCount: 2
Back
Fore
SplineSet
637 734 m 1
 641 733 l 1
 237 -67 l 1
 233 -66 l 1
 637 734 l 1
231 680 m 1
 231 271 l 1
 227 271 l 1
 227 676 l 1
 110 605 l 1
 108 608 l 1
 228 680 l 1
 231 680 l 1
673 416 m 0
 740 416 775 371 775 315 c 0
 775 230 734 185 567 4 c 1
 787 4 l 1
 787 0 l 1
 562 0 l 1
 562 4 l 1
 731 187 771 231 771 315 c 0
 771 369 738 412 673 412 c 0
 625 412 595 393 566 360 c 1
 562 362 l 1
 592 396 625 416 673 416 c 0
EndSplineSet
EndChar
StartChar: threequarters
Encoding: 190 190 2061
Width: 874
Flags: MW
HStem: 0 124<547 743 547 739> 120 139<543 743 739 804 739 743> 265 227<176 200 200 225.5 176 233.5> 488 199<179.5 198 176 233.5> 667 20G<179.5 233.5> 714 20G<637 637>
VStem: 543 200<0 124 124 125 125 125> 739 65<0 124 120 124 120 259>
LayerCount: 2
Back
Fore
SplineSet
637 734 m 1xad
 641 733 l 1
 237 -67 l 1
 233 -66 l 1
 637 734 l 1xad
318 382 m 0
 318 313 269 265 198 265 c 0
 148 265 114 280 82 316 c 1
 86 318 l 1
 118 282 150 269 198 269 c 0xad
 268 269 314 316 314 381 c 0
 314 452 268 488 198 488 c 2x95
 176 488 l 1
 176 492 l 1
 200 492 l 2
 251 492 302 522 302 589 c 0
 302 644 264 683 201 683 c 0
 161 683 129 671 97 640 c 1
 94 642 l 1
 126 673 158 687 201 687 c 0
 266 687 306 646 306 589 c 0
 306 525 261 494 213 490 c 1
 271 487 318 453 318 382 c 0
804 124 m 1
 804 120 l 1xad
 743 120 l 1x4e
 743 0 l 1
 739 0 l 1xad
 739 120 l 1x4d
 543 120 l 1
 543 125 l 1x4e
 679 416 l 1
 683 415 l 1
 547 124 l 1
 739 124 l 1xad
 739 259 l 1
 743 259 l 1x4e
 743 124 l 1xae
 804 124 l 1
EndSplineSet
EndChar

StartChar: questiondown
Encoding: 191 191 990
Width: 447
Flags: MW
HStem: -192.5 21G<171 246.855> 427.36 8.78
VStem: 68.57 310.14
LayerCount: 2
Fore
SplineSet
255.28 436.14 m 0
 257.641 436.14 259.641 434.279 259.641 431.779 c 0
 259.641 429.209 257.641 427.359 255.28 427.359 c 0
 252.851 427.359 250.921 429.209 250.921 431.779 c 0
 250.921 434.279 252.851 436.14 255.28 436.14 c 0
212.57 -192.5 m 0
 129.431 -192.5 68.5713 -136.928 68.5713 -68.0781 c 0
 68.5713 76.2119 253.432 56.7119 253.432 215.922 c 2
 253.432 254.712 l 1
 257.361 254.712 l 1
 257.361 215.712 l 2
 257.361 53.6416 72.7109 75.0713 72.7109 -68.0791 c 0
 72.7109 -135.289 131.001 -188.649 212.571 -188.649 c 0
 280.642 -188.649 330.991 -161.859 375.281 -108.93 c 1
 378.711 -112 l 1
 333.211 -165.43 281.141 -192.5 212.57 -192.5 c 0
EndSplineSet
Substitution2: "'case' Case-Sensitive Forms lookup 25 subtable" questiondown.case
Substitution2: "'aalt' Access All Alternates lookup 0 subtable" questiondown.case
EndChar

StartChar: Agrave
Encoding: 192 192 6
Width: 556
GlyphClass: 2
Flags: MW
HStem: -0.00999451 21G 660.14 20G
VStem: 34.29 487.57
AnchorPoint: "Anchor-11" 0 0 basechar 0
AnchorPoint: "Anchor-10" 142 680 basechar 0
AnchorPoint: "Anchor-9" 278 680 basechar 0
AnchorPoint: "Anchor-8" 532 0 basechar 0
LayerCount: 2
Fore
SplineSet
366.57 770.28 m 1
 199.29 839.781 l 1
 201.36 843.921 l 1
 368.141 773.641 l 1
 366.57 770.28 l 1
442.28 211.991 m 1
 113.19 211.991 l 1
 38.3604 -0.00878906 l 1
 34.29 -0.00878906 l 1
 274.86 680.142 l 1
 279.431 680.142 l 1
 521.86 -0.00878906 l 1
 517.641 -0.00878906 l 1
 442.28 211.991 l 1
440.881 215.921 m 1
 277.142 676.491 l 1
 114.571 215.921 l 1
 440.881 215.921 l 1
EndSplineSet
Substitution2: "'c2sc' Capitals to Small Capitals lookup 23 subtable" agrave.sc
Substitution2: "'aalt' Access All Alternates lookup 0 subtable" agrave.sc
Position2: "'cpsp' Capital Spacing lookup 0 subtable" dx=5 dy=0 dh=10 dv=0
EndChar
StartChar: Aacute
Encoding: 193 193 3
Width: 556
GlyphClass: 2
Flags: MW
HStem: 0 21G<34 38 34 34 518 522 518 518> 660 20G<275 279 279 279>
VStem: 34 488<0 0>
AnchorPoint: "Anchor-14" 0 0 basechar 0
AnchorPoint: "Anchor-13" 0 0 basechar 0
AnchorPoint: "Anchor-12" 278 844 basechar 0
AnchorPoint: "Anchor-11" 532 0 basechar 0
AnchorPoint: "Anchor-10" 278 0 basechar 0
LayerCount: 2
Back
Fore
SplineSet
360 840 m 1
 193 770 l 1
 191 774 l 1
 358 844 l 1
 360 840 l 1
518 0 m 1
 442 212 l 1
 113 212 l 1
 38 0 l 1
 34 0 l 1
 275 680 l 1
 279 680 l 1
 522 0 l 1
 518 0 l 1
115 216 m 1
 441 216 l 1
 277 677 l 1
 115 216 l 1
EndSplineSet
Substitution2: "'c2sc' Capitals to Small Capitals lookup 26 subtable" aacute.sc
Substitution2: "'aalt' Access All Alternates lookup 0 subtable" aacute.sc
Position2: "'cpsp' Capital Spacing lookup 0 subtable" dx=5 dy=0 dh=10 dv=0
EndChar
StartChar: Acircumflex
Encoding: 194 194 11
Width: 556
GlyphClass: 2
Flags: MW
HStem: 0 21G<34 38 34 34 518 522 518 518> 660 20G<275 279 279 279>
VStem: 34 488<0 0>
AnchorPoint: "Anchor-14" 0 0 basechar 0
AnchorPoint: "Anchor-13" 349 702 basechar 0
AnchorPoint: "Anchor-12" 277 852 basechar 0
AnchorPoint: "Anchor-11" 532 0 basechar 0
AnchorPoint: "Anchor-10" 278 0 basechar 0
LayerCount: 2
Back
Fore
SplineSet
277 848 m 1
 170 770 l 1
 167 772 l 1
 275 852 l 1
 278 852 l 1
 388 772 l 1
 385 770 l 1
 277 848 l 1
518 0 m 1
 442 212 l 1
 113 212 l 1
 38 0 l 1
 34 0 l 1
 275 680 l 1
 279 680 l 1
 522 0 l 1
 518 0 l 1
115 216 m 1
 441 216 l 1
 277 677 l 1
 115 216 l 1
EndSplineSet
Substitution2: "'c2sc' Capitals to Small Capitals lookup 26 subtable" acircumflex.sc
Substitution2: "'aalt' Access All Alternates lookup 0 subtable" acircumflex.sc
Position2: "'cpsp' Capital Spacing lookup 0 subtable" dx=5 dy=0 dh=10 dv=0
EndChar
StartChar: Atilde
Encoding: 195 195 32
Width: 556
GlyphClass: 2
Flags: MW
HStem: 0 21G<34 38 34 34 518 522 518 518> 660 20G<275 279 279 279> 811 48
VStem: 34 488<0 0>
AnchorPoint: "Anchor-14" 0 0 basechar 0
AnchorPoint: "Anchor-13" 0 0 basechar 0
AnchorPoint: "Anchor-12" 280 859 basechar 0
AnchorPoint: "Anchor-11" 532 0 basechar 0
AnchorPoint: "Anchor-10" 278 0 basechar 0
LayerCount: 2
Back
Fore
SplineSet
220 855 m 0
 195 855 180 844 158 820 c 1
 155 822 l 1
 178 847 194 859 220 859 c 0
 260 859 291 815 333 815 c 0
 361 815 377 826 397 852 c 1
 400 851 l 1
 379 823 362 811 333 811 c 0
 290 811 258 855 220 855 c 0
518 0 m 1
 442 212 l 1
 113 212 l 1
 38 0 l 1
 34 0 l 1
 275 680 l 1
 279 680 l 1
 522 0 l 1
 518 0 l 1
115 216 m 1
 441 216 l 1
 277 677 l 1
 115 216 l 1
EndSplineSet
Substitution2: "'c2sc' Capitals to Small Capitals lookup 26 subtable" atilde.sc
Substitution2: "'aalt' Access All Alternates lookup 0 subtable" atilde.sc
Position2: "'cpsp' Capital Spacing lookup 0 subtable" dx=5 dy=0 dh=10 dv=0
EndChar
StartChar: Adieresis
Encoding: 196 196 18
Width: 556
GlyphClass: 2
Flags: MW
HStem: 0 21G<34 38 34 34 518 522 518 518> 660 20G<275 279 279 279> 804 15<200 204.5 350.5 355.5>
VStem: 202 151<804 804 819 819>
AnchorPoint: "Anchor-14" 0 0 basechar 0
AnchorPoint: "Anchor-13" 0 0 basechar 0
AnchorPoint: "Anchor-12" 280 819 basechar 0
AnchorPoint: "Anchor-11" 532 0 basechar 0
AnchorPoint: "Anchor-10" 278 0 basechar 0
LayerCount: 2
Back
Fore
SplineSet
202 804 m 0
 198 804 195 808 195 812 c 0
 195 816 198 819 202 819 c 0
 207 819 210 816 210 812 c 0
 210 808 207 804 202 804 c 0
353 804 m 0
 348 804 346 808 346 812 c 0
 346 816 348 819 353 819 c 0
 358 819 360 816 360 812 c 0
 360 808 358 804 353 804 c 0
518 0 m 1
 442 212 l 1
 113 212 l 1
 38 0 l 1
 34 0 l 1
 275 680 l 1
 279 680 l 1
 522 0 l 1
 518 0 l 1
115 216 m 1
 441 216 l 1
 277 677 l 1
 115 216 l 1
EndSplineSet
Substitution2: "'c2sc' Capitals to Small Capitals lookup 26 subtable" adieresis.sc
Substitution2: "'aalt' Access All Alternates lookup 0 subtable" adieresis.sc
Position2: "'cpsp' Capital Spacing lookup 0 subtable" dx=5 dy=0 dh=10 dv=0
EndChar
StartChar: Aring
Encoding: 197 197 29
Width: 556
GlyphClass: 2
Flags: MW
HStem: 0 21G<34 38 34 34 518 522 518 518> 660 20G<275 279 279 279> 780 130<258 298>
VStem: 213 129<825.5 863.5>
AnchorPoint: "Anchor-14" 0 0 basechar 0
AnchorPoint: "Anchor-13" 0 0 basechar 0
AnchorPoint: "Anchor-12" 280 910 basechar 0
AnchorPoint: "Anchor-11" 532 0 basechar 0
AnchorPoint: "Anchor-10" 278 0 basechar 0
LayerCount: 2
Back
Fore
SplineSet
278 780 m 0
 236 780 213 806 213 844 c 0
 213 883 238 910 278 910 c 0
 319 910 342 883 342 845 c 0
 342 806 318 780 278 780 c 0
278 906 m 0
 240 906 217 881 217 844 c 0
 217 807 239 784 278 784 c 0
 316 784 338 809 338 845 c 0
 338 882 317 906 278 906 c 0
518 0 m 1
 442 212 l 1
 113 212 l 1
 38 0 l 1
 34 0 l 1
 275 680 l 1
 279 680 l 1
 522 0 l 1
 518 0 l 1
115 216 m 1
 441 216 l 1
 277 677 l 1
 115 216 l 1
EndSplineSet
Substitution2: "'c2sc' Capitals to Small Capitals lookup 26 subtable" aring.sc
Substitution2: "'aalt' Access All Alternates lookup 0 subtable" aring.sc
Position2: "'cpsp' Capital Spacing lookup 0 subtable" dx=5 dy=0 dh=10 dv=0
EndChar
StartChar: AE
Encoding: 198 198 33
Width: 751
GlyphClass: 2
Flags: MW
HStem: 0 208<20 408 20 408 105 701 105 463> 204 159<372 409> 359 321<373 637 373 373>
VStem: 20 681<0 4>
AnchorPoint: "Anchor-14" 0 0 basechar 0
AnchorPoint: "Anchor-13" 0 0 basechar 0
AnchorPoint: "Anchor-12" 456 680 basechar 0
AnchorPoint: "Anchor-11" 0 0 basechar 0
AnchorPoint: "Anchor-10" 0 0 basechar 0
LayerCount: 2
Back
Fore
SplineSet
467 4 m 1xb0
 701 4 l 1
 701 0 l 1
 463 0 l 1xb0
 409 204 l 1
 103 204 l 1x50
 24 0 l 1
 20 0 l 1
 283 680 l 1
 646 680 l 1
 646 676 l 1
 290 676 l 1xb0
 372 363 l 1x50
 637 363 l 1
 637 359 l 1
 373 359 l 1
 467 4 l 1xb0
105 208 m 1
 408 208 l 1
 285 677 l 1
 105 208 l 1
EndSplineSet
Substitution2: "'c2sc' Capitals to Small Capitals lookup 26 subtable" ae.sc
Substitution2: "'aalt' Access All Alternates lookup 0 subtable" ae.sc
Position2: "'cpsp' Capital Spacing lookup 0 subtable" dx=5 dy=0 dh=10 dv=0
EndChar
StartChar: Ccedilla
Encoding: 199 199 47
Width: 530
GlyphClass: 2
Flags: MW
HStem: -203 122<336 374.5> -85 80<332 332> -9 21G<337 337 340 340 340 341> 670 20G<266.5 379>
VStem: 334.5 91.5
AnchorPoint: "Anchor-14" 323 341 basechar 0
AnchorPoint: "Anchor-13" 0 0 basechar 0
AnchorPoint: "Anchor-12" 343 680 basechar 0
AnchorPoint: "Anchor-11" 0 0 basechar 0
AnchorPoint: "Anchor-10" 363 -203 basechar 0
LayerCount: 2
Back
Fore
SplineSet
336 -81 m 1xb8
 392 -82 426 -98 426 -141 c 0
 426 -186 392 -203 357 -203 c 0
 328 -203 311 -197 295 -187 c 1
 297 -183 l 1
 314 -194 330 -199 357 -199 c 0xb8
 390 -199 422 -184 422 -141 c 0
 422 -104 396 -86 332 -85 c 1x58
 337 -9 l 1xb8
 186 -7 84 116 84 339 c 0
 84 577 191 690 342 690 c 0
 416 690 459 664 495 633 c 1
 493 630 l 1
 457 661 415 686 342 686 c 0
 195 686 88 575 88 339 c 0
 88 116 192 -5 341 -5 c 0x58
 422 -5 469 26 502 54 c 1
 504 50 l 1
 471 23 423 -9 341 -9 c 2
 340 -9 l 1
 336 -81 l 1xb8
EndSplineSet
Substitution2: "'c2sc' Capitals to Small Capitals lookup 26 subtable" ccedilla.sc
Substitution2: "'aalt' Access All Alternates lookup 0 subtable" ccedilla.sc
Position2: "'cpsp' Capital Spacing lookup 0 subtable" dx=5 dy=0 dh=10 dv=0
EndChar
StartChar: Egrave
Encoding: 200 200 82
Width: 495
GlyphClass: 2
Flags: MW
HStem: 0 21G<129 446 129 129> 359 321<133 393 133 133> 676 98<375 375 375 436>
VStem: 129 264<359 363 359 680> 129 317<0 4 0 680>
AnchorPoint: "Anchor-14" 0 0 basechar 0
AnchorPoint: "Anchor-13" 0 0 basechar 0
AnchorPoint: "Anchor-12" 286 844 basechar 0
AnchorPoint: "Anchor-11" 426 0 basechar 0
AnchorPoint: "Anchor-10" 284 0 basechar 0
LayerCount: 2
Back
Fore
SplineSet
208 844 m 1xa8
 375 774 l 1
 373 770 l 1
 206 840 l 1
 208 844 l 1xa8
436 680 m 1xd0
 436 676 l 1xd0
 133 676 l 1xb0
 133 363 l 1
 393 363 l 1
 393 359 l 1
 133 359 l 1
 133 4 l 1
 446 4 l 1
 446 0 l 1
 129 0 l 1
 129 680 l 1
 436 680 l 1xd0
EndSplineSet
Substitution2: "'c2sc' Capitals to Small Capitals lookup 26 subtable" egrave.sc
Substitution2: "'aalt' Access All Alternates lookup 0 subtable" egrave.sc
Position2: "'cpsp' Capital Spacing lookup 0 subtable" dx=5 dy=0 dh=10 dv=0
EndChar
StartChar: Eacute
Encoding: 201 201 68
Width: 495
GlyphClass: 2
Flags: MW
HStem: 0 21G<129 446 129 129> 359 321<133 393 133 133>
VStem: 129 264<359 363 359 680> 129 317<0 4 0 680>
AnchorPoint: "Anchor-14" 0 0 basechar 0
AnchorPoint: "Anchor-13" 0 0 basechar 0
AnchorPoint: "Anchor-12" 285 844 basechar 0
AnchorPoint: "Anchor-11" 426 0 basechar 0
AnchorPoint: "Anchor-10" 284 0 basechar 0
LayerCount: 2
Back
Fore
SplineSet
365 844 m 1xd0
 367 840 l 1
 200 770 l 1
 198 774 l 1
 365 844 l 1xd0
436 680 m 1
 436 676 l 1xd0
 133 676 l 1
 133 363 l 1
 393 363 l 1
 393 359 l 1
 133 359 l 1
 133 4 l 1
 446 4 l 1
 446 0 l 1
 129 0 l 1
 129 680 l 1xe0
 436 680 l 1
EndSplineSet
Substitution2: "'c2sc' Capitals to Small Capitals lookup 26 subtable" eacute.sc
Substitution2: "'aalt' Access All Alternates lookup 0 subtable" eacute.sc
Position2: "'cpsp' Capital Spacing lookup 0 subtable" dx=5 dy=0 dh=10 dv=0
EndChar

StartChar: Ecircumflex
Encoding: 202 202 28
Width: 495
GlyphClass: 2
Flags: MW
HStem: 0 21G<129.289 445.569 129.289 129.289> 358.93 321.21 676.21 95.65
VStem: 129.29 263.5 129.29 316.28
AnchorPoint: "Anchor-11" 284 0 basechar 0
AnchorPoint: "Anchor-10" 81 680 basechar 0
AnchorPoint: "Anchor-9" 284 680 basechar 0
AnchorPoint: "Anchor-8" 426 0 basechar 0
LayerCount: 2
Fore
SplineSet
283.36 847.71 m 1xa8
 176.499 769.64 l 1
 173.569 771.859 l 1
 281.859 851.93 l 1
 284.859 851.93 l 1
 394.93 771.859 l 1
 392 769.64 l 1
 283.36 847.71 l 1xa8
435.569 676.21 m 1
 133.359 676.209 l 1xb0
 133.359 362.779 l 1
 392.789 362.779 l 1
 392.789 358.93 l 1
 133.359 358.93 l 1
 133.359 3.92969 l 1
 445.569 3.92969 l 1
 445.569 0 l 1
 129.289 -0 l 1
 129.289 680.14 l 1xd0
 435.859 680.14 l 1
 435.569 676.21 l 1
EndSplineSet
Substitution2: "'c2sc' Capitals to Small Capitals lookup 23 subtable" ecircumflex.sc
Substitution2: "'aalt' Access All Alternates lookup 0 subtable" ecircumflex.sc
Position2: "'cpsp' Capital Spacing lookup 0 subtable" dx=5 dy=0 dh=10 dv=0
EndChar

StartChar: Edieresis
Encoding: 203 203 29
Width: 495
GlyphClass: 2
Flags: MW
HStem: 0 21G<129.289 445.569 129.289 129.289> 358.93 321.21 804.36 14.71
VStem: 129.29 79.14
AnchorPoint: "Anchor-11" 284 0 basechar 0
AnchorPoint: "Anchor-10" 81 680 basechar 0
AnchorPoint: "Anchor-9" 284 725 basechar 0
AnchorPoint: "Anchor-8" 426 0 basechar 0
LayerCount: 2
Fore
SplineSet
208.43 819.07 m 0
 213.279 819.07 215.85 815.5 215.85 811.71 c 0
 215.85 807.93 213.279 804.359 208.43 804.359 c 0
 203.64 804.359 201.069 807.93 201.069 811.71 c 0
 201.069 815.5 203.64 819.07 208.43 819.07 c 0
359.14 819.07 m 0
 363.93 819.07 366.5 815.5 366.5 811.71 c 0
 366.5 807.93 363.93 804.359 359.14 804.359 c 0
 354.29 804.359 351.72 807.93 351.72 811.71 c 0
 351.72 815.5 354.29 819.07 359.14 819.07 c 0
435.569 676.21 m 1
 133.359 676.209 l 1
 133.359 362.779 l 1
 392.789 362.779 l 1
 392.789 358.93 l 1
 133.359 358.93 l 1
 133.359 3.92969 l 1
 445.569 3.92969 l 1
 445.569 0 l 1
 129.289 -0 l 1
 129.289 680.14 l 1
 435.859 680.14 l 1
 435.569 676.21 l 1
EndSplineSet
Substitution2: "'c2sc' Capitals to Small Capitals lookup 23 subtable" edieresis.sc
Substitution2: "'aalt' Access All Alternates lookup 0 subtable" edieresis.sc
Position2: "'cpsp' Capital Spacing lookup 0 subtable" dx=5 dy=0 dh=10 dv=0
EndChar
StartChar: Igrave
Encoding: 204 204 129
Width: 263
GlyphClass: 2
Flags: MW
HStem: 0 21G<129 133 129 129> 660 20G<129 133 133 133>
VStem: 53 169<774 840>
AnchorPoint: "Anchor-14" 0 0 basechar 0
AnchorPoint: "Anchor-13" 0 0 basechar 0
AnchorPoint: "Anchor-12" 133 844 basechar 0
AnchorPoint: "Anchor-11" 143 0 basechar 0
AnchorPoint: "Anchor-10" 131 0 basechar 0
LayerCount: 2
Back
Fore
SplineSet
55 844 m 1
 222 774 l 1
 220 770 l 1
 53 840 l 1
 55 844 l 1
133 680 m 1
 133 0 l 1
 129 0 l 1
 129 680 l 1
 133 680 l 1
EndSplineSet
Substitution2: "'c2sc' Capitals to Small Capitals lookup 26 subtable" igrave.sc
Substitution2: "'aalt' Access All Alternates lookup 0 subtable" igrave.sc
Position2: "'cpsp' Capital Spacing lookup 0 subtable" dx=5 dy=0 dh=10 dv=0
EndChar
StartChar: Iacute
Encoding: 205 205 120
Width: 263
GlyphClass: 2
Flags: MW
HStem: 0 21G<129 133 129 129> 660 20G<129 133 133 133>
VStem: 45 169<774 840>
AnchorPoint: "Anchor-14" 0 0 basechar 0
AnchorPoint: "Anchor-13" 0 0 basechar 0
AnchorPoint: "Anchor-12" 132 844 basechar 0
AnchorPoint: "Anchor-11" 143 0 basechar 0
AnchorPoint: "Anchor-10" 131 0 basechar 0
LayerCount: 2
Back
Fore
SplineSet
212 844 m 1
 214 840 l 1
 47 770 l 1
 45 774 l 1
 212 844 l 1
133 680 m 1
 133 0 l 1
 129 0 l 1
 129 680 l 1
 133 680 l 1
EndSplineSet
Substitution2: "'c2sc' Capitals to Small Capitals lookup 26 subtable" iacute.sc
Substitution2: "'aalt' Access All Alternates lookup 0 subtable" iacute.sc
Position2: "'cpsp' Capital Spacing lookup 0 subtable" dx=5 dy=0 dh=10 dv=0
EndChar
StartChar: Icircumflex
Encoding: 206 206 123
Width: 263
GlyphClass: 2
Flags: MW
HStem: 0 21G<129 133 129 129> 660 20G<129 133 133 133>
VStem: 21 221<772 772>
AnchorPoint: "Anchor-14" 0 0 basechar 0
AnchorPoint: "Anchor-13" 203 702 basechar 0
AnchorPoint: "Anchor-12" 131 852 basechar 0
AnchorPoint: "Anchor-11" 143 0 basechar 0
AnchorPoint: "Anchor-10" 131 0 basechar 0
LayerCount: 2
Back
Fore
SplineSet
239 770 m 1
 131 848 l 1
 24 770 l 1
 21 772 l 1
 129 852 l 1
 132 852 l 1
 242 772 l 1
 239 770 l 1
133 680 m 1
 133 0 l 1
 129 0 l 1
 129 680 l 1
 133 680 l 1
EndSplineSet
Substitution2: "'c2sc' Capitals to Small Capitals lookup 26 subtable" icircumflex.sc
Substitution2: "'aalt' Access All Alternates lookup 0 subtable" icircumflex.sc
Position2: "'cpsp' Capital Spacing lookup 0 subtable" dx=5 dy=0 dh=10 dv=0
EndChar

StartChar: Idieresis
Encoding: 207 207 48
Width: 263
GlyphClass: 2
Flags: MW
HStem: 0 21G<129.289 133.359 129.289 129.289> 660.14 20G 804.36 14.71
VStem: 55.43 77.93 129.29 76.85
AnchorPoint: "Anchor-11" 0 0 basechar 0
AnchorPoint: "Anchor-10" 81 680 basechar 0
AnchorPoint: "Anchor-9" 131 725 basechar 0
AnchorPoint: "Anchor-8" 143 0 basechar 0
LayerCount: 2
Fore
SplineSet
55.4297 819.07 m 0xf0
 60.2793 819.07 62.8496 815.5 62.8496 811.71 c 0
 62.8496 807.93 60.2793 804.359 55.4297 804.359 c 0
 50.6396 804.359 48.0693 807.93 48.0693 811.71 c 0
 48.0693 815.5 50.6396 819.07 55.4297 819.07 c 0xf0
206.14 819.07 m 0xe8
 210.93 819.07 213.5 815.5 213.5 811.71 c 0
 213.5 807.93 210.93 804.359 206.14 804.359 c 0
 201.29 804.359 198.72 807.93 198.72 811.71 c 0
 198.72 815.5 201.29 819.07 206.14 819.07 c 0xe8
133.359 0 m 1
 129.289 -0 l 1xe8
 129.289 680.14 l 1
 133.359 680.14 l 1xf0
 133.359 0 l 1
EndSplineSet
Substitution2: "'c2sc' Capitals to Small Capitals lookup 23 subtable" idieresis.sc
Substitution2: "'aalt' Access All Alternates lookup 0 subtable" idieresis.sc
Position2: "'cpsp' Capital Spacing lookup 0 subtable" dx=5 dy=0 dh=10 dv=0
EndChar

StartChar: Eth
Encoding: 208 208 21
Width: 608
GlyphClass: 2
Flags: MW
HStem: 0 21G 351.07 329.07 660.14 20G
VStem: 29.64 97.86 123.43 199.64
AnchorPoint: "Anchor-11" 0 0 basechar 0
AnchorPoint: "Anchor-10" 0 0 basechar 0
AnchorPoint: "Anchor-9" 284 680 basechar 0
AnchorPoint: "Anchor-8" 0 0 basechar 0
LayerCount: 2
Fore
SplineSet
229.21 680.14 m 2xb0
 373.36 680.14 523.499 626.069 523.499 347.999 c 0
 523.499 68.4287 374.569 -0.000976562 235.93 -0.000976562 c 2
 123.43 -0.000976562 l 1
 123.43 351.069 l 1xc8
 29.6396 351.069 l 1
 29.6396 354.93 l 1xd0
 123.43 354.93 l 1xc8
 123.43 680.14 l 1xa8
 229.21 680.14 l 2xb0
235.999 3.92969 m 2
 374.149 3.92969 519.349 72.1396 519.349 348 c 0
 519.349 623.28 370.999 676.21 228.999 676.21 c 2
 127.499 676.21 l 1
 127.499 354.93 l 1xd0
 323.069 354.93 l 1
 323.069 351.069 l 1xc8
 127.499 351.069 l 1xd0
 127.499 3.92969 l 1
 235.999 3.92969 l 2
EndSplineSet
Substitution2: "'c2sc' Capitals to Small Capitals lookup 23 subtable" eth.sc
Substitution2: "'aalt' Access All Alternates lookup 0 subtable" eth.sc
Position2: "'cpsp' Capital Spacing lookup 0 subtable" dx=5 dy=0 dh=10 dv=0
EndChar

StartChar: Ntilde
Encoding: 209 209 70
Width: 655
GlyphClass: 2
Flags: MW
HStem: -0.00999451 21G 0 21G 660.14 20G
VStem: 129.3 396.14
AnchorPoint: "Anchor-11" 322 0 basechar 0
AnchorPoint: "Anchor-10" 0 0 basechar 0
AnchorPoint: "Anchor-9" 332 680 basechar 0
AnchorPoint: "Anchor-8" 0 0 basechar 0
LayerCount: 2
Fore
SplineSet
284.99 855.95 m 1x70
 281.771 856.63 278.569 857 275.359 857 c 0
 270.979 857 266.92 856.73 263.12 856.19 c 1
 266.95 856.78 271 857.07 275.36 857.07 c 0
 278.53 857.07 281.74 856.67 284.99 855.95 c 1x70
263.119 856.19 m 1
 242.77 853.07 228.819 841.6 210.359 820.92 c 1
 209.859 821.07 l 1
 229.1 842.17 242.479 853.25 263.119 856.19 c 1
284.989 855.949 m 1
 302.339 852.319 319.858 839.868 338.679 829.309 c 1
 319.669 839.818 301.859 852.219 284.989 855.949 c 1
452.289 851.498 m 1
 437.179 831.888 424.73 820.677 409.12 815.907 c 1
 424.68 820.777 437.359 832.138 451.789 851.638 c 1
 452.289 851.498 l 1
409.121 815.907 m 1
 402.961 813.978 396.36 813.067 389.011 813.067 c 0
 370.9 813.067 354.341 820.537 338.69 829.317 c 1
 354.521 820.567 371.171 813.138 388.801 813.138 c 0
 396.301 813.138 402.961 814.018 409.121 815.907 c 1
519.94 -0.00292969 m 1
 133.02 675.775 l 1
 133.229 651.636 133.3 617.346 133.3 565.206 c 2
 133.3 -0.0136719 l 1
 129.3 -0.0136719 l 1x90
 129.3 680.137 l 1
 134.87 680.137 l 1
 521.73 4.34668 l 1
 521.58 45.2764 521.44 98.2061 521.44 142.856 c 2
 521.44 680.137 l 1
 525.44 680.137 l 1
 525.44 -0.00292969 l 1
 519.94 -0.00292969 l 1
EndSplineSet
Substitution2: "'c2sc' Capitals to Small Capitals lookup 23 subtable" ntilde.sc
Substitution2: "'aalt' Access All Alternates lookup 0 subtable" ntilde.sc
Position2: "'cpsp' Capital Spacing lookup 0 subtable" dx=5 dy=0 dh=10 dv=0
EndChar

StartChar: Ograve
Encoding: 210 210 76
Width: 687
GlyphClass: 2
Flags: MW
HStem: -9.08 21G 670.14 20G
VStem: 84.29 518.64
AnchorPoint: "Anchor-11" 0 0 basechar 0
AnchorPoint: "Anchor-10" 102 680 basechar 0
AnchorPoint: "Anchor-9" 341 680 basechar 0
AnchorPoint: "Anchor-8" 0 0 basechar 0
LayerCount: 2
Fore
SplineSet
431.21 773.64 m 1
 429.64 770.28 l 1
 262.359 839.78 l 1
 264.43 843.92 l 1
 431.21 773.64 l 1
343.14 690.141 m 0
 504.14 690.141 602.93 563.571 602.93 340.001 c 0
 602.93 119.851 510.069 -9.0791 343.14 -9.0791 c 0
 184.069 -9.0791 84.2891 118.641 84.2891 338.07 c 0
 84.2891 557.57 187.859 690.141 343.14 690.141 c 0
343.14 686.212 m 0
 190.069 686.212 88.4199 554.922 88.4199 338.062 c 0
 88.4199 121.562 186.42 -5.14844 343.14 -5.14844 c 0
 507.85 -5.14844 598.779 122.491 598.779 339.991 c 0
 598.779 560.642 501.93 686.212 343.14 686.212 c 0
EndSplineSet
Substitution2: "'c2sc' Capitals to Small Capitals lookup 23 subtable" ograve.sc
Substitution2: "'aalt' Access All Alternates lookup 0 subtable" ograve.sc
Position2: "'cpsp' Capital Spacing lookup 0 subtable" dx=5 dy=0 dh=10 dv=0
EndChar

StartChar: Oacute
Encoding: 211 211 72
Width: 687
GlyphClass: 2
Flags: MW
HStem: -9.07001 21G 670.15 20G
VStem: 84.29 518.64
AnchorPoint: "Anchor-11" 0 0 basechar 0
AnchorPoint: "Anchor-10" 102 680 basechar 0
AnchorPoint: "Anchor-9" 341 680 basechar 0
AnchorPoint: "Anchor-8" 0 0 basechar 0
LayerCount: 2
Fore
SplineSet
432 839.78 m 1
 264.71 770.291 l 1
 263.14 773.641 l 1
 429.93 843.931 l 1
 432 839.78 l 1
343.14 690.151 m 0
 504.14 690.151 602.93 563.582 602.93 340.012 c 0
 602.93 119.861 510.069 -9.06836 343.14 -9.06836 c 0
 184.069 -9.06836 84.2891 118.651 84.2891 338.081 c 0
 84.2891 557.581 187.859 690.151 343.14 690.151 c 0
343.14 686.223 m 0
 190.069 686.223 88.4199 554.933 88.4199 338.072 c 0
 88.4199 121.572 186.42 -5.1377 343.14 -5.1377 c 0
 507.85 -5.1377 598.779 122.502 598.779 340.002 c 0
 598.779 560.652 501.93 686.223 343.14 686.223 c 0
EndSplineSet
Substitution2: "'c2sc' Capitals to Small Capitals lookup 23 subtable" oacute.sc
Substitution2: "'locl' Localized Forms in Latin lookup 7 subtable" Oacute.loclPLK
AlternateSubs2: "'aalt' Access All Alternates lookup 1 subtable" Oacute.loclPLK oacute.sc
Position2: "'cpsp' Capital Spacing lookup 0 subtable" dx=5 dy=0 dh=10 dv=0
EndChar

StartChar: Ocircumflex
Encoding: 212 212 74
Width: 687
GlyphClass: 2
Flags: MW
HStem: -9.07001 21G 670.14 20G
VStem: 84.29 518.64
AnchorPoint: "Anchor-11" 0 0 basechar 0
AnchorPoint: "Anchor-10" 102 680 basechar 0
AnchorPoint: "Anchor-9" 341 680 basechar 0
AnchorPoint: "Anchor-8" 0 0 basechar 0
LayerCount: 2
Fore
SplineSet
340.21 847.71 m 1
 233.358 769.64 l 1
 230.429 771.859 l 1
 338.709 851.93 l 1
 341.709 851.93 l 1
 451.779 771.859 l 1
 448.85 769.64 l 1
 340.21 847.71 l 1
343.139 690.14 m 0
 504.139 690.14 602.929 563.569 602.929 339.999 c 0
 602.929 119.859 510.068 -9.07031 343.139 -9.07031 c 0
 184.068 -9.07031 84.2881 118.64 84.2881 338.069 c 0
 84.2881 557.569 187.858 690.14 343.139 690.14 c 0
343.139 686.21 m 0
 190.068 686.21 88.4189 554.919 88.4189 338.069 c 0
 88.4189 121.569 186.419 -5.15039 343.139 -5.15039 c 0
 507.849 -5.15039 598.778 122.5 598.778 340 c 0
 598.778 560.64 501.929 686.21 343.139 686.21 c 0
EndSplineSet
Substitution2: "'c2sc' Capitals to Small Capitals lookup 23 subtable" ocircumflex.sc
Substitution2: "'aalt' Access All Alternates lookup 0 subtable" ocircumflex.sc
Position2: "'cpsp' Capital Spacing lookup 0 subtable" dx=5 dy=0 dh=10 dv=0
EndChar

StartChar: Otilde
Encoding: 213 213 81
Width: 687
GlyphClass: 2
Flags: MW
HStem: -9.07001 21G 670.14 20G 686.21 126.93
VStem: 84.3 518.64
AnchorPoint: "Anchor-11" 0 0 basechar 0
AnchorPoint: "Anchor-10" 102 680 basechar 0
AnchorPoint: "Anchor-9" 341 680 basechar 0
AnchorPoint: "Anchor-8" 0 0 basechar 0
LayerCount: 2
Fore
SplineSet
294.56 855.95 m 1x30
 291.34 856.63 288.139 857 284.929 857 c 0
 280.549 857 276.489 856.73 272.689 856.19 c 1
 276.52 856.78 280.569 857.07 284.93 857.07 c 0
 288.1 857.07 291.31 856.67 294.56 855.95 c 1x30
272.688 856.19 m 1
 252.339 853.07 238.398 841.6 219.938 820.92 c 1
 219.438 821.07 l 1
 238.679 842.17 252.059 853.25 272.688 856.19 c 1
294.568 855.949 m 1
 311.908 852.319 329.428 839.868 348.258 829.309 c 1
 329.248 839.818 311.438 852.219 294.568 855.949 c 1
461.868 851.498 m 1
 446.769 831.888 434.298 820.677 418.688 815.907 c 1
 434.258 820.777 446.928 832.138 461.368 851.638 c 1
 461.868 851.498 l 1
418.697 815.907 m 1
 412.547 813.978 405.927 813.067 398.587 813.067 c 0
 380.467 813.067 363.907 820.537 348.257 829.317 c 1
 364.087 820.567 380.747 813.138 398.367 813.138 c 0
 405.877 813.138 412.527 814.018 418.697 815.907 c 1
343.147 690.138 m 0xd0
 504.147 690.138 602.938 563.567 602.938 339.997 c 0
 602.938 119.857 510.077 -9.07227 343.147 -9.07227 c 0
 184.077 -9.07227 84.2969 118.638 84.2969 338.067 c 0
 84.2969 557.567 187.867 690.138 343.147 690.138 c 0xd0
343.147 -5.14258 m 0
 507.857 -5.14258 598.787 122.498 598.787 339.998 c 0
 598.787 560.638 501.938 686.208 343.147 686.208 c 0x30
 190.077 686.208 88.4375 554.928 88.4375 338.067 c 0
 88.4375 121.567 186.438 -5.14258 343.147 -5.14258 c 0
EndSplineSet
Substitution2: "'c2sc' Capitals to Small Capitals lookup 23 subtable" otilde.sc
Substitution2: "'aalt' Access All Alternates lookup 0 subtable" otilde.sc
Position2: "'cpsp' Capital Spacing lookup 0 subtable" dx=5 dy=0 dh=10 dv=0
EndChar

StartChar: Odieresis
Encoding: 214 214 75
Width: 687
GlyphClass: 2
Flags: MW
HStem: -9.08 21G 670.14 20G 804.36 14.71
VStem: 84.29 518.64
AnchorPoint: "Anchor-11" 0 0 basechar 0
AnchorPoint: "Anchor-10" 102 680 basechar 0
AnchorPoint: "Anchor-9" 341 725 basechar 0
AnchorPoint: "Anchor-8" 0 0 basechar 0
LayerCount: 2
Fore
SplineSet
265.28 819.07 m 0
 270.141 819.07 272.711 815.5 272.711 811.71 c 0
 272.711 807.93 270.141 804.359 265.28 804.359 c 0
 260.5 804.359 257.93 807.93 257.93 811.71 c 0
 257.93 815.5 260.5 819.07 265.28 819.07 c 0
416 819.07 m 0
 420.78 819.07 423.351 815.5 423.351 811.71 c 0
 423.351 807.93 420.78 804.359 416 804.359 c 0
 411.14 804.359 408.569 807.93 408.569 811.71 c 0
 408.569 815.5 411.14 819.07 416 819.07 c 0
343.14 690.141 m 0
 504.14 690.141 602.93 563.571 602.93 340.001 c 0
 602.93 119.851 510.069 -9.0791 343.14 -9.0791 c 0
 184.069 -9.0791 84.2891 118.641 84.2891 338.07 c 0
 84.2891 557.57 187.859 690.141 343.14 690.141 c 0
343.14 686.212 m 0
 190.069 686.212 88.4199 554.922 88.4199 338.062 c 0
 88.4199 121.562 186.42 -5.14844 343.14 -5.14844 c 0
 507.85 -5.14844 598.779 122.491 598.779 339.991 c 0
 598.779 560.642 501.93 686.212 343.14 686.212 c 0
EndSplineSet
Substitution2: "'c2sc' Capitals to Small Capitals lookup 23 subtable" odieresis.sc
Substitution2: "'aalt' Access All Alternates lookup 0 subtable" odieresis.sc
Position2: "'cpsp' Capital Spacing lookup 0 subtable" dx=5 dy=0 dh=10 dv=0
EndChar

StartChar: multiply
Encoding: 215 215 1108
Width: 479
Flags: MW
HStem: 169.93 275.14
VStem: 104.28 270.15
LayerCount: 2
Fore
SplineSet
374.43 442.71 m 1
 242.569 307.93 l 1
 374.43 172.279 l 1
 371 169.93 l 1
 239.28 304.64 l 1
 107.71 169.93 l 1
 104.28 172.279 l 1
 236 307.93 l 1
 104.28 442.71 l 1
 107.71 445.07 l 1
 239.28 310.28 l 1
 371 445.07 l 1
 374.43 442.71 l 1
EndSplineSet
Substitution2: "'onum' Oldstyle Figures lookup 22 subtable" multiply.osf
Substitution2: "'tnum' Tabular Numbers lookup 21 subtable" multiply.tf
AlternateSubs2: "'aalt' Access All Alternates lookup 1 subtable" multiply.tf multiply.osf
EndChar

StartChar: Oslash
Encoding: 216 216 79
Width: 687
GlyphClass: 2
Flags: MW
HStem: -9.07001 21G 670.14 20G
VStem: 84.29 518.63
AnchorPoint: "Anchor-11" 0 0 basechar 0
AnchorPoint: "Anchor-10" 0 0 basechar 0
AnchorPoint: "Anchor-9" 335 687 basechar 0
AnchorPoint: "Anchor-8" 0 0 basechar 0
LayerCount: 2
Fore
SplineSet
442.03 671.22 m 1
 543.62 628.21 602.921 513.219 602.921 339.999 c 0
 602.921 119.859 510.071 -9.07031 343.142 -9.07031 c 0
 309.082 -9.07031 277.742 -3.2207 249.512 8.13965 c 1
 215.861 -103.79 l 1
 211.791 -102.22 l 1
 245.811 9.66992 l 1
 144.45 52.5996 84.29 167.689 84.29 338.069 c 0
 84.29 557.569 187.86 690.14 343.141 690.14 c 0
 377.9 690.14 409.75 684.239 438.34 672.739 c 1
 472.21 788.14 l 1
 476.28 786.569 l 1
 442.03 671.22 l 1
88.4209 338.068 m 0
 88.4209 170.019 146.911 56.0693 246.812 13.4795 c 1
 437.611 668.85 l 1
 409.331 680.319 377.731 686.209 343.142 686.209 c 0
 190.071 686.209 88.4209 554.929 88.4209 338.068 c 0
343.141 -5.14062 m 0
 507.86 -5.14062 598.779 122.5 598.779 340 c 0
 598.779 510.88 541.239 624.729 441.1 667.399 c 1
 250.3 12.0293 l 1
 278.21 0.699219 309.28 -5.14062 343.141 -5.14062 c 0
EndSplineSet
Substitution2: "'c2sc' Capitals to Small Capitals lookup 23 subtable" oslash.sc
Substitution2: "'aalt' Access All Alternates lookup 0 subtable" oslash.sc
Position2: "'cpsp' Capital Spacing lookup 0 subtable" dx=5 dy=0 dh=10 dv=0
EndChar

StartChar: Uacute
Encoding: 218 218 102
Width: 635
GlyphClass: 2
Flags: MW
HStem: -9.07001 21G 660.14 20G
VStem: 119.28 396.07
AnchorPoint: "Anchor-11" 0 0 basechar 0
AnchorPoint: "Anchor-10" 0 0 basechar 0
AnchorPoint: "Anchor-9" 322 680 basechar 0
AnchorPoint: "Anchor-8" 398 0 basechar 0
LayerCount: 2
Fore
SplineSet
413.07 839.78 m 1
 245.78 770.291 l 1
 244.21 773.641 l 1
 411 843.931 l 1
 413.07 839.78 l 1
515.351 206.141 m 2
 515.351 82.8604 461.57 -9.06934 317.351 -9.06934 c 0
 171.141 -9.06934 119.28 82.8604 119.28 206.141 c 2
 119.28 680.141 l 1
 123.351 680.141 l 1
 123.351 206.36 l 2
 123.351 84.9307 174.501 -5.13965 317.351 -5.13965 c 0
 459.351 -5.13965 511.28 85.1406 511.28 206.36 c 2
 511.28 680.141 l 1
 515.351 680.141 l 1
 515.351 206.141 l 2
EndSplineSet
Substitution2: "'c2sc' Capitals to Small Capitals lookup 23 subtable" uacute.sc
Substitution2: "'aalt' Access All Alternates lookup 0 subtable" uacute.sc
Position2: "'cpsp' Capital Spacing lookup 0 subtable" dx=5 dy=0 dh=10 dv=0
EndChar

StartChar: Ucircumflex
Encoding: 219 219 104
Width: 635
GlyphClass: 2
Flags: MW
HStem: -9.07001 21G 660.14 20G
VStem: 119.29 396.07
AnchorPoint: "Anchor-11" 0 0 basechar 0
AnchorPoint: "Anchor-10" 0 0 basechar 0
AnchorPoint: "Anchor-9" 322 680 basechar 0
AnchorPoint: "Anchor-8" 398 0 basechar 0
LayerCount: 2
Fore
SplineSet
321.28 847.71 m 1
 214.429 769.64 l 1
 211.499 771.859 l 1
 319.779 851.93 l 1
 322.779 851.93 l 1
 432.85 771.859 l 1
 429.92 769.64 l 1
 321.28 847.71 l 1
515.358 206.14 m 2
 515.358 82.8594 461.567 -9.07031 317.357 -9.07031 c 0
 171.138 -9.07031 119.288 82.8594 119.288 206.14 c 2
 119.288 680.14 l 1
 123.358 680.14 l 1
 123.358 206.359 l 2
 123.358 84.9297 174.498 -5.14062 317.358 -5.14062 c 0
 459.358 -5.14062 511.288 85.1396 511.288 206.359 c 2
 511.288 680.14 l 1
 515.358 680.14 l 1
 515.358 206.14 l 2
EndSplineSet
Substitution2: "'c2sc' Capitals to Small Capitals lookup 23 subtable" ucircumflex.sc
Substitution2: "'aalt' Access All Alternates lookup 0 subtable" ucircumflex.sc
Position2: "'cpsp' Capital Spacing lookup 0 subtable" dx=5 dy=0 dh=10 dv=0
EndChar

StartChar: Udieresis
Encoding: 220 220 105
Width: 635
GlyphClass: 2
Flags: MW
HStem: -9.08 21G 660.14 20G 804.36 14.71
VStem: 119.28 396.07
AnchorPoint: "Anchor-11" 0 0 basechar 0
AnchorPoint: "Anchor-10" 0 0 basechar 0
AnchorPoint: "Anchor-9" 322 725 basechar 0
AnchorPoint: "Anchor-8" 398 0 basechar 0
LayerCount: 2
Fore
SplineSet
246.35 819.07 m 0
 251.21 819.07 253.78 815.5 253.78 811.71 c 0
 253.78 807.93 251.21 804.359 246.35 804.359 c 0
 241.569 804.359 238.999 807.93 238.999 811.71 c 0
 238.999 815.5 241.569 819.07 246.35 819.07 c 0
397.069 819.07 m 0
 401.85 819.07 404.42 815.5 404.42 811.71 c 0
 404.42 807.93 401.85 804.359 397.069 804.359 c 0
 392.209 804.359 389.639 807.93 389.639 811.71 c 0
 389.639 815.5 392.209 819.07 397.069 819.07 c 0
515.35 206.141 m 2
 515.35 82.8506 461.569 -9.0791 317.35 -9.0791 c 0
 171.14 -9.0791 119.279 82.8506 119.279 206.141 c 2
 119.279 680.141 l 1
 123.35 680.141 l 1
 123.35 206.351 l 2
 123.35 84.9209 174.5 -5.14941 317.35 -5.14941 c 0
 459.35 -5.14941 511.279 85.1406 511.279 206.351 c 2
 511.279 680.141 l 1
 515.35 680.141 l 1
 515.35 206.141 l 2
EndSplineSet
Substitution2: "'c2sc' Capitals to Small Capitals lookup 23 subtable" udieresis.sc
Substitution2: "'aalt' Access All Alternates lookup 0 subtable" udieresis.sc
Position2: "'cpsp' Capital Spacing lookup 0 subtable" dx=5 dy=0 dh=10 dv=0
EndChar
StartChar: Yacute
Encoding: 221 221 303
Width: 481
GlyphClass: 2
Flags: MW
HStem: 0 21G<239 243 239 239> 660 20G<25 29 29 29 452 456 456 456>
VStem: 25 431<680 680>
AnchorPoint: "Anchor-14" 0 0 basechar 0
AnchorPoint: "Anchor-13" 0 0 basechar 0
AnchorPoint: "Anchor-12" 241 844 basechar 0
AnchorPoint: "Anchor-11" 0 0 basechar 0
AnchorPoint: "Anchor-10" 241 0 basechar 0
LayerCount: 2
Back
Fore
SplineSet
321 844 m 1
 323 840 l 1
 156 770 l 1
 154 774 l 1
 321 844 l 1
456 680 m 1
 243 271 l 1
 243 0 l 1
 239 0 l 1
 239 271 l 1
 25 680 l 1
 29 680 l 1
 241 275 l 1
 452 680 l 1
 456 680 l 1
EndSplineSet
Substitution2: "'c2sc' Capitals to Small Capitals lookup 26 subtable" yacute.sc
Substitution2: "'aalt' Access All Alternates lookup 0 subtable" yacute.sc
Position2: "'cpsp' Capital Spacing lookup 0 subtable" dx=5 dy=0 dh=10 dv=0
EndChar

StartChar: Thorn
Encoding: 222 222 84
Width: 553
GlyphClass: 2
Flags: MW
HStem: 0 21G<129.279 133.35 129.279 129.279> 0 157.21 546.5 133.64 660.14 20G
VStem: 129.28 359.07
LayerCount: 2
Fore
SplineSet
252.85 550.43 m 2x98
 411.489 550.43 488.35 492.36 488.35 351.431 c 0
 488.35 208.28 396.56 153.28 249.71 153.28 c 2
 133.35 153.28 l 1
 133.35 0 l 1
 129.279 -0 l 1
 129.279 680.14 l 1
 133.35 680.14 l 1
 133.35 550.43 l 1
 252.85 550.43 l 2x98
249.92 157.211 m 2x68
 393.35 157.211 484.199 210.29 484.199 351.36 c 0
 484.199 490.431 409.199 546.501 252.85 546.501 c 2
 133.35 546.501 l 1
 133.35 157.211 l 1
 249.92 157.211 l 2x68
EndSplineSet
Substitution2: "'c2sc' Capitals to Small Capitals lookup 23 subtable" thorn.sc
Substitution2: "'aalt' Access All Alternates lookup 0 subtable" thorn.sc
Position2: "'cpsp' Capital Spacing lookup 0 subtable" dx=5 dy=0 dh=10 dv=0
EndChar

StartChar: germandbls
Encoding: 223 223 233
Width: 570
GlyphClass: 2
Flags: MW
HStem: -10 21G<347.925 412.209> 0 21G<124.28 128.28 124.28 124.28> 713.36 20G
VStem: 124.28 185.64 305.93 124.06
LayerCount: 2
Fore
SplineSet
292.93 733.35 m 0x68
 376.29 733.35 429.989 681.291 429.989 611.861 c 0
 429.989 505.711 309.919 489.001 309.919 421.001 c 0x70
 309.919 325.641 505.919 327.931 505.919 142.57 c 0
 505.919 52.29 454.569 -10 369.85 -10 c 0
 326 -10 299 0.929688 278.78 12.9297 c 1
 280.57 16.4297 l 1
 301.42 3.71973 327.14 -6.14062 369.779 -6.14062 c 0
 452.93 -6.14062 501.859 54.7891 501.859 142.579 c 0
 501.859 326.289 305.93 322.149 305.93 420.999 c 0xa8
 305.93 490.859 425.93 507.209 425.93 611.859 c 0
 425.93 678.43 375.14 729.5 292.93 729.5 c 0
 199.71 729.5 128.28 661.71 128.28 540.71 c 2
 128.28 0 l 1
 124.28 0 l 1
 124.28 541 l 2x70
 124.28 663.5 197.5 733.35 292.93 733.35 c 0x68
EndSplineSet
Substitution2: "'smcp' Lowercase to Small Capitals lookup 24 subtable" germandbls.sc
Substitution2: "'aalt' Access All Alternates lookup 0 subtable" germandbls.sc
EndChar

StartChar: agrave
Encoding: 224 224 139
Width: 524
GlyphClass: 2
Flags: MW
HStem: -9.08 21G -5.72 21G 300.57 226.64
VStem: 69.65 379.22
AnchorPoint: "Anchor-11" 0 0 basechar 0
AnchorPoint: "Anchor-10" 0 0 basechar 0
AnchorPoint: "Anchor-9" 250 517 basechar 0
AnchorPoint: "Anchor-8" 457 -9 basechar 0
LayerCount: 2
Fore
SplineSet
338.57 661.21 m 1x70
 170.501 743.35 l 1
 172.431 747.5 l 1
 340.28 664.57 l 1
 338.57 661.21 l 1x70
396.501 110 m 2
 396.501 37.3496 406.801 7.20996 448.871 -5.71973 c 1
 447.441 -9.08008 l 1
 404.852 4.71973 392.951 33.2295 392.791 103.38 c 1
 357.571 30.5898 304.621 -9.08008 220.221 -9.08008 c 0xb0
 123.081 -9.08008 69.6514 55.6396 69.6514 144.92 c 0
 69.6514 246.35 146.081 304.42 269.081 304.42 c 2
 392.501 304.42 l 1
 392.501 371.78 l 2
 392.501 465.351 356.791 523.351 254.141 523.351 c 0
 208.141 523.351 162.141 512.28 107.501 489.5 c 1
 105.931 493.21 l 1
 160.711 516.07 207.711 527.21 254.141 527.21 c 0
 358.711 527.21 396.501 468.57 396.501 372 c 2
 396.501 110 l 2
220.23 -5.21973 m 0
 306.74 -5.21973 356.74 35.9102 392.51 109.82 c 1
 392.51 300.57 l 1
 269.51 300.57 l 2
 148.3 300.57 73.7998 243.5 73.7998 144.93 c 0
 73.7998 57.5 125.58 -5.21973 220.23 -5.21973 c 0
EndSplineSet
Substitution2: "'smcp' Lowercase to Small Capitals lookup 24 subtable" agrave.sc
Substitution2: "'aalt' Access All Alternates lookup 0 subtable" agrave.sc
EndChar

StartChar: aacute
Encoding: 225 225 135
Width: 524
GlyphClass: 2
Flags: MW
HStem: -9.07001 21G -5.72 21G 300.57 226.65
VStem: 69.64 379.22
AnchorPoint: "Anchor-11" 0 0 basechar 0
AnchorPoint: "Anchor-10" 0 0 basechar 0
AnchorPoint: "Anchor-9" 250 517 basechar 0
AnchorPoint: "Anchor-8" 457 -9 basechar 0
LayerCount: 2
Fore
SplineSet
161.85 661.21 m 1x70
 160.141 664.57 l 1
 327.99 747.5 l 1
 329.92 743.36 l 1
 161.85 661.21 l 1x70
396.49 110 m 2
 396.49 37.3604 406.79 7.20996 448.86 -5.71973 c 1
 447.431 -9.06934 l 1
 404.841 4.7207 392.94 33.2305 392.79 103.381 c 1
 357.57 30.5908 304.61 -9.06934 220.221 -9.06934 c 0xb0
 123.07 -9.06934 69.6406 55.6406 69.6406 144.931 c 0
 69.6406 246.36 146.07 304.431 269.07 304.431 c 2
 392.5 304.431 l 1
 392.5 371.791 l 2
 392.5 465.361 356.78 523.361 254.141 523.361 c 0
 208.141 523.361 162.141 512.291 107.49 489.501 c 1
 105.92 493.221 l 1
 160.71 516.07 207.71 527.221 254.14 527.221 c 0
 358.71 527.221 396.49 468.57 396.49 372 c 2
 396.49 110 l 2
220.22 -5.20996 m 0
 306.739 -5.20996 356.729 35.9199 392.51 109.82 c 1
 392.51 300.57 l 1
 269.51 300.57 l 2
 148.29 300.57 73.79 243.5 73.79 144.93 c 0
 73.79 57.5 125.58 -5.20996 220.22 -5.20996 c 0
EndSplineSet
Substitution2: "'smcp' Lowercase to Small Capitals lookup 24 subtable" aacute.sc
Substitution2: "'aalt' Access All Alternates lookup 0 subtable" aacute.sc
EndChar
StartChar: acircumflex
Encoding: 226 226 344
Width: 524
GlyphClass: 2
Flags: MW
HStem: -9 21G<171.5 262.5 447 447> -6 21G<449 449> 301 226<231 270 270 306.5 231 393>
VStem: 70 379<-6 195.5>
AnchorPoint: "Anchor-14" 0 0 basechar 0
AnchorPoint: "Anchor-13" 0 0 basechar 0
AnchorPoint: "Anchor-12" 253 747 basechar 0
AnchorPoint: "Anchor-11" 457 -9 basechar 0
AnchorPoint: "Anchor-10" 250 0 basechar 0
LayerCount: 2
Back
Fore
SplineSet
252 743 m 1x70
 143 659 l 1
 140 662 l 1
 250 747 l 1
 253 747 l 1
 361 662 l 1
 358 659 l 1
 252 743 l 1x70
397 110 m 2
 397 37 407 7 449 -6 c 1
 447 -9 l 1
 405 5 393 33 393 103 c 1
 358 31 305 -9 220 -9 c 0xb0
 123 -9 70 56 70 145 c 0
 70 246 146 304 269 304 c 2
 393 304 l 1
 393 372 l 2
 393 465 357 523 254 523 c 0
 208 523 162 512 108 490 c 1
 106 493 l 1
 161 516 208 527 254 527 c 0
 359 527 397 469 397 372 c 2
 397 110 l 2
220 -5 m 0
 307 -5 357 36 393 110 c 1
 393 301 l 1
 270 301 l 2
 148 301 74 244 74 145 c 0
 74 58 126 -5 220 -5 c 0
EndSplineSet
Substitution2: "'smcp' Lowercase to Small Capitals lookup 27 subtable" acircumflex.sc
Substitution2: "'aalt' Access All Alternates lookup 0 subtable" acircumflex.sc
EndChar

StartChar: atilde
Encoding: 227 227 143
Width: 524
GlyphClass: 2
Flags: MW
HStem: -9.08 21G -5.72 21G 300.57 226.64 523.35 163.79 667.14 20G 709.95 20G 710.19 20G 711.07 20G
VStem: 69.66 379.22
AnchorPoint: "Anchor-11" 0 0 basechar 0
AnchorPoint: "Anchor-10" 0 0 basechar 0
AnchorPoint: "Anchor-9" 250 517 basechar 0
AnchorPoint: "Anchor-8" 457 -9 basechar 0
LayerCount: 2
Fore
SplineSet
206.63 729.95 m 1x6980
 203.41 730.63 200.209 731 196.999 731 c 0
 192.619 731 188.56 730.73 184.76 730.19 c 1
 188.59 730.78 192.64 731.07 197 731.07 c 0
 200.17 731.07 203.38 730.67 206.63 729.95 c 1x6980
184.759 730.19 m 1x0280
 164.409 727.07 150.469 715.6 132.009 694.92 c 1
 131.509 695.07 l 1
 150.749 716.17 164.129 727.25 184.759 730.19 c 1x0280
206.639 729.949 m 1x2c80
 223.979 726.319 241.498 713.868 260.328 703.309 c 1
 241.318 713.818 223.509 726.219 206.639 729.949 c 1x2c80
373.938 725.498 m 1
 358.839 705.888 346.368 694.677 330.758 689.907 c 1
 346.328 694.777 358.998 706.138 373.438 725.638 c 1
 373.938 725.498 l 1
330.768 689.907 m 1
 324.617 687.978 317.997 687.067 310.657 687.067 c 0
 292.537 687.067 275.978 694.537 260.327 703.317 c 1
 276.157 694.567 292.817 687.138 310.438 687.138 c 0
 317.947 687.138 324.598 688.018 330.768 689.907 c 1
396.508 109.997 m 2
 396.508 37.3467 406.808 7.20703 448.878 -5.72266 c 1
 447.448 -9.08301 l 1
 404.858 4.7168 392.958 33.2266 392.798 103.377 c 1
 357.578 30.5869 304.628 -9.08301 220.228 -9.08301 c 0
 123.088 -9.08301 69.6582 55.6367 69.6582 144.917 c 0
 69.6582 246.347 146.088 304.417 269.088 304.417 c 2
 392.508 304.417 l 1
 392.508 371.777 l 2
 392.508 465.348 356.798 523.348 254.147 523.348 c 0x9080
 208.147 523.348 162.147 512.277 107.508 489.497 c 1
 105.938 493.207 l 1
 160.718 516.067 207.718 527.207 254.147 527.207 c 0
 358.718 527.207 396.508 468.567 396.508 371.997 c 2
 396.508 109.997 l 2
220.237 -5.22266 m 0
 306.747 -5.22266 356.747 35.9072 392.517 109.817 c 1
 392.517 300.567 l 1
 269.517 300.567 l 2
 148.307 300.567 73.8066 243.497 73.8066 144.927 c 0
 73.8066 57.4971 125.587 -5.22266 220.237 -5.22266 c 0
EndSplineSet
Substitution2: "'smcp' Lowercase to Small Capitals lookup 24 subtable" atilde.sc
Substitution2: "'aalt' Access All Alternates lookup 0 subtable" atilde.sc
EndChar

StartChar: aring
Encoding: 229 229 142
Width: 524
GlyphClass: 2
Flags: MW
HStem: -9.07001 21G -5.72 21G 300.57 226.65 523.36 134.14 653.93 129.93
VStem: 185.78 129.29
AnchorPoint: "Anchor-11" 0 0 basechar 0
AnchorPoint: "Anchor-10" 0 0 basechar 0
AnchorPoint: "Anchor-9" 250 517 basechar 0
AnchorPoint: "Anchor-8" 457 -9 basechar 0
LayerCount: 2
Fore
SplineSet
250.43 653.93 m 0x6c
 208.71 653.93 185.78 680.43 185.78 718.43 c 0
 185.78 757.359 210.57 783.859 250.42 783.859 c 0
 292.14 783.859 315.069 757.359 315.069 719.359 c 0
 315.069 680.43 290.279 653.93 250.43 653.93 c 0x6c
250.43 780.29 m 0
 212.5 780.29 189.71 754.57 189.71 718.431 c 0
 189.71 681.36 211.57 657.5 250.42 657.5 c 0
 288.35 657.5 311.14 683.22 311.14 719.359 c 0x54
 311.14 756.43 289.279 780.29 250.43 780.29 c 0
396.5 110 m 2
 396.5 37.3604 406.8 7.20996 448.87 -5.71973 c 1
 447.44 -9.06934 l 1
 404.851 4.7207 392.95 33.2305 392.79 103.381 c 1
 357.57 30.5908 304.62 -9.06934 220.22 -9.06934 c 0
 123.08 -9.06934 69.6504 55.6406 69.6504 144.931 c 0
 69.6504 246.36 146.08 304.431 269.08 304.431 c 2
 392.5 304.431 l 1
 392.5 371.791 l 2
 392.5 465.361 356.79 523.361 254.14 523.361 c 0x94
 208.14 523.361 162.14 512.291 107.5 489.501 c 1
 105.93 493.221 l 1
 160.71 516.07 207.71 527.221 254.14 527.221 c 0
 358.71 527.221 396.5 468.57 396.5 372 c 2
 396.5 110 l 2
220.229 -5.20996 m 0
 306.739 -5.20996 356.739 35.9199 392.509 109.82 c 1
 392.509 300.57 l 1
 269.509 300.57 l 2
 148.299 300.57 73.7988 243.5 73.7988 144.93 c 0
 73.7988 57.5 125.579 -5.20996 220.229 -5.20996 c 0
EndSplineSet
Substitution2: "'smcp' Lowercase to Small Capitals lookup 24 subtable" aring.sc
Substitution2: "'aalt' Access All Alternates lookup 0 subtable" aring.sc
EndChar

StartChar: ae
Encoding: 230 230 144
Width: 841
GlyphClass: 2
Flags: MW
HStem: -9.08 264.22 251.42 53 300.56 16.81 507.21 20G
VStem: 69.65 697.36
AnchorPoint: "Anchor-11" 0 0 basechar 0
AnchorPoint: "Anchor-10" 0 0 basechar 0
AnchorPoint: "Anchor-9" 418 517 basechar 0
AnchorPoint: "Anchor-8" 0 0 basechar 0
LayerCount: 2
Fore
SplineSet
767 287.64 m 0x58
 767 273.569 766.939 265.069 765.939 251.419 c 1
 396.59 251.419 l 1x58
 397.35 85.6992 474.069 -5.2207 589.649 -5.2207 c 0
 654.369 -5.2207 697.009 15.709 742.009 53.5586 c 1
 744.159 50.1289 l 1
 699.089 12.9893 656.659 -9.08105 589.659 -9.08105 c 0
 469.939 -9.08105 392.51 85.1992 392.51 253.199 c 2
 392.51 300.56 l 1
 269.51 300.56 l 2
 148.29 300.56 73.79 243.489 73.79 144.919 c 0
 73.79 57.4893 125.58 -5.23047 220.22 -5.23047 c 0
 307.72 -5.23047 358.01 36.8398 410.72 126.56 c 1
 412.01 121.989 l 1
 358.359 29.6992 305.789 -9.08105 220.219 -9.08105 c 0xb8
 123.079 -9.08105 69.6494 55.6289 69.6494 144.919 c 0
 69.6494 246.349 146.079 304.419 269.079 304.419 c 2
 392.499 304.419 l 1
 392.499 371.779 l 2x58
 392.499 465.35 356.789 523.35 254.139 523.35 c 0
 208.139 523.35 162.139 512.279 107.499 489.489 c 1
 105.929 493.209 l 1
 160.709 516.059 207.709 527.209 254.139 527.209 c 0
 358.709 527.209 396.499 468.559 396.499 371.988 c 2
 396.499 317.368 l 1x38
 413.849 451.019 484.459 527.209 589.069 527.209 c 0
 712.35 527.209 767 424.489 767 287.64 c 0x58
762.08 255.14 m 1x98
 763.01 267.64 763.011 275.35 763.011 288.42 c 0
 763.011 421.56 710.221 523.35 589.221 523.35 c 0
 472.24 523.35 397.15 425.02 396.58 255.14 c 1
 762.08 255.14 l 1x98
EndSplineSet
Substitution2: "'smcp' Lowercase to Small Capitals lookup 24 subtable" ae.sc
Substitution2: "'aalt' Access All Alternates lookup 0 subtable" ae.sc
EndChar
StartChar: ccedilla
Encoding: 231 231 384
Width: 469
GlyphClass: 2
Flags: MW
HStem: -204 122<275 313.5> -188 21G<234 234> -86 81<271 271> -9 21G<276 276 279 279 279 280> 507 20G<219 308.5>
VStem: 273.5 91.5
AnchorPoint: "Anchor-14" 0 0 basechar 0
AnchorPoint: "Anchor-13" 0 0 basechar 0
AnchorPoint: "Anchor-12" 270 517 basechar 0
AnchorPoint: "Anchor-11" 0 0 basechar 0
AnchorPoint: "Anchor-10" 302 -204 basechar 0
LayerCount: 2
Back
Fore
SplineSet
275 -82 m 1x9c
 331 -83 365 -99 365 -142 c 0
 365 -187 331 -204 296 -204 c 0x9c
 267 -204 250 -198 234 -188 c 1
 236 -184 l 1
 253 -195 269 -200 296 -200 c 0
 329 -200 361 -185 361 -142 c 0
 361 -105 335 -87 271 -86 c 1x6c
 276 -9 l 1x5c
 162 -7 79 88 79 256 c 0
 79 426 156 527 282 527 c 0
 335 527 375 510 411 477 c 1
 408 475 l 1
 373 507 333 523 282 523 c 0
 160 523 83 424 83 256 c 0
 83 89 167 -5 280 -5 c 0x6c
 339 -5 379 16 412 46 c 1
 415 44 l 1
 382 13 341 -9 280 -9 c 2
 279 -9 l 1
 275 -82 l 1x9c
EndSplineSet
Substitution2: "'smcp' Lowercase to Small Capitals lookup 27 subtable" ccedilla.sc
Substitution2: "'aalt' Access All Alternates lookup 0 subtable" ccedilla.sc
EndChar

StartChar: egrave
Encoding: 232 232 164
Width: 528
GlyphClass: 2
Flags: MW
HStem: -9.08 264.22 251.42 275.78
VStem: 79.29 374.5
AnchorPoint: "Anchor-11" 277 0 basechar 0
AnchorPoint: "Anchor-10" 0 0 basechar 0
AnchorPoint: "Anchor-9" 276 517 basechar 0
AnchorPoint: "Anchor-8" 365 4 basechar 0
LayerCount: 2
Fore
SplineSet
364 661.21 m 1x60
 195.931 743.35 l 1
 197.86 747.489 l 1
 365.71 664.56 l 1
 364 661.21 l 1x60
453.791 287.63 m 0
 453.791 273.56 453.71 265.07 452.71 251.42 c 1
 83.3604 251.42 l 1x60
 84.1201 85.7002 160.84 -5.21973 276.43 -5.21973 c 0
 341.14 -5.21973 383.79 15.71 428.79 53.5596 c 1
 430.93 50.1299 l 1
 385.859 12.9902 343.43 -9.08008 276.43 -9.08008 c 0xa0
 156.72 -9.08008 79.29 85.2002 79.29 253.2 c 0
 79.29 425.99 155.57 527.2 275.641 527.2 c 0
 399.141 527.2 453.791 424.49 453.791 287.63 c 0
448.851 255.141 m 1xa0
 449.78 267.641 449.78 275.351 449.78 288.421 c 0
 449.78 421.561 397 523.351 275.78 523.351 c 0
 159.08 523.351 83.9199 425.021 83.3604 255.141 c 1
 448.851 255.141 l 1xa0
EndSplineSet
Substitution2: "'smcp' Lowercase to Small Capitals lookup 24 subtable" egrave.sc
Substitution2: "'aalt' Access All Alternates lookup 0 subtable" egrave.sc
EndChar

StartChar: eacute
Encoding: 233 233 158
Width: 528
GlyphClass: 2
Flags: MW
HStem: -9.08 264.22 251.43 275.78
VStem: 79.28 374.5
AnchorPoint: "Anchor-11" 277 0 basechar 0
AnchorPoint: "Anchor-10" 0 0 basechar 0
AnchorPoint: "Anchor-9" 276 517 basechar 0
AnchorPoint: "Anchor-8" 365 4 basechar 0
LayerCount: 2
Fore
SplineSet
187.28 661.21 m 1x60
 185.571 664.57 l 1
 353.421 747.5 l 1
 355.351 743.35 l 1
 187.28 661.21 l 1x60
453.781 287.641 m 0
 453.781 273.57 453.711 265.07 452.711 251.431 c 1
 83.3613 251.431 l 1x60
 84.1211 85.7002 160.841 -5.21973 276.421 -5.21973 c 0
 341.141 -5.21973 383.78 15.71 428.78 53.5703 c 1
 430.931 50.1406 l 1
 385.86 12.9902 343.431 -9.08008 276.431 -9.08008 c 0xa0
 156.711 -9.08008 79.2812 85.21 79.2812 253.21 c 0
 79.2812 425.99 155.571 527.21 275.642 527.21 c 0
 399.142 527.21 453.781 424.49 453.781 287.641 c 0
448.852 255.141 m 1xa0
 449.781 267.641 449.782 275.35 449.782 288.42 c 0
 449.782 421.57 396.992 523.351 275.782 523.351 c 0
 159.082 523.351 83.9219 425.03 83.3516 255.141 c 1
 448.852 255.141 l 1xa0
EndSplineSet
Substitution2: "'smcp' Lowercase to Small Capitals lookup 24 subtable" eacute.sc
Substitution2: "'aalt' Access All Alternates lookup 0 subtable" eacute.sc
EndChar
StartChar: ecircumflex
Encoding: 234 234 415
Width: 528
GlyphClass: 2
Flags: MW
HStem: -9 264<216.5 309.5> 251 276<216 337.5 216 453 83 337.5>
VStem: 79 375<281 339.5>
AnchorPoint: "Anchor-14" 0 0 basechar 0
AnchorPoint: "Anchor-13" 0 0 basechar 0
AnchorPoint: "Anchor-12" 278 747 basechar 0
AnchorPoint: "Anchor-11" 365 4 basechar 0
AnchorPoint: "Anchor-10" 277 0 basechar 0
LayerCount: 2
Back
Fore
SplineSet
277 743 m 1x60
 168 659 l 1
 165 662 l 1
 275 747 l 1
 278 747 l 1
 386 662 l 1
 383 659 l 1
 277 743 l 1x60
454 288 m 0
 454 274 454 265 453 251 c 1
 83 251 l 1x60
 84 86 161 -5 276 -5 c 0
 341 -5 384 16 429 54 c 1
 431 50 l 1
 386 13 343 -9 276 -9 c 0xa0
 157 -9 79 85 79 253 c 0
 79 426 156 527 276 527 c 0
 399 527 454 425 454 288 c 0
449 255 m 1xa0
 450 268 450 275 450 288 c 0
 450 422 397 523 276 523 c 0
 159 523 84 425 83 255 c 1
 449 255 l 1xa0
EndSplineSet
Substitution2: "'smcp' Lowercase to Small Capitals lookup 27 subtable" ecircumflex.sc
Substitution2: "'aalt' Access All Alternates lookup 0 subtable" ecircumflex.sc
EndChar
StartChar: edieresis
Encoding: 235 235 422
Width: 528
GlyphClass: 2
Flags: MW
HStem: -9 264<216.5 309.5> 251 276<216 337.5 216 453 83 337.5> 678 15<198 202.5 348.5 353.5>
VStem: 79 375<281 339.5> 200 151<678 678 693 693>
AnchorPoint: "Anchor-14" 0 0 basechar 0
AnchorPoint: "Anchor-13" 0 0 basechar 0
AnchorPoint: "Anchor-12" 278 693 basechar 0
AnchorPoint: "Anchor-11" 365 4 basechar 0
AnchorPoint: "Anchor-10" 277 0 basechar 0
LayerCount: 2
Back
Fore
SplineSet
200 678 m 0x68
 196 678 193 682 193 686 c 0
 193 690 196 693 200 693 c 0
 205 693 208 690 208 686 c 0
 208 682 205 678 200 678 c 0x68
351 678 m 0
 346 678 344 682 344 686 c 0
 344 690 346 693 351 693 c 0
 356 693 358 690 358 686 c 0
 358 682 356 678 351 678 c 0
454 288 m 0
 454 274 454 265 453 251 c 1
 83 251 l 1x70
 84 86 161 -5 276 -5 c 0
 341 -5 384 16 429 54 c 1
 431 50 l 1
 386 13 343 -9 276 -9 c 0xb0
 157 -9 79 85 79 253 c 0
 79 426 156 527 276 527 c 0
 399 527 454 425 454 288 c 0
449 255 m 1xb0
 450 268 450 275 450 288 c 0
 450 422 397 523 276 523 c 0
 159 523 84 425 83 255 c 1
 449 255 l 1xb0
EndSplineSet
Substitution2: "'smcp' Lowercase to Small Capitals lookup 27 subtable" edieresis.sc
Substitution2: "'aalt' Access All Alternates lookup 0 subtable" edieresis.sc
EndChar

StartChar: igrave
Encoding: 236 236 183
Width: 253
GlyphClass: 2
Flags: MW
HStem: -0.00999451 21G 497.21 20G<124.28 128.28 128.28 128.28>
VStem: 46.35 169.79
AnchorPoint: "Anchor-11" 0 0 basechar 0
AnchorPoint: "Anchor-10" 0 0 basechar 0
AnchorPoint: "Anchor-9" 126 517 basechar 0
AnchorPoint: "Anchor-8" 138 0 basechar 0
LayerCount: 2
Fore
SplineSet
216.14 664.57 m 1
 214.42 661.21 l 1
 46.3496 743.35 l 1
 48.2793 747.5 l 1
 216.14 664.57 l 1
128.28 -0.00976562 m 1
 124.28 -0.00976562 l 1
 124.28 517.21 l 1
 128.28 517.21 l 1
 128.28 -0.00976562 l 1
EndSplineSet
Substitution2: "'smcp' Lowercase to Small Capitals lookup 24 subtable" igrave.sc
Substitution2: "'aalt' Access All Alternates lookup 0 subtable" igrave.sc
EndChar

StartChar: iacute
Encoding: 237 237 178
Width: 253
GlyphClass: 2
Flags: MW
HStem: 0 21G<124.281 128.281 124.281 124.281> 497.21 20G
VStem: 36 169.78
AnchorPoint: "Anchor-11" 0 0 basechar 0
AnchorPoint: "Anchor-10" 0 0 basechar 0
AnchorPoint: "Anchor-9" 126 517 basechar 0
AnchorPoint: "Anchor-8" 138 0 basechar 0
LayerCount: 2
Fore
SplineSet
205.78 743.35 m 1
 37.7109 661.21 l 1
 36.001 664.57 l 1
 203.851 747.5 l 1
 205.78 743.35 l 1
128.281 -0 m 1
 124.281 -0 l 1
 124.281 517.21 l 1
 128.281 517.21 l 1
 128.281 -0 l 1
EndSplineSet
Substitution2: "'smcp' Lowercase to Small Capitals lookup 24 subtable" iacute.sc
Substitution2: "'aalt' Access All Alternates lookup 0 subtable" iacute.sc
EndChar

StartChar: icircumflex
Encoding: 238 238 180
Width: 253
GlyphClass: 2
Flags: MW
HStem: 0 21G<124.289 128.289 124.289 124.289> 497.21 20G
VStem: 18.64 221.36
AnchorPoint: "Anchor-11" 0 0 basechar 0
AnchorPoint: "Anchor-10" 0 0 basechar 0
AnchorPoint: "Anchor-9" 126 517 basechar 0
AnchorPoint: "Anchor-8" 138 0 basechar 0
LayerCount: 2
Fore
SplineSet
18.6396 661.57 m 1
 128.719 746.71 l 1
 131.719 746.71 l 1
 239.999 661.57 l 1
 237.069 659.351 l 1
 130.22 742.501 l 1
 21.5693 659.351 l 1
 18.6396 661.57 l 1
128.289 -0 m 1
 124.289 -0 l 1
 124.289 517.21 l 1
 128.289 517.21 l 1
 128.289 -0 l 1
EndSplineSet
Substitution2: "'smcp' Lowercase to Small Capitals lookup 24 subtable" icircumflex.sc
Substitution2: "'aalt' Access All Alternates lookup 0 subtable" icircumflex.sc
EndChar

StartChar: idieresis
Encoding: 239 239 181
Width: 253
GlyphClass: 2
Flags: MW
HStem: 0 21G<124.29 128.29 124.29 124.29> 497.21 20G 678.36 14.71
VStem: 43.07 165.43
AnchorPoint: "Anchor-11" 0 0 basechar 0
AnchorPoint: "Anchor-10" 0 0 basechar 0
AnchorPoint: "Anchor-9" 126 599 basechar 0
AnchorPoint: "Anchor-8" 138 0 basechar 0
LayerCount: 2
Fore
SplineSet
50.4297 693.07 m 0
 55.2793 693.07 57.8496 689.5 57.8496 685.71 c 0
 57.8496 681.93 55.2793 678.359 50.4297 678.359 c 0
 45.6396 678.359 43.0693 681.93 43.0693 685.71 c 0
 43.0693 689.5 45.6396 693.07 50.4297 693.07 c 0
201.14 693.07 m 0
 205.93 693.07 208.5 689.5 208.5 685.71 c 0
 208.5 681.93 205.93 678.359 201.14 678.359 c 0
 196.29 678.359 193.72 681.93 193.72 685.71 c 0
 193.72 689.5 196.29 693.07 201.14 693.07 c 0
128.29 0 m 1
 124.29 -0 l 1
 124.29 517.21 l 1
 128.29 517.21 l 1
 128.29 0 l 1
EndSplineSet
Substitution2: "'smcp' Lowercase to Small Capitals lookup 24 subtable" idieresis.sc
Substitution2: "'aalt' Access All Alternates lookup 0 subtable" idieresis.sc
EndChar
StartChar: eth
Encoding: 240 240 392
Width: 541
GlyphClass: 2
Flags: MW
HStem: -9 21G<206 326> 714 20G<152 152> 718 20G<359 359>
VStem: 79 377<206 289.5>
AnchorPoint: "Anchor-14" 0 0 basechar 0
AnchorPoint: "Anchor-13" 0 0 basechar 0
AnchorPoint: "Anchor-12" 286 728 basechar 0
AnchorPoint: "Anchor-11" 0 0 basechar 0
AnchorPoint: "Anchor-10" 268 0 basechar 0
LayerCount: 2
Back
Fore
SplineSet
299 669 m 1xb0
 401 597 456 485 456 320 c 0
 456 92 388 -9 264 -9 c 0
 148 -9 79 88 79 228 c 0
 79 351 145 457 260 457 c 0
 343 457 405 409 452 339 c 1
 448 491 394 596 297 666 c 1
 209 575 l 1
 205 577 l 1
 294 669 l 1
 252 698 200 719 151 731 c 1
 152 734 l 1
 201 723 253 702 296 671 c 1xd0
 359 738 l 1
 362 736 l 1
 299 669 l 1xb0
264 -5 m 0
 385 -5 452 94 452 320 c 2
 452 334 l 1
 404 405 342 454 260 454 c 0
 148 454 83 351 83 228 c 0
 83 89 152 -5 264 -5 c 0
EndSplineSet
Substitution2: "'smcp' Lowercase to Small Capitals lookup 27 subtable" eth.sc
Substitution2: "'aalt' Access All Alternates lookup 0 subtable" eth.sc
EndChar
StartChar: ntilde
Encoding: 241 241 552
Width: 580
GlyphClass: 2
Flags: MW
HStem: 0 21G<124 128 124 124 457 461 457 457> 497 20G<124 128 128 128> 507 20G<283 373.5> 523 166<332 367 332 372.5> 685 48 713 20G<227 260>
VStem: 124 337<0 368 0 517 0 517>
AnchorPoint: "Anchor-14" 0 0 basechar 0
AnchorPoint: "Anchor-13" 0 0 basechar 0
AnchorPoint: "Anchor-12" 295 693 basechar 0
AnchorPoint: "Anchor-11" 0 0 basechar 0
AnchorPoint: "Anchor-10" 287 0 basechar 0
LayerCount: 2
Back
Fore
SplineSet
240 729 m 0xaa
 215 729 200 718 178 694 c 1
 175 696 l 1
 198 721 214 733 240 733 c 0
 280 733 311 689 353 689 c 0x96
 381 689 397 700 417 726 c 1
 420 725 l 1
 399 697 382 685 353 685 c 0
 310 685 278 729 240 729 c 0xaa
326 527 m 0xa6
 421 527 461 467 461 368 c 2
 461 0 l 1
 457 0 l 1
 457 368 l 2
 457 466 419 523 326 523 c 0x96
 240 523 176 472 128 387 c 1
 128 0 l 1
 124 0 l 1
 124 517 l 1
 128 517 l 1xc6
 128 393 l 1
 176 476 240 527 326 527 c 0xa6
EndSplineSet
Substitution2: "'smcp' Lowercase to Small Capitals lookup 27 subtable" ntilde.sc
Substitution2: "'aalt' Access All Alternates lookup 0 subtable" ntilde.sc
EndChar
StartChar: ocircumflex
Encoding: 244 244 559
Width: 559
GlyphClass: 2
Flags: MW
HStem: -9 21G<217 340.5> 507 20G<220.5 342.5>
VStem: 79 401<175.5 344.5>
AnchorPoint: "Anchor-14" 0 0 basechar 0
AnchorPoint: "Anchor-13" 433 517 basechar 0
AnchorPoint: "Anchor-12" 282 747 basechar 0
AnchorPoint: "Anchor-11" 349 0 basechar 0
AnchorPoint: "Anchor-10" 280 0 basechar 0
LayerCount: 2
Back
Fore
SplineSet
172 659 m 1
 169 662 l 1
 279 747 l 1
 282 747 l 1
 390 662 l 1
 387 659 l 1
 281 743 l 1
 172 659 l 1
281 527 m 0
 404 527 480 430 480 262 c 0
 480 89 402 -9 279 -9 c 0
 155 -9 79 91 79 258 c 0
 79 431 160 527 281 527 c 0
281 523 m 0
 162 523 83 428 83 258 c 0
 83 94 157 -5 279 -5 c 0
 400 -5 476 92 476 262 c 0
 476 426 401 523 281 523 c 0
EndSplineSet
Substitution2: "'smcp' Lowercase to Small Capitals lookup 27 subtable" ocircumflex.sc
Substitution2: "'aalt' Access All Alternates lookup 0 subtable" ocircumflex.sc
EndChar
StartChar: otilde
Encoding: 245 245 591
Width: 559
GlyphClass: 2
Flags: MW
HStem: -9 21G<217 340.5> 507 20G<220.5 342.5> 523 166<317 341> 685 48 713 20G<212 245>
VStem: 79 401<175.5 344.5>
AnchorPoint: "Anchor-14" 0 0 basechar 0
AnchorPoint: "Anchor-13" 433 517 basechar 0
AnchorPoint: "Anchor-12" 280 693 basechar 0
AnchorPoint: "Anchor-11" 349 0 basechar 0
AnchorPoint: "Anchor-10" 280 0 basechar 0
LayerCount: 2
Back
Fore
SplineSet
338 685 m 0xd4
 295 685 263 729 225 729 c 0xd4
 200 729 185 718 163 694 c 1
 160 696 l 1
 183 721 199 733 225 733 c 0
 265 733 296 689 338 689 c 0xac
 366 689 382 700 402 726 c 1
 405 725 l 1
 384 697 367 685 338 685 c 0xd4
281 527 m 0xcc
 404 527 480 430 480 262 c 0
 480 89 402 -9 279 -9 c 0
 155 -9 79 91 79 258 c 0
 79 431 160 527 281 527 c 0xcc
281 523 m 0xac
 162 523 83 428 83 258 c 0
 83 94 157 -5 279 -5 c 0
 400 -5 476 92 476 262 c 0
 476 426 401 523 281 523 c 0xac
EndSplineSet
Substitution2: "'smcp' Lowercase to Small Capitals lookup 27 subtable" otilde.sc
Substitution2: "'aalt' Access All Alternates lookup 0 subtable" otilde.sc
EndChar

StartChar: odieresis
Encoding: 246 246 212
Width: 559
GlyphClass: 2
Flags: MW
HStem: -9.07001 21G 507.21 20G 678.36 14.71
VStem: 79.28 400.57
AnchorPoint: "Anchor-11" 0 0 basechar 0
AnchorPoint: "Anchor-10" 0 0 basechar 0
AnchorPoint: "Anchor-9" 280 599 basechar 0
AnchorPoint: "Anchor-8" 0 0 basechar 0
LayerCount: 2
Fore
SplineSet
204.21 693.07 m 0
 209.07 693.07 211.641 689.5 211.641 685.71 c 0
 211.641 681.93 209.07 678.359 204.21 678.359 c 0
 199.43 678.359 196.859 681.93 196.859 685.71 c 0
 196.859 689.5 199.43 693.07 204.21 693.07 c 0
354.93 693.07 m 0
 359.71 693.07 362.28 689.5 362.28 685.71 c 0
 362.28 681.93 359.71 678.359 354.93 678.359 c 0
 350.069 678.359 347.499 681.93 347.499 685.71 c 0
 347.499 689.5 350.069 693.07 354.93 693.07 c 0
281 527.21 m 0
 403.5 527.21 479.85 429.5 479.85 262 c 0
 479.85 89 402.42 -9.07031 279.07 -9.07031 c 0
 154.641 -9.07031 79.2803 91 79.2803 258.07 c 0
 79.2803 431 159.57 527.21 281 527.21 c 0
281 523.36 m 0
 161.78 523.36 83.3486 428.29 83.3486 258.07 c 0
 83.3486 93.8604 156.919 -5.20996 279.069 -5.20996 c 0
 400.209 -5.20996 475.779 91.8604 475.779 262 c 0
 475.779 426.36 401.35 523.36 281 523.36 c 0
EndSplineSet
Substitution2: "'smcp' Lowercase to Small Capitals lookup 24 subtable" odieresis.sc
Substitution2: "'aalt' Access All Alternates lookup 0 subtable" odieresis.sc
EndChar

StartChar: oslash
Encoding: 248 248 216
Width: 559
GlyphClass: 2
Flags: MW
HStem: -9.07001 21G 507.21 20G
VStem: 79.29 400.57
AnchorPoint: "Anchor-11" 0 0 basechar 0
AnchorPoint: "Anchor-10" 0 0 basechar 0
AnchorPoint: "Anchor-9" 280 517 basechar 0
AnchorPoint: "Anchor-8" 0 0 basechar 0
LayerCount: 2
Fore
SplineSet
363.42 509.48 m 1
 436.77 474.24 479.858 387.811 479.858 262.001 c 0
 479.858 89.001 402.429 -9.06934 279.079 -9.06934 c 0
 249.529 -9.06934 222.749 -3.42969 199.089 7.41016 c 1
 199.079 7.28027 l 1
 158.649 -112.649 l 1
 154.859 -112.079 l 1
 195.359 8.99121 l 1
 195.399 9.15137 l 1
 121.689 45.1113 79.2891 132.741 79.2891 258.062 c 0
 79.2891 430.991 159.569 527.211 280.999 527.211 c 0
 309.949 527.211 336.319 521.751 359.72 511.211 c 1
 399.5 630.851 l 1
 403.29 630.28 l 1
 363.42 509.48 l 1
83.3584 258.071 m 0
 83.3584 135.131 124.598 48.7109 196.578 13.0312 c 1
 358.788 507.262 l 1
 335.718 517.861 309.668 523.361 281.008 523.361 c 0
 161.788 523.361 83.3584 428.291 83.3584 258.071 c 0
279.077 -5.21875 m 0
 400.228 -5.21875 475.798 91.8516 475.798 261.991 c 0
 475.798 385.251 433.938 470.621 362.247 505.621 c 1
 200.027 11.3613 l 1
 223.357 0.460938 249.827 -5.21875 279.077 -5.21875 c 0
EndSplineSet
Substitution2: "'smcp' Lowercase to Small Capitals lookup 24 subtable" oslash.sc
Substitution2: "'aalt' Access All Alternates lookup 0 subtable" oslash.sc
EndChar

StartChar: ugrave
Encoding: 249 249 244
Width: 575
GlyphClass: 2
Flags: MW
HStem: -9.08 21G 0 21G 497.21 20G
VStem: 119.28 331.57
AnchorPoint: "Anchor-11" 0 0 basechar 0
AnchorPoint: "Anchor-10" 0 0 basechar 0
AnchorPoint: "Anchor-9" 290 517 basechar 0
AnchorPoint: "Anchor-8" 461 0 basechar 0
LayerCount: 2
Fore
SplineSet
379.57 664.57 m 1x70
 377.851 661.21 l 1
 209.78 743.35 l 1
 211.71 747.5 l 1
 379.57 664.57 l 1x70
450.851 -0.00976562 m 1
 447.142 0.000976562 l 1x70
 447.071 115.001 l 1
 405.711 40.0713 346.781 -9.0791 260.781 -9.0791 c 0xb0
 173.281 -9.0791 119.281 45.9912 119.281 149.921 c 2
 119.281 517.211 l 1
 123.281 517.211 l 1
 123.281 150.061 l 2
 123.281 48.7803 175.642 -5.21973 261.071 -5.21973 c 0
 347.421 -5.21973 405.921 46.6299 446.851 121.28 c 1
 446.851 517.21 l 1
 450.851 517.21 l 1
 450.851 -0.00976562 l 1
EndSplineSet
Substitution2: "'smcp' Lowercase to Small Capitals lookup 24 subtable" ugrave.sc
Substitution2: "'aalt' Access All Alternates lookup 0 subtable" ugrave.sc
EndChar

StartChar: uacute
Encoding: 250 250 240
Width: 575
GlyphClass: 2
Flags: MW
HStem: -9.07001 21G 0 21G<450.86 450.86> 497.21 20G
VStem: 119.29 331.57
AnchorPoint: "Anchor-11" 0 0 basechar 0
AnchorPoint: "Anchor-10" 0 0 basechar 0
AnchorPoint: "Anchor-9" 290 517 basechar 0
AnchorPoint: "Anchor-8" 461 0 basechar 0
LayerCount: 2
Fore
SplineSet
369.21 743.35 m 1x70
 201.141 661.21 l 1
 199.431 664.57 l 1
 367.28 747.5 l 1
 369.21 743.35 l 1x70
450.86 -0 m 1
 447.141 -0.000976562 l 1x70
 447.07 114.999 l 1
 405.721 40.0693 346.791 -9.07031 260.791 -9.07031 c 0xb0
 173.291 -9.07031 119.291 46 119.291 149.93 c 2
 119.291 517.21 l 1
 123.291 517.21 l 1
 123.291 150.07 l 2
 123.291 48.7803 175.641 -5.21973 261.07 -5.21973 c 0
 347.431 -5.21973 405.931 46.6406 446.86 121.28 c 1
 446.86 517.21 l 1
 450.86 517.21 l 1
 450.86 -0 l 1
EndSplineSet
Substitution2: "'smcp' Lowercase to Small Capitals lookup 24 subtable" uacute.sc
Substitution2: "'aalt' Access All Alternates lookup 0 subtable" uacute.sc
EndChar

StartChar: ucircumflex
Encoding: 251 251 242
Width: 575
GlyphClass: 2
Flags: MW
HStem: -9.07001 21G 0 21G<450.859 450.859> 497.21 20G
VStem: 119.29 331.57
AnchorPoint: "Anchor-11" 0 0 basechar 0
AnchorPoint: "Anchor-10" 0 0 basechar 0
AnchorPoint: "Anchor-9" 290 517 basechar 0
AnchorPoint: "Anchor-8" 461 0 basechar 0
LayerCount: 2
Fore
SplineSet
182.07 661.57 m 1x70
 292.14 746.71 l 1
 295.14 746.71 l 1
 403.43 661.57 l 1
 400.5 659.351 l 1
 293.64 742.501 l 1
 185 659.351 l 1
 182.07 661.57 l 1x70
450.859 -0 m 1
 447.14 -0.000976562 l 1x70
 447.069 114.999 l 1
 405.72 40.0693 346.79 -9.07031 260.79 -9.07031 c 0xb0
 173.29 -9.07031 119.29 46 119.29 149.93 c 2
 119.29 517.21 l 1
 123.29 517.21 l 1
 123.29 150.07 l 2
 123.29 48.7803 175.64 -5.21973 261.069 -5.21973 c 0
 347.43 -5.21973 405.93 46.6406 446.859 121.28 c 1
 446.859 517.21 l 1
 450.859 517.21 l 1
 450.859 -0 l 1
EndSplineSet
Substitution2: "'smcp' Lowercase to Small Capitals lookup 24 subtable" ucircumflex.sc
Substitution2: "'aalt' Access All Alternates lookup 0 subtable" ucircumflex.sc
EndChar

StartChar: udieresis
Encoding: 252 252 243
Width: 575
GlyphClass: 2
Flags: MW
HStem: -9.07001 21G 0 21G<450.85 450.85> 497.21 20G 678.36 14.71
VStem: 119.28 331.57
AnchorPoint: "Anchor-11" 0 0 basechar 0
AnchorPoint: "Anchor-10" 0 0 basechar 0
AnchorPoint: "Anchor-9" 290 599 basechar 0
AnchorPoint: "Anchor-8" 461 0 basechar 0
LayerCount: 2
Fore
SplineSet
213.85 693.07 m 0x78
 218.71 693.07 221.28 689.5 221.28 685.71 c 0
 221.28 681.93 218.71 678.359 213.85 678.359 c 0
 209.069 678.359 206.499 681.93 206.499 685.71 c 0
 206.499 689.5 209.069 693.07 213.85 693.07 c 0x78
364.569 693.07 m 0
 369.35 693.07 371.92 689.5 371.92 685.71 c 0
 371.92 681.93 369.35 678.359 364.569 678.359 c 0
 359.709 678.359 357.139 681.93 357.139 685.71 c 0
 357.139 689.5 359.709 693.07 364.569 693.07 c 0
450.85 0 m 1
 447.141 -0.000976562 l 1x78
 447.07 114.999 l 1
 405.71 40.0693 346.78 -9.07031 260.78 -9.07031 c 0xb8
 173.28 -9.07031 119.28 46 119.28 149.93 c 2
 119.28 517.21 l 1
 123.28 517.21 l 1
 123.28 150.07 l 2
 123.28 48.7803 175.641 -5.21973 261.07 -5.21973 c 0
 347.42 -5.21973 405.92 46.6406 446.85 121.28 c 1
 446.85 517.21 l 1
 450.85 517.21 l 1
 450.85 0 l 1
EndSplineSet
Substitution2: "'smcp' Lowercase to Small Capitals lookup 24 subtable" udieresis.sc
Substitution2: "'aalt' Access All Alternates lookup 0 subtable" udieresis.sc
EndChar

StartChar: yacute
Encoding: 253 253 258
Width: 435
GlyphClass: 2
Flags: MW
HStem: -189.57 21G 0 21G<220.781 223.501 220.781 220.781> 497.21 20G
VStem: 29.28 376.43
AnchorPoint: "Anchor-11" 0 0 basechar 0
AnchorPoint: "Anchor-10" 0 0 basechar 0
AnchorPoint: "Anchor-9" 217 517 basechar 0
AnchorPoint: "Anchor-8" 0 0 basechar 0
LayerCount: 2
Fore
SplineSet
296.42 743.35 m 1
 128.351 661.21 l 1
 126.641 664.57 l 1
 294.49 747.5 l 1
 296.42 743.35 l 1
227.351 -0.139648 m 2
 188.28 -112.359 165.352 -159.432 60.7812 -189.571 c 1
 60.501 -186.001 l 1
 162.641 -155.931 184.641 -111.15 223.501 0 c 1
 220.781 -0 l 1
 29.2812 517.21 l 1
 33.501 517.21 l 1
 224.141 1.63965 l 1
 401.431 517.21 l 1
 405.711 517.21 l 1
 227.351 -0.139648 l 2
EndSplineSet
Substitution2: "'smcp' Lowercase to Small Capitals lookup 24 subtable" yacute.sc
Substitution2: "'aalt' Access All Alternates lookup 0 subtable" yacute.sc
EndChar

StartChar: thorn
Encoding: 254 254 221
Width: 567
GlyphClass: 2
Flags: MW
HStem: -190.22 21G -9.08 21G 507.21 20G 710.57 20G
VStem: 124.28 358.65
LayerCount: 2
Fore
SplineSet
306.21 527.21 m 0
 420.64 527.21 482.93 431.351 482.93 263.99 c 0
 482.93 94.9199 420.569 -9.08008 302.069 -9.08008 c 0
 223.149 -9.08008 167.489 34.8604 128.279 96.4805 c 1
 128.279 -190.22 l 1
 124.279 -190.649 l 1
 124.279 730.28 l 1
 128.279 730.57 l 1
 128.279 422.8 l 1
 170.689 482.51 223.64 527.21 306.21 527.21 c 0
302 -5.22949 m 0
 418.15 -5.22949 478.862 97.5615 478.862 263.991 c 0
 478.862 428.491 419.292 523.352 306.222 523.352 c 0
 225.241 523.352 173.951 481.262 128.291 417.531 c 1
 128.291 102.011 l 1
 169.761 37.6904 224.28 -5.22949 302 -5.22949 c 0
EndSplineSet
Substitution2: "'smcp' Lowercase to Small Capitals lookup 24 subtable" thorn.sc
Substitution2: "'aalt' Access All Alternates lookup 0 subtable" thorn.sc
EndChar

StartChar: ydieresis
Encoding: 255 255 260
Width: 435
GlyphClass: 2
Flags: MW
HStem: -189.58 21G -0.00999451 21G 497.21 20G 678.36 14.71
VStem: 29.28 376.43
AnchorPoint: "Anchor-11" 0 0 basechar 0
AnchorPoint: "Anchor-10" 0 0 basechar 0
AnchorPoint: "Anchor-9" 217 599 basechar 0
AnchorPoint: "Anchor-8" 0 0 basechar 0
LayerCount: 2
Fore
SplineSet
141.07 693.07 m 0
 145.92 693.07 148.49 689.5 148.49 685.71 c 0
 148.49 681.93 145.92 678.359 141.07 678.359 c 0
 136.28 678.359 133.71 681.93 133.71 685.71 c 0
 133.71 689.5 136.28 693.07 141.07 693.07 c 0
291.78 693.07 m 0
 296.57 693.07 299.141 689.5 299.141 685.71 c 0
 299.141 681.93 296.57 678.359 291.78 678.359 c 0
 286.931 678.359 284.36 681.93 284.36 685.71 c 0
 284.36 689.5 286.931 693.07 291.78 693.07 c 0
227.351 -0.149414 m 2
 188.28 -112.359 165.352 -159.429 60.7812 -189.579 c 1
 60.501 -186.009 l 1
 162.641 -155.938 184.641 -111.148 223.501 -0.00878906 c 1
 220.781 -0.00878906 l 1
 29.2812 517.211 l 1
 33.501 517.211 l 1
 224.141 1.64062 l 1
 401.431 517.211 l 1
 405.711 517.211 l 1
 227.351 -0.149414 l 2
EndSplineSet
Substitution2: "'smcp' Lowercase to Small Capitals lookup 24 subtable" ydieresis.sc
Substitution2: "'aalt' Access All Alternates lookup 0 subtable" ydieresis.sc
EndChar

StartChar: Amacron
Encoding: 256 256 7
Width: 556
GlyphClass: 2
Flags: MW
HStem: 0 21G<34.2793 38.3496 34.2793 34.2793 517.64 517.64 517.64 521.85> 660.14 20G
VStem: 34.28 487.57
AnchorPoint: "Anchor-11" 0 0 basechar 0
AnchorPoint: "Anchor-10" 142 680 basechar 0
AnchorPoint: "Anchor-9" 278 680 basechar 0
AnchorPoint: "Anchor-8" 532 0 basechar 0
LayerCount: 2
Fore
SplineSet
373.93 814.57 m 1
 182.21 814.57 l 1
 182.21 818.5 l 1
 373.93 818.5 l 1
 373.93 814.57 l 1
442.27 212 m 1
 113.18 212 l 1
 38.3496 0 l 1
 34.2793 -0 l 1
 274.85 680.14 l 1
 279.42 680.14 l 1
 521.85 0 l 1
 517.64 0 l 1
 442.27 212 l 1
440.87 215.93 m 1
 277.141 676.5 l 1
 114.57 215.93 l 1
 440.87 215.93 l 1
EndSplineSet
Substitution2: "'c2sc' Capitals to Small Capitals lookup 23 subtable" amacron.sc
Substitution2: "'aalt' Access All Alternates lookup 0 subtable" amacron.sc
Position2: "'cpsp' Capital Spacing lookup 0 subtable" dx=5 dy=0 dh=10 dv=0
EndChar
StartChar: amacron
Encoding: 257 257 361
Width: 524
GlyphClass: 2
Flags: MW
HStem: -9 21G<171.5 262.5 447 447> -6 21G<449 449> 301 226<231 270 270 306.5 231 393> 523 170<231 305.5>
VStem: 70 379<-6 195.5>
AnchorPoint: "Anchor-14" 0 0 basechar 0
AnchorPoint: "Anchor-13" 0 0 basechar 0
AnchorPoint: "Anchor-12" 253 693 basechar 0
AnchorPoint: "Anchor-11" 457 -9 basechar 0
AnchorPoint: "Anchor-10" 250 0 basechar 0
LayerCount: 2
Back
Fore
SplineSet
347 693 m 1x58
 347 689 l 1
 155 689 l 1
 155 693 l 1
 347 693 l 1x58
397 110 m 2
 397 37 407 7 449 -6 c 1
 447 -9 l 1
 405 5 393 33 393 103 c 1
 358 31 305 -9 220 -9 c 0
 123 -9 70 56 70 145 c 0
 70 246 146 304 269 304 c 2
 393 304 l 1
 393 372 l 2
 393 465 357 523 254 523 c 0x98
 208 523 162 512 108 490 c 1
 106 493 l 1
 161 516 208 527 254 527 c 0x68
 359 527 397 469 397 372 c 2
 397 110 l 2
220 -5 m 0
 307 -5 357 36 393 110 c 1
 393 301 l 1
 270 301 l 2x68
 148 301 74 244 74 145 c 0
 74 58 126 -5 220 -5 c 0
EndSplineSet
Substitution2: "'smcp' Lowercase to Small Capitals lookup 27 subtable" amacron.sc
Substitution2: "'aalt' Access All Alternates lookup 0 subtable" amacron.sc
EndChar

StartChar: Abreve
Encoding: 258 258 3
Width: 556
GlyphClass: 2
Flags: MW
HStem: 0 21G<34.2773 38.3477 34.2773 34.2773 517.628 517.628 517.628 521.848> 660.14 20G
VStem: 34.28 487.57
AnchorPoint: "Anchor-11" 0 0 basechar 0
AnchorPoint: "Anchor-10" 142 680 basechar 0
AnchorPoint: "Anchor-9" 278 680 basechar 0
AnchorPoint: "Anchor-8" 532 0 basechar 0
LayerCount: 2
Fore
SplineSet
235.41 783.2 m 1
 207.23 794.03 190.17 815.109 182.43 835.64 c 1
 182.71 836.21 l 1
 191.29 812.78 209.47 793.351 235.41 783.2 c 1
373.709 835.64 m 1
 365.969 815.109 348.908 794.021 320.729 783.2 c 1
 346.669 793.351 364.849 812.78 373.429 836.21 c 1
 373.709 835.64 l 1
320.728 783.2 m 1
 308.237 778.311 293.938 775.57 278.058 775.57 c 0
 262.178 775.57 247.888 778.311 235.397 783.2 c 1
 247.518 778.54 261.697 775.78 278.067 775.78 c 0
 294.438 775.78 308.607 778.54 320.728 783.2 c 1
442.268 212 m 1
 113.178 212 l 1
 38.3477 0 l 1
 34.2773 -0 l 1
 274.848 680.14 l 1
 279.418 680.14 l 1
 521.848 0 l 1
 517.628 0 l 1
 442.268 212 l 1
440.868 215.93 m 1
 277.129 676.5 l 1
 114.559 215.93 l 1
 440.868 215.93 l 1
EndSplineSet
Substitution2: "'c2sc' Capitals to Small Capitals lookup 23 subtable" abreve.sc
Substitution2: "'aalt' Access All Alternates lookup 0 subtable" abreve.sc
Position2: "'cpsp' Capital Spacing lookup 0 subtable" dx=5 dy=0 dh=10 dv=0
EndChar

StartChar: abreve
Encoding: 259 259 136
Width: 524
GlyphClass: 2
Flags: MW
HStem: -9.09 21G -5.73 21G 300.56 226.64 523.34 161.25 684.59 53.55 718.15 20G
VStem: 69.63 379.22
AnchorPoint: "Anchor-11" 0 0 basechar 0
AnchorPoint: "Anchor-10" 0 0 basechar 0
AnchorPoint: "Anchor-9" 250 517 basechar 0
AnchorPoint: "Anchor-8" 457 -9 basechar 0
LayerCount: 2
Fore
SplineSet
191.2 684.59 m 1x4a
 172.72 697.43 160.869 716.449 154.779 737.569 c 1
 155.069 738.14 l 1
 161.689 714.87 174.01 696.68 191.2 684.59 c 1x4a
346.06 737.58 m 1x56
 339.979 716.45 328.129 697.431 309.648 684.601 c 1
 326.839 696.69 339.159 714.87 345.779 738.15 c 1
 346.06 737.58 l 1x56
309.639 684.59 m 1
 293.799 673.45 273.839 667.49 250.409 667.49 c 0
 226.989 667.49 207.029 673.45 191.189 684.59 c 1
 206.329 674.08 225.909 667.71 250.419 667.71 c 0
 274.919 667.71 294.509 674.08 309.639 684.59 c 1
396.479 109.99 m 2
 396.479 37.3398 406.778 7.2002 448.849 -5.72949 c 1
 447.419 -9.08984 l 1
 404.829 4.70996 392.929 33.2197 392.778 103.37 c 1
 357.559 30.5801 304.599 -9.08984 220.209 -9.08984 c 0
 123.059 -9.08984 69.6289 55.6299 69.6289 144.91 c 0
 69.6289 246.34 146.059 304.41 269.059 304.41 c 2
 392.488 304.41 l 1
 392.488 371.771 l 2
 392.488 465.341 356.769 523.341 254.129 523.341 c 0x96
 208.129 523.341 162.129 512.271 107.479 489.49 c 1
 105.908 493.2 l 1
 160.698 516.061 207.698 527.2 254.128 527.2 c 0x66
 358.698 527.2 396.479 468.561 396.479 371.99 c 2
 396.479 109.99 l 2
220.208 -5.22949 m 0
 306.728 -5.22949 356.718 35.9004 392.498 109.811 c 1
 392.498 300.561 l 1
 269.498 300.561 l 2x66
 148.278 300.561 73.7783 243.49 73.7783 144.92 c 0
 73.7783 57.4902 125.568 -5.22949 220.208 -5.22949 c 0
EndSplineSet
Substitution2: "'smcp' Lowercase to Small Capitals lookup 24 subtable" abreve.sc
Substitution2: "'aalt' Access All Alternates lookup 0 subtable" abreve.sc
EndChar

StartChar: Aogonek
Encoding: 260 260 8
Width: 556
GlyphClass: 2
Flags: MW
HStem: -194.85 21G 0 21G 660.15 20G
VStem: 34.29 487.57
AnchorPoint: "Anchor-11" 0 0 basechar 0
AnchorPoint: "Anchor-10" 142 680 basechar 0
AnchorPoint: "Anchor-9" 278 680 basechar 0
AnchorPoint: "Anchor-8" 532 0 basechar 0
LayerCount: 2
Fore
SplineSet
387.85 -120.07 m 0
 387.85 -167 418.35 -190.852 462.569 -190.852 c 0
 480.569 -190.852 493.64 -188.852 515.569 -182.991 c 1
 515.35 -186.991 l 1
 493.5 -192.852 481.28 -194.852 462.28 -194.852 c 0
 415.5 -194.852 383.64 -168.991 383.64 -120.142 c 0
 383.64 -58.2412 454.64 -22.1113 517.239 1.13867 c 1
 442.279 211.999 l 1
 113.189 211.999 l 1
 38.3594 -0.000976562 l 1
 34.2891 -0.000976562 l 1
 274.859 680.149 l 1
 279.43 680.149 l 1
 521.859 -0.000976562 l 1
 521.85 -0.000976562 l 1
 464.35 -21.1406 387.85 -57.5703 387.85 -120.07 c 0
440.88 215.938 m 1
 277.141 676.509 l 1
 114.57 215.938 l 1
 440.88 215.938 l 1
EndSplineSet
Substitution2: "'c2sc' Capitals to Small Capitals lookup 23 subtable" aogonek.sc
Substitution2: "'aalt' Access All Alternates lookup 0 subtable" aogonek.sc
Position2: "'cpsp' Capital Spacing lookup 0 subtable" dx=5 dy=0 dh=10 dv=0
EndChar

StartChar: aogonek
Encoding: 261 261 141
Width: 524
GlyphClass: 2
Flags: MW
HStem: -196.07 21G -9.07001 21G -7.71001 21G 300.57 226.65
VStem: 69.65 326.85
AnchorPoint: "Anchor-11" 0 0 basechar 0
AnchorPoint: "Anchor-10" 0 0 basechar 0
AnchorPoint: "Anchor-9" 250 517 basechar 0
AnchorPoint: "Anchor-8" 457 -9 basechar 0
LayerCount: 2
Fore
SplineSet
447.42 -9.07031 m 1xd8
 389.92 -30.21 313.43 -66.6396 313.43 -129.14 c 0
 313.43 -176.069 343.93 -199.93 388.149 -199.93 c 0
 406.149 -199.93 419.22 -197.93 441.149 -192.069 c 1
 440.93 -196.069 l 1
 419.08 -201.93 406.86 -203.93 387.86 -203.93 c 0
 341.08 -203.93 309.22 -178.069 309.22 -129.22 c 0
 309.22 -67.1201 380.689 -30.9502 443.439 -7.70996 c 1xb8
 404.1 6.58984 392.939 35.4795 392.789 103.38 c 1
 357.569 30.5898 304.619 -9.07031 220.219 -9.07031 c 0
 123.079 -9.07031 69.6494 55.6396 69.6494 144.93 c 0
 69.6494 246.359 146.079 304.43 269.079 304.43 c 2
 392.499 304.43 l 1
 392.499 371.79 l 2
 392.499 465.36 356.789 523.36 254.139 523.36 c 0
 208.139 523.36 162.139 512.29 107.499 489.5 c 1
 105.929 493.22 l 1
 160.709 516.069 207.709 527.22 254.139 527.22 c 0
 358.709 527.22 396.499 468.569 396.499 371.999 c 2
 396.499 109.999 l 2
 396.499 37.3594 406.779 7.20898 448.85 -5.7207 c 1
 447.42 -9.07031 l 1xd8
220.22 -5.20996 m 0
 306.729 -5.20996 356.729 35.9199 392.499 109.82 c 1
 392.499 300.57 l 1
 269.499 300.57 l 2
 148.289 300.57 73.7891 243.5 73.7891 144.93 c 0
 73.7891 57.5 125.569 -5.20996 220.22 -5.20996 c 0
EndSplineSet
Substitution2: "'smcp' Lowercase to Small Capitals lookup 24 subtable" aogonek.sc
Substitution2: "'aalt' Access All Alternates lookup 0 subtable" aogonek.sc
EndChar

StartChar: Cacute
Encoding: 262 262 15
Width: 530
GlyphClass: 2
Flags: MW
HStem: -9.07001 21G 670.15 20G
VStem: 84.29 419.71
AnchorPoint: "Anchor-11" 341 0 basechar 0
AnchorPoint: "Anchor-10" 0 0 basechar 0
AnchorPoint: "Anchor-9" 343 680 basechar 0
AnchorPoint: "Anchor-8" 0 0 basechar 0
LayerCount: 2
Fore
SplineSet
433.78 839.78 m 1
 266.5 770.291 l 1
 264.93 773.641 l 1
 431.71 843.931 l 1
 433.78 839.78 l 1
342.21 690.151 m 0
 416.28 690.151 459.429 664.362 495.068 633.002 c 1
 492.929 629.572 l 1
 457.068 660.933 414.568 686.213 342.358 686.213 c 0
 194.568 686.213 88.4287 574.503 88.4287 339.143 c 0
 88.4287 115.793 191.568 -5.06738 341.139 -5.06738 c 0
 421.709 -5.06738 469.069 26.3623 501.709 53.8623 c 1
 503.999 50.3623 l 1
 471.139 22.582 422.789 -9.06836 341.069 -9.06836 c 0
 188.14 -9.06836 84.29 113.861 84.29 339.151 c 0
 84.29 577.001 191.36 690.151 342.21 690.151 c 0
EndSplineSet
Substitution2: "'c2sc' Capitals to Small Capitals lookup 23 subtable" cacute.sc
Substitution2: "'locl' Localized Forms in Latin lookup 7 subtable" Cacute.loclPLK
AlternateSubs2: "'aalt' Access All Alternates lookup 1 subtable" Cacute.loclPLK cacute.sc
Position2: "'cpsp' Capital Spacing lookup 0 subtable" dx=5 dy=0 dh=10 dv=0
EndChar

StartChar: Ccircumflex
Encoding: 264 264 18
Width: 530
GlyphClass: 2
Flags: MW
HStem: -9.07001 21G 670.14 20G
VStem: 84.29 419.71
AnchorPoint: "Anchor-11" 341 0 basechar 0
AnchorPoint: "Anchor-10" 0 0 basechar 0
AnchorPoint: "Anchor-9" 343 680 basechar 0
AnchorPoint: "Anchor-8" 0 0 basechar 0
LayerCount: 2
Fore
SplineSet
342 847.71 m 1
 235.139 769.64 l 1
 232.209 771.859 l 1
 340.499 851.93 l 1
 343.499 851.93 l 1
 453.569 771.859 l 1
 450.64 769.64 l 1
 342 847.71 l 1
342.209 690.14 m 0
 416.279 690.14 459.428 664.349 495.067 632.999 c 1
 492.928 629.569 l 1
 457.067 660.919 414.567 686.209 342.357 686.209 c 0
 194.567 686.209 88.4277 574.489 88.4277 339.14 c 0
 88.4277 115.779 191.567 -5.07031 341.138 -5.07031 c 0
 421.708 -5.07031 469.068 26.3594 501.708 53.8594 c 1
 503.998 50.3594 l 1
 471.138 22.5693 422.788 -9.07031 341.068 -9.07031 c 0
 188.139 -9.07031 84.2891 113.859 84.2891 339.14 c 0
 84.2891 577 191.359 690.14 342.209 690.14 c 0
EndSplineSet
Substitution2: "'c2sc' Capitals to Small Capitals lookup 23 subtable" ccircumflex.sc
Substitution2: "'aalt' Access All Alternates lookup 0 subtable" ccircumflex.sc
Position2: "'cpsp' Capital Spacing lookup 0 subtable" dx=5 dy=0 dh=10 dv=0
EndChar

StartChar: ccircumflex
Encoding: 265 265 151
Width: 469
GlyphClass: 2
Flags: MW
HStem: -9.08 21G 507.21 20G
VStem: 79.28 335.65
AnchorPoint: "Anchor-11" 285 -1 basechar 0
AnchorPoint: "Anchor-10" 0 0 basechar 0
AnchorPoint: "Anchor-9" 270 517 basechar 0
AnchorPoint: "Anchor-8" 0 0 basechar 0
LayerCount: 2
Fore
SplineSet
162.28 661.57 m 1
 272.359 746.71 l 1
 275.359 746.71 l 1
 383.64 661.57 l 1
 380.71 659.351 l 1
 273.86 742.501 l 1
 165.21 659.351 l 1
 162.28 661.57 l 1
282.14 527.21 m 0
 335.35 527.21 375.36 510.351 410.79 477.211 c 1
 407.72 474.781 l 1
 372.939 507.421 333.22 523.351 282.22 523.351 c 0
 159.58 523.351 83.4297 423.641 83.4297 256.07 c 0
 83.4297 88.71 166.93 -5.21973 280.29 -5.21973 c 0
 338.79 -5.21973 378.79 15.5703 411.86 46.5 c 1
 414.931 44 l 1
 381.641 12.8496 341.141 -9.08008 280.431 -9.08008 c 0
 164.431 -9.08008 79.2803 86.0703 79.2803 256.07 c 0
 79.2803 426 156 527.21 282.14 527.21 c 0
EndSplineSet
Substitution2: "'smcp' Lowercase to Small Capitals lookup 24 subtable" ccircumflex.sc
Substitution2: "'aalt' Access All Alternates lookup 0 subtable" ccircumflex.sc
EndChar

StartChar: Cdotaccent
Encoding: 266 266 19
Width: 530
GlyphClass: 2
Flags: MW
HStem: -9.07001 21G 670.14 20G 819.06 14.72
VStem: 84.29 419.71
AnchorPoint: "Anchor-11" 341 0 basechar 0
AnchorPoint: "Anchor-10" 0 0 basechar 0
AnchorPoint: "Anchor-9" 343 680 basechar 0
AnchorPoint: "Anchor-8" 0 0 basechar 0
LayerCount: 2
Fore
SplineSet
342.93 833.78 m 0
 347.859 833.78 350.359 830.141 350.359 826.421 c 0
 350.359 822.711 347.859 819.061 342.93 819.061 c 0
 338.069 819.061 335.499 822.711 335.499 826.421 c 0
 335.499 830.141 338.069 833.78 342.93 833.78 c 0
342.21 690.141 m 0
 416.28 690.141 459.429 664.35 495.068 633 c 1
 492.929 629.57 l 1
 457.068 660.92 414.568 686.21 342.358 686.21 c 0
 194.568 686.21 88.4287 574.49 88.4287 339.141 c 0
 88.4287 115.78 191.568 -5.06934 341.139 -5.06934 c 0
 421.709 -5.06934 469.069 26.3604 501.709 53.8604 c 1
 503.999 50.3604 l 1
 471.139 22.5703 422.789 -9.06934 341.069 -9.06934 c 0
 188.14 -9.06934 84.29 113.86 84.29 339.141 c 0
 84.29 577.001 191.36 690.141 342.21 690.141 c 0
EndSplineSet
Substitution2: "'c2sc' Capitals to Small Capitals lookup 23 subtable" cdotaccent.sc
Substitution2: "'aalt' Access All Alternates lookup 0 subtable" cdotaccent.sc
Position2: "'cpsp' Capital Spacing lookup 0 subtable" dx=5 dy=0 dh=10 dv=0
EndChar

StartChar: cdotaccent
Encoding: 267 267 152
Width: 469
GlyphClass: 2
Flags: MW
HStem: -9.08 21G 507.21 20G 693.06 14.72
VStem: 79.28 335.65
AnchorPoint: "Anchor-11" 285 -1 basechar 0
AnchorPoint: "Anchor-10" 0 0 basechar 0
AnchorPoint: "Anchor-9" 270 517 basechar 0
AnchorPoint: "Anchor-8" 0 0 basechar 0
LayerCount: 2
Fore
SplineSet
269.93 707.78 m 0
 274.859 707.78 277.359 704.141 277.359 700.421 c 0
 277.359 696.711 274.859 693.061 269.93 693.061 c 0
 265.069 693.061 262.499 696.711 262.499 700.421 c 0
 262.499 704.141 265.069 707.78 269.93 707.78 c 0
282.14 527.21 m 0
 335.35 527.21 375.36 510.351 410.79 477.211 c 1
 407.72 474.781 l 1
 372.939 507.421 333.22 523.351 282.22 523.351 c 0
 159.58 523.351 83.4297 423.641 83.4297 256.07 c 0
 83.4297 88.71 166.93 -5.21973 280.29 -5.21973 c 0
 338.79 -5.21973 378.79 15.5703 411.86 46.5 c 1
 414.931 44 l 1
 381.641 12.8496 341.141 -9.08008 280.431 -9.08008 c 0
 164.431 -9.08008 79.2803 86.0703 79.2803 256.07 c 0
 79.2803 426 156 527.21 282.14 527.21 c 0
EndSplineSet
Substitution2: "'smcp' Lowercase to Small Capitals lookup 24 subtable" cdotaccent.sc
Substitution2: "'aalt' Access All Alternates lookup 0 subtable" cdotaccent.sc
EndChar

StartChar: Ccaron
Encoding: 268 268 16
Width: 530
GlyphClass: 2
Flags: MW
HStem: -9.07001 21G 670.14 20G
VStem: 84.28 419.71
AnchorPoint: "Anchor-11" 341 0 basechar 0
AnchorPoint: "Anchor-10" 0 0 basechar 0
AnchorPoint: "Anchor-9" 343 680 basechar 0
AnchorPoint: "Anchor-8" 0 0 basechar 0
LayerCount: 2
Fore
SplineSet
456.71 844.57 m 1
 346.641 764.5 l 1
 343.641 764.5 l 1
 235.351 844.57 l 1
 238.28 846.78 l 1
 345.141 768.71 l 1
 453.78 846.78 l 1
 456.71 844.57 l 1
342.211 690.14 m 0
 416.281 690.14 459.419 664.349 495.069 632.999 c 1
 492.919 629.569 l 1
 457.069 660.919 414.569 686.209 342.35 686.209 c 0
 194.569 686.209 88.4189 574.489 88.4189 339.14 c 0
 88.4189 115.779 191.569 -5.07031 341.14 -5.07031 c 0
 421.71 -5.07031 469.06 26.3594 501.71 53.8594 c 1
 503.99 50.3594 l 1
 471.141 22.5693 422.78 -9.07031 341.07 -9.07031 c 0
 188.141 -9.07031 84.2803 113.859 84.2803 339.14 c 0
 84.2803 577 191.351 690.14 342.211 690.14 c 0
EndSplineSet
Substitution2: "'c2sc' Capitals to Small Capitals lookup 23 subtable" ccaron.sc
Substitution2: "'aalt' Access All Alternates lookup 0 subtable" ccaron.sc
Position2: "'cpsp' Capital Spacing lookup 0 subtable" dx=5 dy=0 dh=10 dv=0
EndChar

StartChar: ccaron
Encoding: 269 269 149
Width: 469
GlyphClass: 2
Flags: MW
HStem: -9.08 21G 507.21 20G 712.64 20G 714.85 20G
VStem: 79.28 335.64
AnchorPoint: "Anchor-11" 285 -1 basechar 0
AnchorPoint: "Anchor-10" 0 0 basechar 0
AnchorPoint: "Anchor-9" 270 517 basechar 0
AnchorPoint: "Anchor-8" 0 0 basechar 0
LayerCount: 2
Fore
SplineSet
383.71 732.64 m 1xe8
 273.641 647.489 l 1
 270.641 647.489 l 1xe8
 162.351 732.64 l 1
 165.28 734.85 l 1
 272.141 651.71 l 1xd8
 380.78 734.85 l 1
 383.71 732.64 l 1xe8
282.141 527.209 m 0
 335.36 527.209 375.36 510.349 410.79 477.198 c 1
 407.72 474.769 l 1
 372.93 507.419 333.22 523.349 282.22 523.349 c 0
 159.569 523.349 83.4297 423.629 83.4297 256.059 c 0
 83.4297 88.709 166.93 -5.2207 280.279 -5.2207 c 0
 338.779 -5.2207 378.779 15.5596 411.85 46.4893 c 1
 414.92 43.9893 l 1
 381.64 12.8496 341.14 -9.08008 280.42 -9.08008 c 0
 164.42 -9.08008 79.2803 86.0596 79.2803 256.06 c 0
 79.2803 425.989 155.99 527.209 282.141 527.209 c 0
EndSplineSet
Substitution2: "'smcp' Lowercase to Small Capitals lookup 24 subtable" ccaron.sc
Substitution2: "'aalt' Access All Alternates lookup 0 subtable" ccaron.sc
EndChar

StartChar: Dcaron
Encoding: 270 270 22
Width: 614
GlyphClass: 2
Flags: MW
HStem: 0 21G<129.28 241.78 129.28 129.28> 660.14 20G
VStem: 129.28 400.07
AnchorPoint: "Anchor-11" 0 0 basechar 0
AnchorPoint: "Anchor-10" 0 0 basechar 0
AnchorPoint: "Anchor-9" 290 680 basechar 0
AnchorPoint: "Anchor-8" 0 0 basechar 0
LayerCount: 2
Fore
SplineSet
403.35 844.57 m 1
 293.28 764.5 l 1
 290.28 764.5 l 1
 181.99 844.57 l 1
 184.92 846.78 l 1
 291.78 768.71 l 1
 400.42 846.78 l 1
 403.35 844.57 l 1
235.061 680.14 m 2
 379.211 680.14 529.35 626.07 529.35 348 c 0
 529.35 68.4297 380.42 0 241.78 0 c 2
 129.28 -0 l 1
 129.28 680.14 l 1
 235.061 680.14 l 2
133.35 676.211 m 1
 133.339 3.92188 l 1
 241.839 3.92188 l 2
 379.989 3.92188 525.199 72.1416 525.199 347.991 c 0
 525.199 623.281 376.85 676.211 234.85 676.211 c 2
 133.35 676.211 l 1
EndSplineSet
Substitution2: "'c2sc' Capitals to Small Capitals lookup 23 subtable" dcaron.sc
Substitution2: "'aalt' Access All Alternates lookup 0 subtable" dcaron.sc
Position2: "'cpsp' Capital Spacing lookup 0 subtable" dx=5 dy=0 dh=10 dv=0
EndChar
StartChar: dcaron
Encoding: 271 271 394
Width: 572
GlyphClass: 2
Flags: MW
HStem: -9 21G<216 317.5> 0 21G<444 448 444 444> 507 20G<218.5 323.5> 710 20G<448 448 549 553 553 553> 711 20G<444 444>
VStem: 444 89<592 592 592 731>
AnchorPoint: "Anchor-14" 289 259 basechar 0
AnchorPoint: "Anchor-13" 497 728 basechar 0
AnchorPoint: "Anchor-12" 280 728 basechar 0
AnchorPoint: "Anchor-11" 0 0 basechar 0
AnchorPoint: "Anchor-10" 289 0 basechar 0
LayerCount: 2
Back
Fore
SplineSet
444 426 m 1x6c
 444 731 l 1
 448 730 l 1
 448 0 l 1
 444 0 l 1x6c
 444 99 l 1
 410 39 362 -9 273 -9 c 0xac
 159 -9 84 87 84 257 c 0
 84 417 156 527 281 527 c 0
 366 527 419 475 444 426 c 1x6c
549 730 m 1x74
 553 730 l 1
 533 592 l 1
 530 592 l 1
 549 730 l 1x74
273 -5 m 0
 362 -5 409 42 444 106 c 1
 444 421 l 1
 417 472 365 523 281 523 c 0
 159 523 88 415 88 257 c 0
 88 90 161 -5 273 -5 c 0
EndSplineSet
Substitution2: "'smcp' Lowercase to Small Capitals lookup 27 subtable" dcaron.sc
Substitution2: "'aalt' Access All Alternates lookup 0 subtable" dcaron.sc
EndChar

StartChar: dcroat
Encoding: 273 273 156
Width: 577
GlyphClass: 2
Flags: MW
HStem: -9.07001 21G 0 21G 507.21 20G<218.245 323.52> 523.36 117.49 637.07 93.5
VStem: 264.71 183.22 443.93 79
LayerCount: 2
Fore
SplineSet
522.93 640.85 m 1x52
 522.929 637.068 l 1x52
 447.929 637.068 l 1
 447.929 -0.00195312 l 1
 444.209 -0.00195312 l 1x6c
 443.929 99.1982 l 1xac
 409.599 38.8584 362.499 -9.07129 272.639 -9.07129 c 0
 158.499 -9.07129 84.2793 87.209 84.2793 257.069 c 0
 84.2793 417.14 155.64 527.21 280.85 527.21 c 0
 366.189 527.21 419.17 474.83 443.93 426.35 c 1
 443.93 637.069 l 1xaa
 264.859 637.069 l 1
 264.569 640.85 l 1x54
 443.93 640.85 l 1x52
 443.93 730.569 l 1
 447.93 730.279 l 1x6c
 447.93 640.85 l 1x54
 522.93 640.85 l 1x52
272.709 -5.21191 m 0
 362.039 -5.21191 408.928 42.3174 443.928 106.138 c 1
 443.928 420.628 l 1
 417.188 471.678 364.978 523.357 280.928 523.357 c 0
 159.428 523.357 88.2881 414.787 88.3584 257.067 c 0
 88.4287 90.2178 160.709 -5.21191 272.709 -5.21191 c 0
EndSplineSet
Substitution2: "'smcp' Lowercase to Small Capitals lookup 24 subtable" dcroat.sc
Substitution2: "'aalt' Access All Alternates lookup 0 subtable" dcroat.sc
EndChar
StartChar: Emacron
Encoding: 274 274 85
Width: 495
GlyphClass: 2
Flags: MW
HStem: 0 21G<129 446 129 129> 359 321<133 393 133 133> 676 143<188 380 188 436 133 380>
VStem: 129 264<359 363 359 680> 129 317<0 4 0 680>
AnchorPoint: "Anchor-14" 0 0 basechar 0
AnchorPoint: "Anchor-13" 0 0 basechar 0
AnchorPoint: "Anchor-12" 286 819 basechar 0
AnchorPoint: "Anchor-11" 426 0 basechar 0
AnchorPoint: "Anchor-10" 284 0 basechar 0
LayerCount: 2
Back
Fore
SplineSet
380 815 m 1xa8
 188 815 l 1
 188 819 l 1
 380 819 l 1
 380 815 l 1xa8
436 680 m 1
 436 676 l 1xa8
 133 676 l 1xb0
 133 363 l 1
 393 363 l 1
 393 359 l 1
 133 359 l 1
 133 4 l 1
 446 4 l 1
 446 0 l 1
 129 0 l 1
 129 680 l 1xd0
 436 680 l 1
EndSplineSet
Substitution2: "'c2sc' Capitals to Small Capitals lookup 26 subtable" emacron.sc
Substitution2: "'aalt' Access All Alternates lookup 0 subtable" emacron.sc
Position2: "'cpsp' Capital Spacing lookup 0 subtable" dx=5 dy=0 dh=10 dv=0
EndChar
StartChar: emacron
Encoding: 275 275 428
Width: 528
GlyphClass: 2
Flags: MW
HStem: -9 264<216.5 309.5> 251 276<216 337.5 216 453 83 337.5> 523 170<217.5 336.5>
VStem: 79 375<281 339.5>
AnchorPoint: "Anchor-14" 0 0 basechar 0
AnchorPoint: "Anchor-13" 0 0 basechar 0
AnchorPoint: "Anchor-12" 278 693 basechar 0
AnchorPoint: "Anchor-11" 365 4 basechar 0
AnchorPoint: "Anchor-10" 277 0 basechar 0
LayerCount: 2
Back
Fore
SplineSet
372 693 m 1x30
 372 689 l 1
 180 689 l 1
 180 693 l 1
 372 693 l 1x30
454 288 m 0
 454 274 454 265 453 251 c 1
 83 251 l 1x50
 84 86 161 -5 276 -5 c 0
 341 -5 384 16 429 54 c 1
 431 50 l 1
 386 13 343 -9 276 -9 c 0x90
 157 -9 79 85 79 253 c 0
 79 426 156 527 276 527 c 0x50
 399 527 454 425 454 288 c 0
449 255 m 1xb0
 450 268 450 275 450 288 c 0
 450 422 397 523 276 523 c 0
 159 523 84 425 83 255 c 1
 449 255 l 1xb0
EndSplineSet
Substitution2: "'smcp' Lowercase to Small Capitals lookup 27 subtable" emacron.sc
Substitution2: "'aalt' Access All Alternates lookup 0 subtable" emacron.sc
EndChar

StartChar: Ebreve
Encoding: 276 276 26
Width: 495
GlyphClass: 2
Flags: MW
HStem: 0 21G 358.93 321.21 676.21 106.99
VStem: 129.28 263.5 129.28 316.28
AnchorPoint: "Anchor-11" 284 0 basechar 0
AnchorPoint: "Anchor-10" 81 680 basechar 0
AnchorPoint: "Anchor-9" 284 680 basechar 0
AnchorPoint: "Anchor-8" 426 0 basechar 0
LayerCount: 2
Fore
SplineSet
241.62 783.2 m 1xa8
 213.45 794.021 196.381 815.119 188.641 835.649 c 1
 188.931 836.22 l 1
 197.511 812.79 215.69 793.36 241.62 783.2 c 1xa8
379.931 835.649 m 1
 372.19 815.119 355.121 794.03 326.951 783.2 c 1
 352.881 793.36 371.061 812.79 379.641 836.22 c 1
 379.931 835.649 l 1
326.951 783.2 m 1
 314.461 778.311 300.161 775.57 284.281 775.57 c 0
 268.401 775.57 254.111 778.311 241.621 783.2 c 1
 253.741 778.55 267.911 775.79 284.281 775.79 c 0
 300.651 775.79 314.831 778.55 326.951 783.2 c 1
445.562 3.92969 m 1
 445.562 -0.000976562 l 1xa8
 129.281 -0.000976562 l 1
 129.281 680.139 l 1xd0
 435.852 680.139 l 1
 435.562 676.209 l 1
 133.352 676.209 l 1xb0
 133.352 362.779 l 1
 392.781 362.779 l 1
 392.781 358.93 l 1xd0
 133.352 358.93 l 1xc8
 133.352 3.92969 l 1
 445.562 3.92969 l 1
EndSplineSet
Substitution2: "'c2sc' Capitals to Small Capitals lookup 23 subtable" ebreve.sc
Substitution2: "'aalt' Access All Alternates lookup 0 subtable" ebreve.sc
Position2: "'cpsp' Capital Spacing lookup 0 subtable" dx=5 dy=0 dh=10 dv=0
EndChar
StartChar: ebreve
Encoding: 277 277 412
Width: 528
GlyphClass: 2
Flags: MW
HStem: -9 264<216.5 309.5> 251 276<216 337.5 216 453 83 337.5> 523 147<252 300 252 336.5> 719 20G<182 182 370 370>
VStem: 79 375<281 339.5>
AnchorPoint: "Anchor-14" 0 0 basechar 0
AnchorPoint: "Anchor-13" 0 0 basechar 0
AnchorPoint: "Anchor-12" 278 739 basechar 0
AnchorPoint: "Anchor-11" 365 4 basechar 0
AnchorPoint: "Anchor-10" 277 0 basechar 0
LayerCount: 2
Back
Fore
SplineSet
276 666 m 0x58
 221 666 190 698 179 737 c 1
 182 739 l 1
 195 695 228 670 276 670 c 0x38
 324 670 357 695 370 739 c 1
 373 737 l 1
 363 698 332 666 276 666 c 0x58
454 288 m 0
 454 274 454 265 453 251 c 1
 83 251 l 1x58
 84 86 161 -5 276 -5 c 0
 341 -5 384 16 429 54 c 1
 431 50 l 1
 386 13 343 -9 276 -9 c 0x98
 157 -9 79 85 79 253 c 0
 79 426 156 527 276 527 c 0
 399 527 454 425 454 288 c 0
449 255 m 1xb8
 450 268 450 275 450 288 c 0
 450 422 397 523 276 523 c 0
 159 523 84 425 83 255 c 1
 449 255 l 1xb8
EndSplineSet
Substitution2: "'smcp' Lowercase to Small Capitals lookup 27 subtable" ebreve.sc
Substitution2: "'aalt' Access All Alternates lookup 0 subtable" ebreve.sc
EndChar

StartChar: Edotaccent
Encoding: 278 278 30
Width: 495
GlyphClass: 2
Flags: MW
HStem: 0 21G<129.28 445.57 129.28 129.28> 358.93 321.21 819.06 14.72
VStem: 129.28 263.5 129.28 316.29
AnchorPoint: "Anchor-11" 284 0 basechar 0
AnchorPoint: "Anchor-10" 81 680 basechar 0
AnchorPoint: "Anchor-9" 284 680 basechar 0
AnchorPoint: "Anchor-8" 426 0 basechar 0
LayerCount: 2
Fore
SplineSet
284.28 833.78 m 0xe8
 289.21 833.78 291.71 830.141 291.71 826.421 c 0
 291.71 822.711 289.21 819.061 284.28 819.061 c 0
 279.431 819.061 276.86 822.711 276.86 826.421 c 0
 276.86 830.141 279.431 833.78 284.28 833.78 c 0xe8
435.57 676.21 m 1
 133.351 676.209 l 1
 133.351 362.779 l 1
 392.78 362.779 l 1
 392.78 358.93 l 1
 133.351 358.93 l 1
 133.351 3.92969 l 1
 445.57 3.92969 l 1
 445.57 0 l 1
 129.28 -0 l 1
 129.28 680.14 l 1xf0
 435.851 680.14 l 1
 435.57 676.21 l 1
EndSplineSet
Substitution2: "'c2sc' Capitals to Small Capitals lookup 23 subtable" edotaccent.sc
Substitution2: "'aalt' Access All Alternates lookup 0 subtable" edotaccent.sc
Position2: "'cpsp' Capital Spacing lookup 0 subtable" dx=5 dy=0 dh=10 dv=0
EndChar

StartChar: edotaccent
Encoding: 279 279 163
Width: 528
GlyphClass: 2
Flags: MW
HStem: -9.08 264.22 251.43 275.78 693.07 14.72
VStem: 79.28 374.5
AnchorPoint: "Anchor-11" 277 0 basechar 0
AnchorPoint: "Anchor-10" 0 0 basechar 0
AnchorPoint: "Anchor-9" 276 517 basechar 0
AnchorPoint: "Anchor-8" 365 4 basechar 0
LayerCount: 2
Fore
SplineSet
275.85 693.07 m 0x70
 271 693.07 268.43 696.71 268.43 700.43 c 0
 268.43 704.14 271 707.79 275.85 707.79 c 0
 280.779 707.79 283.279 704.14 283.279 700.43 c 0
 283.279 696.71 280.779 693.07 275.85 693.07 c 0x70
453.779 287.641 m 0
 453.779 273.57 453.709 265.07 452.709 251.431 c 1
 83.3594 251.431 l 1x70
 84.1191 85.7002 160.839 -5.21973 276.419 -5.21973 c 0
 341.139 -5.21973 383.778 15.71 428.778 53.5703 c 1
 430.929 50.1406 l 1
 385.858 12.9902 343.429 -9.08008 276.429 -9.08008 c 0xb0
 156.709 -9.08008 79.2793 85.21 79.2793 253.21 c 0
 79.2793 425.99 155.569 527.21 275.64 527.21 c 0
 399.14 527.21 453.779 424.49 453.779 287.641 c 0
448.85 255.141 m 1xb0
 449.779 267.641 449.78 275.35 449.78 288.42 c 0
 449.78 421.57 396.99 523.351 275.78 523.351 c 0
 159.08 523.351 83.9199 425.03 83.3496 255.141 c 1
 448.85 255.141 l 1xb0
EndSplineSet
Substitution2: "'smcp' Lowercase to Small Capitals lookup 24 subtable" edotaccent.sc
Substitution2: "'aalt' Access All Alternates lookup 0 subtable" edotaccent.sc
EndChar

StartChar: Eogonek
Encoding: 280 280 33
Width: 495
GlyphClass: 2
Flags: MW
HStem: -194.86 198.79 0 21G<415.92 415.92 415.92 445.57> 358.93 321.21
VStem: 129.29 152.64
AnchorPoint: "Anchor-11" 284 0 basechar 0
AnchorPoint: "Anchor-10" 81 680 basechar 0
AnchorPoint: "Anchor-9" 284 680 basechar 0
AnchorPoint: "Anchor-8" 426 0 basechar 0
LayerCount: 2
Fore
SplineSet
415.92 0 m 1x70
 358.42 -21.1396 281.93 -57.5713 281.93 -120.071 c 0
 281.93 -167.001 312.43 -190.861 356.64 -190.861 c 0
 374.64 -190.861 387.71 -188.861 409.64 -183.001 c 1
 409.43 -187.001 l 1
 387.569 -192.861 375.359 -194.861 356.359 -194.861 c 0
 309.569 -194.861 277.72 -169.001 277.72 -120.151 c 0xb0
 277.72 -59.251 346.43 -23.3008 408.26 -0.000976562 c 1
 129.29 -0.000976562 l 1x70
 129.29 680.139 l 1
 435.86 680.139 l 1
 435.57 676.209 l 1
 133.36 676.209 l 1
 133.36 362.779 l 1
 392.79 362.779 l 1
 392.79 358.93 l 1
 133.36 358.93 l 1
 133.36 3.92969 l 1xb0
 445.57 3.92969 l 1
 445.57 0 l 1
 415.92 0 l 1x70
EndSplineSet
Substitution2: "'c2sc' Capitals to Small Capitals lookup 23 subtable" eogonek.sc
Substitution2: "'aalt' Access All Alternates lookup 0 subtable" eogonek.sc
Position2: "'cpsp' Capital Spacing lookup 0 subtable" dx=5 dy=0 dh=10 dv=0
EndChar
StartChar: eogonek
Encoding: 281 281 429
Width: 528
GlyphClass: 2
Flags: MW
HStem: -191 186<272.5 305.5> -9 264<216.5 285.5> -4 21G 251 276<216 337.5 216 453 83 337.5>
VStem: 79 375<281 339.5>
AnchorPoint: "Anchor-14" 0 0 basechar 0
AnchorPoint: "Anchor-13" 0 0 basechar 0
AnchorPoint: "Anchor-12" 276 517 basechar 0
AnchorPoint: "Anchor-11" 365 4 basechar 0
AnchorPoint: "Anchor-10" 277 0 basechar 0
LayerCount: 2
Back
Fore
SplineSet
454 288 m 0x38
 454 274 454 265 453 251 c 1
 83 251 l 1
 84 86 161 -5 276 -5 c 0
 341 -5 384 16 429 54 c 1
 431 50 l 1
 405 29 380 12 350 2 c 0
 294 -19 221 -56 221 -116 c 0
 221 -163 252 -187 296 -187 c 0
 314 -187 327 -185 349 -179 c 1
 349 -183 l 1
 327 -189 315 -191 296 -191 c 0
 249 -191 217 -165 217 -116 c 0x98
 217 -61 272 -27 328 -4 c 1
 313 -7 295 -9 276 -9 c 0x48
 157 -9 79 85 79 253 c 0
 79 426 156 527 276 527 c 0
 399 527 454 425 454 288 c 0x38
449 255 m 1x48
 450 268 450 275 450 288 c 0
 450 422 397 523 276 523 c 0
 159 523 84 425 83 255 c 1
 449 255 l 1x48
EndSplineSet
Substitution2: "'smcp' Lowercase to Small Capitals lookup 27 subtable" eogonek.sc
Substitution2: "'aalt' Access All Alternates lookup 0 subtable" eogonek.sc
EndChar
StartChar: Ecaron
Encoding: 282 282 70
Width: 495
GlyphClass: 2
Flags: MW
HStem: 0 21G<129 446 129 129> 359 321<133 393 133 133> 676 93<284 284 284 436>
VStem: 129 264<359 363 359 680> 129 317<0 4 0 680>
AnchorPoint: "Anchor-14" 0 0 basechar 0
AnchorPoint: "Anchor-13" 0 0 basechar 0
AnchorPoint: "Anchor-12" 287 847 basechar 0
AnchorPoint: "Anchor-11" 426 0 basechar 0
AnchorPoint: "Anchor-10" 284 0 basechar 0
LayerCount: 2
Back
Fore
SplineSet
392 847 m 1xa8
 395 845 l 1
 285 765 l 1
 282 765 l 1
 174 845 l 1
 177 847 l 1
 284 769 l 1
 392 847 l 1xa8
436 680 m 1
 436 676 l 1xa8
 133 676 l 1xb0
 133 363 l 1
 393 363 l 1
 393 359 l 1
 133 359 l 1
 133 4 l 1
 446 4 l 1
 446 0 l 1
 129 0 l 1
 129 680 l 1xd0
 436 680 l 1
EndSplineSet
Substitution2: "'c2sc' Capitals to Small Capitals lookup 26 subtable" ecaron.sc
Substitution2: "'aalt' Access All Alternates lookup 0 subtable" ecaron.sc
Position2: "'cpsp' Capital Spacing lookup 0 subtable" dx=5 dy=0 dh=10 dv=0
EndChar

StartChar: ecaron
Encoding: 283 283 160
Width: 528
GlyphClass: 2
Flags: MW
HStem: -9.07001 264.22 251.43 275.78 712.64 20G 714.86 20G
VStem: 79.28 374.5
AnchorPoint: "Anchor-11" 277 0 basechar 0
AnchorPoint: "Anchor-10" 0 0 basechar 0
AnchorPoint: "Anchor-9" 276 517 basechar 0
AnchorPoint: "Anchor-8" 365 4 basechar 0
LayerCount: 2
Fore
SplineSet
276.57 647.5 m 1x68
 168.281 732.64 l 1
 171.211 734.859 l 1
 278.061 651.709 l 1x58
 386.711 734.859 l 1
 389.641 732.64 l 1
 279.57 647.5 l 1
 276.57 647.5 l 1x68
453.781 287.64 m 0
 453.781 273.569 453.7 265.08 452.7 251.43 c 1
 83.3506 251.43 l 1x58
 84.1104 85.71 160.83 -5.20996 276.42 -5.20996 c 0
 341.13 -5.20996 383.78 15.7197 428.78 53.5693 c 1
 430.92 50.1396 l 1
 385.85 13 343.42 -9.07031 276.42 -9.07031 c 0x98
 156.71 -9.07031 79.2803 85.21 79.2803 253.21 c 0
 79.2803 426 155.561 527.21 275.631 527.21 c 0
 399.131 527.21 453.781 424.5 453.781 287.64 c 0
448.841 255.15 m 1x98
 449.771 267.65 449.771 275.36 449.771 288.431 c 0
 449.771 421.57 396.99 523.36 275.771 523.36 c 0
 159.07 523.36 83.9102 425.03 83.3506 255.15 c 1
 448.841 255.15 l 1x98
EndSplineSet
Substitution2: "'smcp' Lowercase to Small Capitals lookup 24 subtable" ecaron.sc
Substitution2: "'aalt' Access All Alternates lookup 0 subtable" ecaron.sc
EndChar

StartChar: Gcircumflex
Encoding: 284 284 37
Width: 600
GlyphClass: 2
Flags: MW
HStem: -9.07001 21G 670.14 20G
VStem: 365.72 154.64
AnchorPoint: "Anchor-11" 338 0 basechar 0
AnchorPoint: "Anchor-10" 0 0 basechar 0
AnchorPoint: "Anchor-9" 338 680 basechar 0
AnchorPoint: "Anchor-8" 0 0 basechar 0
LayerCount: 2
Fore
SplineSet
336.93 847.71 m 1
 230.068 769.64 l 1
 227.139 771.859 l 1
 335.429 851.93 l 1
 338.429 851.93 l 1
 448.499 771.859 l 1
 445.569 769.64 l 1
 336.93 847.71 l 1
343.358 690.14 m 0
 406.219 690.14 453.298 671.069 501.647 634.709 c 1
 499.367 631.359 l 1
 452.297 667.43 404.507 686.21 343.367 686.21 c 0
 219.077 686.21 88.4375 579.57 88.4375 345 c 0
 88.4375 116.64 191.218 -5.14062 353.008 -5.14062 c 0
 423.578 -5.14062 477.788 18.1396 516.288 41.29 c 1
 516.288 339.29 l 1
 365.858 339.29 l 1
 365.578 343.22 l 1
 520.358 343.22 l 1
 520.358 39.2197 l 1
 479.148 14.5 422.498 -9.07031 352.998 -9.07031 c 0
 189.928 -9.07031 84.2881 113.649 84.2881 344.999 c 0
 84.2881 582.069 216.858 690.14 343.358 690.14 c 0
EndSplineSet
Substitution2: "'c2sc' Capitals to Small Capitals lookup 23 subtable" gcircumflex.sc
Substitution2: "'aalt' Access All Alternates lookup 0 subtable" gcircumflex.sc
Position2: "'cpsp' Capital Spacing lookup 0 subtable" dx=5 dy=0 dh=10 dv=0
EndChar

StartChar: gcircumflex
Encoding: 285 285 170
Width: 487
GlyphClass: 2
Flags: MW
HStem: -192.51 249.28 52.92 144.49 507.21 20G<192.605 241.21>
VStem: 53.93 408.94
AnchorPoint: "Anchor-11" 228 0 basechar 0
AnchorPoint: "Anchor-10" 0 0 basechar 0
AnchorPoint: "Anchor-9" 246 517 basechar 0
AnchorPoint: "Anchor-8" 0 0 basechar 0
LayerCount: 2
Fore
SplineSet
138.5 661.57 m 1xb0
 248.569 746.71 l 1
 251.569 746.71 l 1
 359.859 661.57 l 1
 356.93 659.351 l 1
 250.069 742.501 l 1
 141.43 659.351 l 1
 138.5 661.57 l 1xb0
462.859 540.43 m 1
 429.209 530.569 379.789 523.704 276.649 523.645 c 1
 372.109 510.744 419.289 444.424 419.289 355.983 c 0
 419.289 252.203 351.289 193.633 248.569 193.633 c 0
 217.029 193.633 189.319 201.343 164.699 212.963 c 1
 132.749 193.183 109.069 164.562 109.069 128.133 c 0
 109.069 83.7725 144.289 56.7725 217.069 56.7725 c 2
 307.72 56.7725 l 2
 400.29 56.7725 452.64 10.4922 452.64 -58.7979 c 0
 452.64 -145.868 387.569 -192.508 251.93 -192.508 c 0xb0
 114.21 -192.508 53.9297 -158.078 53.9297 -59.7979 c 1
 57.9297 -59.7979 l 1
 58.0693 -155.868 117.069 -188.648 251.93 -188.648 c 0
 384.569 -188.648 448.569 -143.719 448.569 -58.9385 c 0
 448.569 9.49121 395.999 52.9209 307.569 52.9209 c 2
 216.93 52.9209 l 2
 142.43 52.9209 105 81.6406 105 127.78 c 0x70
 105 167.49 130.78 194.57 161.101 214.66 c 1
 110.48 240.96 74.0703 286.11 74.0703 357.141 c 0
 74.0703 460.07 144 527.21 241.21 527.21 c 0
 396.64 527.14 423.79 534.29 462.14 544.64 c 1
 462.859 540.43 l 1
241.299 523.414 m 0
 142.869 523.414 78.1494 454.124 78.1494 357.124 c 0
 78.1494 250.984 166.289 197.414 248.579 197.414 c 0x70
 348.219 197.414 415.219 253.984 415.219 355.984 c 0
 415.219 478.194 330.148 523.414 241.299 523.414 c 0
EndSplineSet
Substitution2: "'smcp' Lowercase to Small Capitals lookup 24 subtable" gcircumflex.sc
Substitution2: "'aalt' Access All Alternates lookup 0 subtable" gcircumflex.sc
EndChar
StartChar: Gbreve
Encoding: 286 286 101
Width: 600
GlyphClass: 2
Flags: MW
HStem: -9 21G<271.5 388> 670 20G<280 374.5> 686 92<314 362 314 374>
VStem: 366 154<339 343 39 343>
AnchorPoint: "Anchor-14" 0 0 basechar 0
AnchorPoint: "Anchor-13" 0 0 basechar 0
AnchorPoint: "Anchor-12" 340 837 basechar 0
AnchorPoint: "Anchor-11" 0 0 basechar 0
AnchorPoint: "Anchor-10" 338 0 basechar 0
LayerCount: 2
Back
Fore
SplineSet
338 774 m 0xb0
 283 774 252 805 241 835 c 1
 244 837 l 1
 257 803 290 778 338 778 c 0
 386 778 419 803 432 837 c 1
 435 835 l 1
 425 805 394 774 338 774 c 0xb0
343 690 m 0xd0
 406 690 453 671 502 635 c 1
 499 631 l 1
 452 667 405 686 343 686 c 0xb0
 219 686 88 580 88 345 c 0
 88 117 191 -5 353 -5 c 0
 424 -5 478 18 516 41 c 1
 516 339 l 1
 366 339 l 1
 366 343 l 1
 520 343 l 1
 520 39 l 1
 479 15 423 -9 353 -9 c 0
 190 -9 84 114 84 345 c 0
 84 582 217 690 343 690 c 0xd0
EndSplineSet
Substitution2: "'c2sc' Capitals to Small Capitals lookup 26 subtable" gbreve.sc
Substitution2: "'aalt' Access All Alternates lookup 0 subtable" gbreve.sc
Position2: "'cpsp' Capital Spacing lookup 0 subtable" dx=5 dy=0 dh=10 dv=0
EndChar

StartChar: gbreve
Encoding: 287 287 169
Width: 487
GlyphClass: 2
Flags: MW
HStem: -192.53 249.3 52.9 144.5 507.19 20G 523.4 161.19 684.59 53.55 718.14 20G
VStem: 53.94 408.93
AnchorPoint: "Anchor-11" 228 0 basechar 0
AnchorPoint: "Anchor-10" 0 0 basechar 0
AnchorPoint: "Anchor-9" 246 517 basechar 0
AnchorPoint: "Anchor-8" 0 0 basechar 0
LayerCount: 2
Fore
SplineSet
186.91 684.59 m 1x8a
 168.43 697.42 156.579 716.439 150.499 737.569 c 1
 150.779 738.14 l 1
 157.399 714.87 169.72 696.68 186.91 684.59 c 1x8a
341.779 737.569 m 1
 335.699 716.449 323.849 697.43 305.368 684.59 c 1
 322.559 696.68 334.879 714.87 341.499 738.14 c 1
 341.779 737.569 l 1
305.368 684.59 m 1x96
 289.538 673.45 269.578 667.49 246.148 667.49 c 0
 222.719 667.49 202.749 673.45 186.919 684.59 c 1
 202.049 674.07 221.639 667.7 246.139 667.7 c 0
 270.648 667.7 290.229 674.07 305.368 684.59 c 1x96
307.718 56.7695 m 2
 400.288 56.7695 452.647 10.4736 452.647 -58.8164 c 0
 452.647 -145.887 387.577 -192.526 251.938 -192.526 c 0x96
 114.218 -192.526 53.9375 -158.097 53.9375 -59.8164 c 1
 57.9375 -59.8164 l 1
 58.0771 -155.887 117.077 -188.667 251.938 -188.667 c 0
 384.577 -188.667 448.577 -143.737 448.577 -58.957 c 0
 448.577 9.47266 396.007 52.9023 307.577 52.9023 c 2
 216.938 52.9023 l 2
 142.438 52.9023 105.008 81.6221 105.008 127.762 c 0
 105.008 167.472 130.788 194.552 161.108 214.642 c 1
 110.488 240.941 74.0781 286.092 74.0781 357.122 c 0
 74.0781 460.052 144.008 527.191 241.218 527.191 c 0x66
 396.647 527.121 423.798 534.271 462.147 544.621 c 1
 462.867 540.411 l 1
 429.217 530.551 379.787 523.701 276.647 523.642 c 1
 372.107 510.741 419.287 444.421 419.287 355.98 c 0
 419.287 252.2 351.287 193.63 248.567 193.63 c 0
 217.027 193.63 189.317 201.34 164.697 212.96 c 1
 132.747 193.18 109.067 164.56 109.067 128.13 c 0
 109.067 83.7695 144.287 56.7695 217.067 56.7695 c 2
 307.718 56.7695 l 2
78.1572 357.114 m 0x56
 78.1572 250.975 166.297 197.404 248.577 197.404 c 0
 348.228 197.404 415.228 253.975 415.228 355.975 c 0
 415.228 478.185 330.157 523.404 241.297 523.404 c 0
 142.867 523.404 78.1572 454.114 78.1572 357.114 c 0x56
EndSplineSet
Substitution2: "'smcp' Lowercase to Small Capitals lookup 24 subtable" gbreve.sc
Substitution2: "'aalt' Access All Alternates lookup 0 subtable" gbreve.sc
EndChar
StartChar: Gdotaccent
Encoding: 288 288 105
Width: 600
GlyphClass: 2
Flags: MW
HStem: -9 21G<271.5 388> 670 20G<280 374.5> 819 15<335 339.5>
VStem: 366 154<339 343 39 343>
AnchorPoint: "Anchor-14" 0 0 basechar 0
AnchorPoint: "Anchor-13" 0 0 basechar 0
AnchorPoint: "Anchor-12" 339 834 basechar 0
AnchorPoint: "Anchor-11" 0 0 basechar 0
AnchorPoint: "Anchor-10" 338 0 basechar 0
LayerCount: 2
Back
Fore
SplineSet
337 834 m 0
 342 834 345 830 345 826 c 0
 345 823 342 819 337 819 c 0
 333 819 330 823 330 826 c 0
 330 830 333 834 337 834 c 0
343 690 m 0
 406 690 453 671 502 635 c 1
 499 631 l 1
 452 667 405 686 343 686 c 0
 219 686 88 580 88 345 c 0
 88 117 191 -5 353 -5 c 0
 424 -5 478 18 516 41 c 1
 516 339 l 1
 366 339 l 1
 366 343 l 1
 520 343 l 1
 520 39 l 1
 479 15 423 -9 353 -9 c 0
 190 -9 84 114 84 345 c 0
 84 582 217 690 343 690 c 0
EndSplineSet
Substitution2: "'c2sc' Capitals to Small Capitals lookup 26 subtable" gdotaccent.sc
Substitution2: "'aalt' Access All Alternates lookup 0 subtable" gdotaccent.sc
Position2: "'cpsp' Capital Spacing lookup 0 subtable" dx=5 dy=0 dh=10 dv=0
EndChar

StartChar: gdotaccent
Encoding: 289 289 172
Width: 487
GlyphClass: 2
Flags: MW
HStem: -192.52 249.29 52.92 144.48 507.21 20G<192.605 241.21> 693.06 14.72
VStem: 53.93 408.94
AnchorPoint: "Anchor-11" 228 0 basechar 0
AnchorPoint: "Anchor-10" 0 0 basechar 0
AnchorPoint: "Anchor-9" 246 517 basechar 0
AnchorPoint: "Anchor-8" 0 0 basechar 0
LayerCount: 2
Fore
SplineSet
246.14 707.78 m 0xb8
 251.069 707.78 253.569 704.141 253.569 700.421 c 0
 253.569 696.711 251.069 693.061 246.14 693.061 c 0
 241.29 693.061 238.72 696.711 238.72 700.421 c 0
 238.72 704.141 241.29 707.78 246.14 707.78 c 0xb8
462.859 540.42 m 1
 429.209 530.57 379.789 523.691 276.649 523.632 c 1
 372.109 510.742 419.289 444.412 419.289 355.982 c 0
 419.289 252.192 351.289 193.622 248.569 193.622 c 0
 217.029 193.622 189.319 201.332 164.699 212.952 c 1
 132.749 193.183 109.069 164.562 109.069 128.122 c 0
 109.069 83.7725 144.289 56.7725 217.069 56.7725 c 2
 307.72 56.7725 l 2
 400.29 56.7725 452.64 10.4824 452.64 -58.7979 c 0
 452.64 -145.868 387.569 -192.519 251.93 -192.519 c 0xb8
 114.21 -192.519 53.9297 -158.089 53.9297 -59.7988 c 1
 57.9297 -59.7988 l 1
 58.0693 -155.869 117.069 -188.659 251.93 -188.659 c 0
 384.569 -188.659 448.569 -143.729 448.569 -58.9395 c 0
 448.569 9.49023 395.999 52.9199 307.569 52.9199 c 2
 216.93 52.9199 l 2
 142.43 52.9199 105 81.6299 105 127.78 c 0x78
 105 167.48 130.78 194.57 161.101 214.65 c 1
 110.48 240.95 74.0703 286.11 74.0703 357.13 c 0
 74.0703 460.06 144 527.21 241.21 527.21 c 0
 396.64 527.14 423.79 534.279 462.14 544.64 c 1
 462.859 540.42 l 1
241.299 523.401 m 0
 142.869 523.401 78.1494 454.122 78.1494 357.122 c 0
 78.1494 250.972 166.289 197.401 248.579 197.401 c 0x78
 348.219 197.401 415.219 253.972 415.219 355.972 c 0
 415.219 478.191 330.148 523.401 241.299 523.401 c 0
EndSplineSet
Substitution2: "'smcp' Lowercase to Small Capitals lookup 24 subtable" gdotaccent.sc
Substitution2: "'aalt' Access All Alternates lookup 0 subtable" gdotaccent.sc
EndChar

StartChar: Gcommaaccent
Encoding: 290 290 38
Width: 600
GlyphClass: 2
Flags: MW
HStem: -119.5 13.64 -9.07001 21G 670.14 20G
VStem: 339.15 13.93 365.71 154.65
AnchorPoint: "Anchor-11" 338 0 basechar 0
AnchorPoint: "Anchor-10" 0 0 basechar 0
AnchorPoint: "Anchor-9" 338 680 basechar 0
AnchorPoint: "Anchor-8" 0 0 basechar 0
LayerCount: 2
Fore
SplineSet
343.35 690.14 m 0
 406.21 690.14 453.29 671.069 501.65 634.709 c 1
 499.36 631.359 l 1
 452.29 667.43 404.51 686.21 343.359 686.21 c 0
 219.079 686.21 88.4287 579.57 88.4287 345 c 0
 88.4287 116.64 191.219 -5.14062 352.999 -5.14062 c 0
 423.569 -5.14062 477.789 18.1396 516.289 41.29 c 1
 516.289 339.29 l 1
 365.859 339.29 l 1
 365.569 343.22 l 1
 520.359 343.22 l 1
 520.359 39.2197 l 1xf8
 479.14 14.5 422.5 -9.07031 353 -9.07031 c 0
 189.93 -9.07031 84.2793 113.649 84.2793 344.999 c 0
 84.2793 582.069 216.85 690.14 343.35 690.14 c 0
346.079 -105.86 m 0
 350.439 -105.86 353.079 -108.71 353.079 -112.71 c 0
 353.079 -115.71 352.719 -117.36 350.789 -124.21 c 2
 324.789 -240.86 l 1
 322.359 -240.86 l 1
 346.149 -119.5 l 1
 341.289 -119.15 339.149 -116.65 339.149 -112.721 c 0
 339.149 -108.721 341.859 -105.86 346.079 -105.86 c 0
EndSplineSet
Substitution2: "'c2sc' Capitals to Small Capitals lookup 23 subtable" gcommaaccent.sc
Substitution2: "'aalt' Access All Alternates lookup 0 subtable" gcommaaccent.sc
Position2: "'cpsp' Capital Spacing lookup 0 subtable" dx=5 dy=0 dh=10 dv=0
EndChar
